<svg xmlns="http://www.w3.org/2000/svg" viewBox="0 0 683.63 683.63"><g id="Layer_2" data-name="Layer 2"><path d="M-1014-34c10.33,3.55,20.57,7.35,31,10.53,4.82,1.47,7.37,3.81,9,8.78,12.49,38.29,25.42,76.44,38,114.71,1.67,5.08,4.37,7.81,9.46,9.48,38.27,12.56,76.42,25.49,114.71,38,5,1.61,7.22,4.17,8.79,9,11.47,35,23.23,69.94,34.94,105-12.22-.44-16.34-3.38-19.89-14-8.78-26.34-17.7-52.63-26.21-79.06-1.74-5.41-4.7-8.08-10-9.81-38.06-12.49-76-25.35-114-37.83-4.82-1.58-7.37-3.89-9-8.81-12.51-38.29-25.44-76.44-38-114.71-1.67-5.09-4.33-8-9.5-9.45-6.54-1.85-12.87-4.45-19.29-6.73Z" transform="translate(1013.99 325.26)"/><path d="M-1014-5.32c13.39,1.56,18.55,10.16,22.3,22.37,10.69,34.81,22.85,69.16,34.13,103.8,1.84,5.63,5,8.46,10.47,10.26,38.28,12.55,76.46,25.45,114.74,38,4.13,1.36,6.24,3.43,7.59,7.57,8,24.66,16.32,49.23,24.59,74-12.2-.33-16.25-3.29-19.84-14.08-5-15.12-10.33-30.16-15-45.4-1.92-6.31-5.25-9.71-11.61-11.77-37.67-12.23-75.18-25-112.84-37.25-5.14-1.68-7.65-4.38-9.31-9.43Q-987.56,75.31-1007,18.1c-1.1-3.21-4.58-5.61-7-8.38Z" transform="translate(1013.99 325.26)"/><path d="M-330.36,322.82c-29.6-9.72-59.06-19.87-88.86-28.91-9.79-3-14.56-8-17.61-17.67-11.34-36-23.77-71.69-35.46-107.6-1.84-5.64-4.88-8.44-10.43-10.23-25.12-8.08-49.91-17.27-75.22-24.65-11.28-3.28-17-9.09-17.67-20.91,1.79.43,3.69.76,5.49,1.36,33.68,11.2,67.32,22.51,101,33.56,4.16,1.36,6.19,3.55,7.54,7.65,12.59,38.25,25.52,76.38,38,114.67,1.92,5.91,5.07,8.79,10.87,10.65,27.52,8.77,54.89,18,82.32,27Z" transform="translate(1013.99 325.26)"/><path d="M-621.58-325.26c9.49,28.72,18.82,57.5,28.72,86.08,1,2.88,5.15,5.53,8.4,6.64q57.18,19.46,114.59,38.25c4.59,1.51,7,3.75,8.5,8.4,10.79,33.09,21.9,66.08,32.89,99.11.71,2.12,1.34,4.27,2,6.51-13.1-1-16.13-3.28-20-14.89-8.63-25.9-17.41-51.75-25.77-77.73-1.79-5.56-4.6-8.59-10.24-10.43q-57.42-18.75-114.6-38.21c-2.66-.9-6.12-3-6.91-5.32-11.12-32.72-21.84-65.58-32.66-98.41Z" transform="translate(1013.99 325.26)"/><path d="M-689.95-325.26c.14.19.26.51.41.53,11.76,1.55,14.61,10.35,17.72,20,11.32,35.31,23.41,70.37,35,105.61,1.67,5.11,4.41,7.77,9.49,9.44,38,12.49,76,25.36,114,37.79,5.39,1.76,8.06,4.5,9.67,9.87,4.05,13.47,8.77,26.74,13.27,40.21-12.17-.38-17.46-3.13-19.6-14.16-3.29-17-12.68-25-29.3-29.73-33.87-9.69-67-22-100.5-33-4.33-1.42-6.62-3.59-8-8-12.56-38.26-25.48-76.4-38-114.67-1.83-5.59-4.7-8.84-10.4-10.3-6.16-1.59-12.05-4.19-18.19-5.83-4.41-1.17-7.24-3.43-8.3-7.86Z" transform="translate(1013.99 325.26)"/><path d="M-330.36,351.53c-39.75-13.19-79.53-26.31-119.19-39.77-2.4-.81-4.78-4-5.66-6.61q-19.4-57.25-38.24-114.68c-1.9-5.81-4.94-9-10.8-10.83-15.66-4.82-31-10.65-46.75-15.21-7.21-2.1-11.42-5.67-12.63-13a61.12,61.12,0,0,0-2-6.71c2.61.65,4.5,1,6.31,1.58,22.69,7.53,45.33,15.21,68.08,22.54,4.58,1.47,7,3.76,8.53,8.42,12.39,37.86,25.22,75.58,37.53,113.47,2.06,6.37,5.47,9.56,11.75,11.59,34.43,11.15,68.73,22.72,103.07,34.15Z" transform="translate(1013.99 325.26)"/><path d="M-650.3-325.26c11.65,35,23.41,69.95,34.84,105,1.7,5.2,4.64,7.69,9.63,9.33,38.28,12.58,76.46,25.48,114.75,38,4.66,1.53,6.94,4,8.42,8.53,7.26,22.54,14.88,45,22.36,67.42.64,1.91,1.12,3.87,1.71,5.91-12.6-.77-16-3.27-19.64-14.27C-483.5-121.08-489-136.78-494-152.63c-1.54-4.88-4.19-7.43-9-9-38.28-12.57-76.46-25.47-114.75-38-4.79-1.57-7.42-3.95-9-8.86-12.69-39-25.67-77.82-38.57-116.72Z" transform="translate(1013.99 325.26)"/><path d="M-397.36,358.37c-22.82-7.77-45.54-15.85-68.52-23.11-6.91-2.19-10.13-5.8-12.31-12.53-12-37.25-24.68-74.31-36.86-111.52-1.74-5.33-4.39-8.62-9.92-9.93-4.41-1-8.56-3.49-13-4.08-11.91-1.56-14.9-9.88-16.57-20.78,15.81,5.25,31.09,10.14,46.16,15.58,1.92.69,3.27,4.09,4.09,6.51Q-485,255.8-466.1,313.19c1.74,5.32,4.44,8.22,9.83,10,32.68,10.64,65.26,21.62,97.85,32.53,2.13.71,4.13,1.78,6.18,2.68Z" transform="translate(1013.99 325.26)"/><path d="M-1014,38.43c6.37,18.47,12.81,36.92,19.09,55.42,5.57,16.38,11.13,32.77,16.34,49.26,1.55,4.9,4.29,7.39,9.1,9,38.28,12.58,76.45,25.49,114.74,38,4.85,1.59,7.46,3.95,9,8.88,4.17,13.71,8.92,27.25,13.46,40.91-10.89.25-17.39-3.19-19.24-13.23-3.3-17.85-13.48-26.06-30.75-31-33.25-9.43-65.74-21.54-98.63-32.28-4.78-1.56-7.42-3.82-9-8.8-6.88-21.69-14.26-43.23-21.5-64.81-.71-2.13-1.71-4.18-2.58-6.26Z" transform="translate(1013.99 325.26)"/><path d="M-836.24,358.37c-2.77-2.37-5.15-5.85-8.35-6.94q-57.46-19.6-115.19-38.5c-4.48-1.48-7.1-3.61-8.63-8.32-10.86-33.3-22.05-66.49-33.12-99.72-.63-1.9-1.11-3.85-1.69-5.87,12,.46,16,3.32,19.43,13.57,8.84,26.54,17.81,53,26.45,79.65,1.65,5.09,4.37,7.81,9.46,9.48,37.17,12.2,74.18,24.89,111.42,36.86,7.32,2.35,11.85,5.71,13.09,13.33.35,2.21,1.42,4.31,2.17,6.46Z" transform="translate(1013.99 325.26)"/><path d="M-1014-176.23c13.37,1.57,18.54,10.14,22.29,22.35,10.68,34.77,22.82,69.1,34.1,103.7,1.82,5.56,4.82,8.56,10.38,10.35,25.54,8.23,50.77,17.51,76.53,25,11.09,3.21,15.33,9.62,16.54,20.47-1.78-.4-3.46-.62-5-1.14C-893.08-6.8-926.92-18.18-960.87-29.27c-4.26-1.39-6.1-3.73-7.42-7.75Q-987.43-95-1007-152.85c-1.09-3.19-4.57-5.58-7-8.34Z" transform="translate(1013.99 325.26)"/><path d="M-807.53,358.37c-2.28-6.42-4.89-12.75-6.74-19.3-1.46-5.17-4.35-7.82-9.45-9.49-38.07-12.49-76-25.37-114.09-37.82-5.34-1.75-8-4.45-9.69-9.85-7-22.15-14.54-44.1-21.87-66.14-.68-2.07-1.25-4.17-2-6.8,10.16,1.68,17.65,4.31,20.48,15.72,3.82,15.42,10,30.25,14.69,45.47,1.73,5.6,4.69,8.57,10.3,10.41,38.08,12.46,76,25.36,114.11,37.79,5,1.62,7.32,4.16,8.79,9,3.18,10.44,7,20.69,10.54,31Z" transform="translate(1013.99 325.26)"/><path d="M-1014-204.94c10.33,3.55,20.58,7.36,31,10.54,4.84,1.47,7.37,3.83,9,8.79,12.43,38.1,25.34,76,37.8,114.12,1.83,5.61,4.81,8.56,10.41,10.29,15.22,4.69,30,10.87,45.47,14.69,11.41,2.83,14,10.34,15.77,20.73L-901.19-38c-12.53-4.17-25-8.55-37.63-12.39-4.7-1.43-6.84-4.06-8.34-8.6-12.57-38.29-25.47-76.46-38-114.75-1.67-5.1-4.33-8-9.5-9.46-6.54-1.85-12.87-4.45-19.3-6.73Z" transform="translate(1013.99 325.26)"/><path d="M-821.2-325.26c11.63,35,23.37,69.89,34.81,104.91,1.67,5.14,4.51,7.76,9.55,9.39,25.74,8.35,51.19,17.68,77.16,25.23,11.09,3.23,15.37,9.57,16.4,20.48-1.83-.43-3.52-.69-5.11-1.22-33.89-11.27-67.79-22.49-101.59-34-2.58-.88-5.71-3.31-6.53-5.72-13.44-39.63-26.55-79.36-39.73-119.08Z" transform="translate(1013.99 325.26)"/><path d="M-330.36-161.19q-59.56-19.77-119.1-39.64c-1.91-.64-4.3-2.29-4.88-4-12.24-36.16-24.25-72.4-36.35-108.76,11.56,0,16.23,3.28,19.59,13.37,8.84,26.54,17.79,53,26.44,79.65,1.64,5,4.26,7.87,9.4,9.55,35,11.43,69.94,23.17,104.9,34.8Z" transform="translate(1013.99 325.26)"/><path d="M-780.19,358.37c-4.73-14.92-9.19-29.93-14.46-44.66-.88-2.47-5-4.39-8-5.41q-57.2-19.32-114.56-38.17c-4.58-1.5-7.07-3.69-8.51-8.4-4.25-13.87-9.06-27.57-13.95-42.22,10.1,2,18.88,3.74,20.4,15.64,2.11,16.57,12,24.28,28.15,28.92,34.06,9.79,67.42,22,101.14,33.07,4.34,1.42,6.7,3.62,8.09,8,4.91,15.62,10.26,31.1,15.37,46.65a57.17,57.17,0,0,1,1.35,6.55Z" transform="translate(1013.99 325.26)"/><path d="M-1014-232.28c9.31,2.8,18.65,5.5,27.92,8.43,8.45,2.67,16.76,5.83,25.27,8.29,4.46,1.29,6.61,3.76,8,8.09,12.64,38.45,25.6,76.79,38.2,115.25,1.69,5.13,4.3,8.14,9.53,9.37,4,.93,7.7,3.09,11.68,3.71,11.68,1.82,16.94,9,17.91,21.24-7.2-2.4-14.22-4.65-21.17-7.07-9-3.13-20.14-4.15-26.26-10.22-5.93-5.88-6.72-17-9.67-25.82-10.31-30.83-20.77-61.63-30.73-92.58-2.05-6.38-5.38-9.74-11.76-11.53-13.09-3.67-26-8-39-12.12Z" transform="translate(1013.99 325.26)"/><path d="M-1014-261c15.36,4.92,30.72,9.81,46.06,14.78,10,3.23,19.95,6.37,29.75,10,2.37.88,5.11,3.26,5.89,5.56,15.44,45.7,30.62,91.49,45.85,137.27.26.79.37,1.64.69,3.05-10.09-2-17.15-4.77-20.64-16.27-11.21-37-24-73.53-36.46-110.16-1-2.92-3.21-6.74-5.73-7.62-21.69-7.52-43.58-14.47-65.41-21.59Z" transform="translate(1013.99 325.26)"/><path d="M-751.47,358.37c-7.12-21.83-14.07-43.72-21.59-65.4-.88-2.53-4.7-4.74-7.62-5.74-36-12.21-71.88-24.72-108.19-35.88-11.22-3.44-17-9.07-17.92-21.3,2,.62,4,1.16,6,1.81,44,14.68,88,29.44,132.13,44,4.33,1.42,6.66,3.52,8.09,7.95,7.33,22.73,15.05,45.35,22.58,68,.71,2.13,1,4.38,1.57,6.57Z" transform="translate(1013.99 325.26)"/><path d="M-330.36-47.71c-18.81-6-37.65-12-56.42-18.17-8-2.61-17.83-3.6-23.18-9s-6.27-15.25-8.93-23.21q-14.6-43.66-29.11-87.47c11.77.24,16.2,3.32,19.56,13.38,8.94,26.75,17.8,53.54,26.95,80.22,1,2.91,3.22,6.73,5.74,7.6,21.68,7.53,43.57,14.47,65.39,21.58Z" transform="translate(1013.99 325.26)"/><path d="M-934.69-325.26c7.12,21.83,14.06,43.71,21.59,65.39.87,2.53,4.69,4.74,7.6,5.74,25.83,8.85,51.75,17.4,77.65,26,13.57,4.52,13.57,4.51,16.55,20.31-1.9-.48-3.58-.79-5.18-1.33-33.89-11.28-67.79-22.53-101.6-34-2.6-.89-5.78-3.26-6.62-5.66-8.5-24.5-16.58-49.14-24.75-73.76a13,13,0,0,1-.28-2.68Z" transform="translate(1013.99 325.26)"/><path d="M-330.36-189.9c-29.6-9.72-59.07-19.89-88.89-28.92-9.81-3-14.75-8-17.59-17.7-6-20.53-13.28-40.66-20-61-.62-1.88-1.13-3.79-1.89-6.37,10,2,17.68,4.16,20.53,15.7,4,16.08,10,31.67,15.54,47.32,1,2.83,3.58,6.29,6.21,7.19,28.61,9.83,57.38,19.2,86.11,28.7Z" transform="translate(1013.99 325.26)"/><path d="M-792.49-325.26c9.5,28.73,18.87,57.51,28.7,86.13.9,2.62,4.36,5.19,7.19,6.19,15.88,5.63,31.8,11.17,48,15.89,7.6,2.22,12.44,5.77,13.51,13.8a43.2,43.2,0,0,0,1.8,6,36.27,36.27,0,0,1-4.67-.83c-23.76-7.88-47.53-15.72-71.22-23.82-2.23-.77-5-2.8-5.68-4.86-11.05-32.76-21.81-65.62-32.63-98.46Z" transform="translate(1013.99 325.26)"/><path d="M-483.49,358.37c-.14-.18-.26-.51-.41-.53-11.75-1.55-14.59-10.35-17.72-20-13.07-40.47-26.78-80.75-40.23-121.1-.78-2.32-1.42-4.67-2.35-7.78,10.2,1.85,17.11,4.55,20.52,15.7,11.26,36.75,24.12,73,36,109.55,1.92,5.89,5.07,8.84,10.88,10.68,12.93,4.09,25.61,9,38.4,13.52Z" transform="translate(1013.99 325.26)"/><path d="M-1014,124.57c4.49,12.56,9.44,25,13.28,37.73,2,6.74,5.68,9.84,12.19,11.95,35.69,11.56,71.08,24.07,106.91,35.15,10.82,3.35,15.87,9.15,16.64,20.56-1.83-.44-3.69-.76-5.45-1.35-44.45-14.77-88.92-29.5-133.27-44.56-2.84-1-5.08-4.37-7-7.05-1.54-2.11-2.2-4.85-3.26-7.31Z" transform="translate(1013.99 325.26)"/><path d="M-605.18-325.26c22.81,7.77,45.52,15.84,68.49,23.11,6.87,2.17,10.24,5.68,12.34,12.48,6.59,21.29,13.92,42.36,21,63.51.77,2.3,1.42,4.64,2.32,7.6-9.73-1.92-17.45-3.72-20.27-15.06-3.88-15.63-10.16-30.65-14.94-46.07-1.73-5.57-4.51-8.71-10.22-10.45-14.8-4.51-29.15-10.67-44.14-14.27-12-2.87-16.06-10.13-17.26-20.85Z" transform="translate(1013.99 325.26)"/><path d="M-330.36,294.11c-4.56-1.32-9.29-2.26-13.6-4.14-1.88-.82-3.51-3.37-4.24-5.47-5.86-17-11.69-34-17.06-51.15-1.81-5.78-4.66-9.08-10.66-10.9-15.67-4.75-31-10.7-46.71-15.25-7.2-2.08-11.51-5.5-12.78-12.84a68.43,68.43,0,0,0-2-6.9c2.44.59,4.28.89,6,1.47,23.1,7.67,46.15,15.51,69.32,23,4.28,1.37,6.09,3.81,7.38,7.79,7.12,21.85,14.46,43.63,21.76,65.42.71,2.13,1.71,4.17,2.58,6.25Z" transform="translate(1013.99 325.26)"/><path d="M-636.62,358.37c-2.28-6.42-4.88-12.74-6.74-19.28-1.46-5.15-4.32-7.86-9.43-9.51-25.11-8.11-49.93-17.14-75.21-24.64-11.14-3.3-17.92-8.63-18.45-21.05a35.67,35.67,0,0,1,4.57.93c34.1,11.33,68.22,22.6,102.21,34.26,2.83,1,5.75,4.22,6.88,7.1,4.14,10.57,7.53,21.43,11.21,32.19Z" transform="translate(1013.99 325.26)"/><path d="M-330.36,250.36c-4.56-12.8-9.43-25.49-13.52-38.42-1.85-5.83-4.82-9-10.71-10.87-25.58-8.2-50.79-17.6-76.58-25-11.22-3.24-15.05-9.87-16.37-20.59,2.54.71,4.88,1.25,7.15,2,31.75,10.56,63.44,21.29,95.28,31.59,6.8,2.2,12,5,12.93,12.7.16,1.22,1.19,2.34,1.82,3.51Z" transform="translate(1013.99 325.26)"/><path d="M-519-325.26c.14.19.25.51.41.53,11.77,1.54,14.63,10.35,17.72,20.06,10.22,32.09,21.15,64,31.85,96-11.47-.08-16.36-3.45-19.63-13.28-8.84-26.57-17.81-53.1-26.39-79.75-1.74-5.41-4.73-8.12-10-9.84-13.13-4.26-26.06-9.12-39.07-13.74Z" transform="translate(1013.99 325.26)"/><path d="M-330.36-76.42c-9.53-2.88-19.09-5.65-28.57-8.66-8.67-2.76-17.33-5.59-25.84-8.79-2.24-.84-5-2.83-5.67-4.9-8.5-24.74-16.67-49.6-24.9-74.43a14.67,14.67,0,0,1-.21-2.81c4.83,1.59,9.5,2.6,13.59,4.7,2,1,3.53,3.92,4.34,6.28,5.83,17,11.61,34,17,51.18,1.69,5.41,4.66,8.27,10,9.83,13.5,4,26.86,8.35,40.28,12.56Z" transform="translate(1013.99 325.26)"/><path d="M-906-325.26c4.73,14.93,9.27,29.92,14.42,44.7.76,2.18,4.19,4,6.77,4.89,15.89,5.53,31.78,11.17,47.92,15.9,7.59,2.23,12.48,5.72,13.57,13.77.24,1.77,1,3.46,1.85,6a44.94,44.94,0,0,1-5.4-1.06c-23.32-7.73-46.67-15.39-69.88-23.45-2.72-.94-5.83-3.71-6.77-6.34-5.93-16.48-11.31-33.16-16.81-49.79a27,27,0,0,1-.71-4.61Z" transform="translate(1013.99 325.26)"/><path d="M-763.78-325.26c7.12,21.82,14.11,43.69,21.54,65.4.78,2.28,3.87,4.32,6.36,5.35a108.06,108.06,0,0,0,17.47,5.79c7,1.58,11.24,5.16,12.28,12.42.31,2.17,1.25,4.25,2.29,7.65-11.66-3.84-22.17-8.2-33.1-10.64-12-2.69-18-9.08-21.23-21-5.26-19.52-12.53-38.49-18.89-57.71-.77-2.34-1.18-4.81-1.76-7.22Z" transform="translate(1013.99 325.26)"/><path d="M-330.36-218.61c-12.76-4-25.55-8-38.28-12.18-12.55-4.07-25.09-8.2-37.54-12.57-2.09-.74-4.74-2.44-5.41-4.32-5.24-14.77-10.06-29.69-15.06-44.7,12.37.44,17.44,3,19.54,14.08,3.29,17.39,12.94,26.08,30,29.89,15.9,3.56,31.21,9.74,46.78,14.76Z" transform="translate(1013.99 325.26)"/><path d="M-330.36,165.59c-1.1-2.71-2.36-5.36-3.29-8.13q-18.62-55.62-37.15-111.28c-.83-2.49-1.55-5-2.46-8,10.54,1.48,17.4,4.61,20.58,15.77,6.4,22.47,14.76,44.38,22.32,66.52Z" transform="translate(1013.99 325.26)"/><path d="M-434.27-325.26c22.34,7.63,44.44,16.09,67.11,22.52,11.12,3.16,13.4,10.28,15.26,20.13-1.84-.41-3.1-.59-4.29-1q-59.51-19.79-119-39.64a35.48,35.48,0,0,1-4.22-2Z" transform="translate(1013.99 325.26)"/><path d="M-665.34,358.37c-2.54-2.3-4.71-5.65-7.69-6.73-15.15-5.47-30.51-10.36-45.8-15.44-13.95-4.65-13.95-4.65-17.19-20.58,2.63.73,4.95,1.27,7.19,2,21.32,7.09,42.52,14.55,64,21.16,6.91,2.12,11,5.35,12.18,12.48.4,2.43,1.56,4.73,2.37,7.09Z" transform="translate(1013.99 325.26)"/><path d="M-568.26,358.37c-11.16-3.89-22.07-8.87-33.53-11.37s-15.3-9.74-16.72-20.36a20.24,20.24,0,0,1,3.7.54q44.05,14.65,88.07,29.4a30.14,30.14,0,0,1,3.6,1.79Z" transform="translate(1013.99 325.26)"/><path d="M-1014,209.34c6.37,18.47,12.8,36.91,19.09,55.41,4.46,13.09,8.73,26.24,13.34,40.13-10.15-1.92-18-4-20.62-15.61-2.66-11.89-7.77-23.23-11.81-34.81Z" transform="translate(1013.99 325.26)"/><path d="M-878.63-325.26c2.41,6.85,4.38,13.9,7.41,20.46a18.72,18.72,0,0,0,7.55,7.65c3.68,2.1,8.1,2.91,12.19,4.27,14.78,4.94,14.78,4.94,19.18,20.87a52,52,0,0,1-5.18-1.13c-12.52-4.12-25-8.52-37.57-12.34-4.51-1.36-6.54-3.88-7.88-8.16-3.33-10.61-7.13-21.09-10.74-31.62Z" transform="translate(1013.99 325.26)"/><path d="M-330.36-103.76c-10.75-3.67-21.61-7.07-32.18-11.2-2.87-1.13-6.06-4-7.09-6.87-5.13-14-9.58-28.26-14.73-43.81,5.07,1.69,9,2.55,12.53,4.34,2.32,1.19,4.81,3.36,5.74,5.69,2.86,7.16,4.57,14.8,7.65,21.86a16.39,16.39,0,0,0,7.62,7.54c6.56,3,13.61,5,20.46,7.41Z" transform="translate(1013.99 325.26)"/><path d="M-330.36,79.45c-4.54-12.75-9.44-25.38-13.47-38.28-1.91-6.12-5-9.77-11.26-11.09-3.53-.73-6.82-2.82-10.35-3.31-11.78-1.61-17.09-8.75-17.95-21,2.51.78,4.93,1.48,7.31,2.27,10.77,3.57,21.43,7.51,32.32,10.61,6.06,1.72,10.16,4.35,11.12,10.93.24,1.66,1.49,3.18,2.28,4.77Z" transform="translate(1013.99 325.26)"/><path d="M-963.4-325.26l24.45,74.7c-10.49-1.86-17.84-4.77-20.82-16.37-5.07-19.74-12.33-38.92-18.67-58.33Z" transform="translate(1013.99 325.26)"/><path d="M-330.36-19c-22.21-7.28-44.45-14.46-66.59-22-1.9-.64-3.58-3.18-4.49-5.22-1.62-3.63-2.56-7.57-4.14-12.47L-330.36-34Z" transform="translate(1013.99 325.26)"/><path d="M-330.36,9.72C-348.67,3.69-367-2.12-385.2-8.59c-2.7-1-4.71-4.79-6.31-7.69-1.48-2.69-2-5.92-3.4-10.42l64.55,21.38Z" transform="translate(1013.99 325.26)"/><path d="M-992.11-325.26l21,63.37c-13.18-1-16.16-3.21-20-14.92q-8-24.21-16-48.45Z" transform="translate(1013.99 325.26)"/><path d="M-330.36-247.32c-7.78-2.3-15.6-4.47-23.33-6.93-9.08-2.89-18-6.48-27.16-8.91-6.43-1.71-10.46-4.69-11.46-11.47-.36-2.41-1.46-4.71-2.55-8.08,2.83.78,4.91,1.25,6.92,1.92,16.79,5.58,33.57,11.22,50.38,16.77,2.33.77,4.8,1.11,7.2,1.66Z" transform="translate(1013.99 325.26)"/><path d="M-735.07-325.26q7.19,22.67,14.36,45.31c1.92,6,4,12,6.24,18.9-9.82-2.39-18-3.86-20.68-15.6-3.24-14.09-8.9-27.62-13.42-41.42a66,66,0,0,1-1.54-7.19Z" transform="translate(1013.99 325.26)"/><path d="M-1014-61.38c8.39,2.53,17.56,3.75,24.87,8.09,4.19,2.49,5.36,10,8.65,16.89L-1014-46.34Z" transform="translate(1013.99 325.26)"/><path d="M-951.09,358.37c-1.47-5.19-2.85-10.4-4.44-15.55s-3.4-10.27-5.14-15.47c10.74-.37,16.33,3.32,19.39,12.93,1.91,6,3.5,12.06,5.23,18.09Z" transform="translate(1013.99 325.26)"/><path d="M-922.38,358.37c-2-6.87-4-13.75-6.11-20.72,14.89,1.41,18.24,4.74,21.15,20.72Z" transform="translate(1013.99 325.26)"/><path d="M-1014-90.09c4.74,1.37,9.87,2,14.07,4.39,2.41,1.35,3.53,5.3,4.86,8.24,1.1,2.43,1.65,5.1,2.77,8.7L-1014-75Z" transform="translate(1013.99 325.26)"/><path d="M-330.36-132.47c-1.07-.39-2.14-.79-3.21-1.15-14.34-4.78-14.34-4.78-18-20,11.91-.28,18.33,6.2,21.19,17.09Z" transform="translate(1013.99 325.26)"/><path d="M-860.85-325.26c.51.41,1,1.14,1.55,1.19,11.89,1.12,14.29,10,15.9,19.44-13.6-1-15.26-2.63-21.56-20.63Z" transform="translate(1013.99 325.26)"/><path d="M-1014-303.38l11.52,31.87-11.52-3.16Z" transform="translate(1013.99 325.26)"/><path d="M-722.76,358.37c-.92-3.36-1.84-6.73-3.14-11.51L-694,358.37Z" transform="translate(1013.99 325.26)"/><path d="M-1014-118.8c4.28,0,6.39,2.35,7.37,6.4.87,3.62,2.27,7.11,3.78,11.69l-11.15-3.05Z" transform="translate(1013.99 325.26)"/><path d="M-893.67,358.37l-2.76-10.1c6.25,3.38,16.34-.51,17.8,10.1Z" transform="translate(1013.99 325.26)"/><path d="M-917.59-229.49c36.73,12.25,72.81,24.18,108.75,36.49,2.33.8,4.45,4.24,5.35,6.9q19.37,57.24,38.22,114.66c1.84,5.63,4.87,8.43,10.42,10.24q57.44,18.78,114.64,38.26c2.77.94,6.13,3.53,7,6.1,11.94,34.89,23.48,69.91,35.11,104.9.28.83.43,1.69.8,3.22-9.66-2-17.14-4-20.42-15.49-7.59-26.45-17.17-52.32-25.65-78.52-1.65-5.08-4.35-7.83-9.45-9.5-38.27-12.56-76.43-25.49-114.72-38-4.94-1.62-7.23-4.19-8.81-9-12.48-38.06-25.34-76-37.82-114.06-1.74-5.32-4.49-8.22-9.86-10-25.55-8.26-50.76-17.68-76.56-25.06C-912-211.57-916.33-218-917.59-229.49Z" transform="translate(1013.99 325.26)"/><path d="M-512.24,347.7c-2.78-.79-5.12-1.35-7.39-2.1-32.61-10.85-65.17-21.83-97.85-32.47-5.06-1.65-7.74-4.2-9.42-9.32-12.52-38.28-25.44-76.44-38-114.72-1.61-4.89-4.23-7.36-9.06-9-38.49-12.65-76.87-25.61-115.35-38.27-4.31-1.42-6.67-3.55-8.12-8-11-33.53-22.21-67-33.35-100.44-.57-1.7-1-3.45-1.53-5.23,11.24-.07,16,3.27,19.38,13.34,8.77,26.34,17.67,52.64,26.2,79.06,1.79,5.55,4.73,8.6,10.32,10.43,38.29,12.52,76.45,25.44,114.72,38,4.41,1.44,6.55,3.75,8,8.07,12.5,38.06,25.34,76,37.79,114.07,1.89,5.78,4.86,9,10.73,10.88,25.78,8.27,51.22,17.7,77.22,25.21C-516.83,330.5-513.78,337.37-512.24,347.7Z" transform="translate(1013.99 325.26)"/><path d="M-661.77-144.09c4.57,1.46,7.74,2.74,11,3.46,4.28.95,6.24,3.46,7.58,7.59,8.89,27.27,18.27,54.37,27,81.69,2.12,6.65,5.69,9.87,12.21,12C-566.1-27-528.39-14.21-490.56-1.77c4.12,1.36,6.24,3.4,7.6,7.56,12.51,38.05,25.39,76,37.78,114.06,2.07,6.37,5.48,9.58,11.76,11.59,24.94,7.94,49.71,16.39,74.54,24.66,14,4.66,14,4.66,17.81,20.8-2.54-.71-4.59-1.19-6.57-1.85-33.47-11.15-66.9-22.41-100.43-33.39-4.22-1.38-6.14-3.64-7.48-7.7C-468.23,95.49-481.2,57.1-493.83,18.61c-1.67-5.08-4.31-7.8-9.43-9.47-38.06-12.47-76-25.31-114.06-37.79-5-1.64-7.85-4-9.55-9.19-10.68-32.9-21.75-65.68-32.67-98.5C-660.24-138.45-660.78-140.61-661.77-144.09Z" transform="translate(1013.99 325.26)"/><path d="M-522.89,316c-26-8.67-51.25-17-76.36-25.74-2.51-.88-4.84-4.47-5.8-7.29q-19.41-57.23-38.24-114.63c-1.76-5.4-4.66-8.09-10-9.83-38.28-12.54-76.44-25.44-114.7-38-4.28-1.41-6.71-3.49-8.14-7.94-7.95-24.65-16.24-49.2-24.46-73.93,13,.83,16.28,3.33,20.15,14.95,5.1,15.33,10.39,30.6,15.19,46,1.66,5.35,4.52,8.2,9.88,10,38.29,12.53,76.44,25.46,114.72,38,4.65,1.52,6.88,3.93,8.39,8.52,12.54,38.28,25.44,76.44,38,114.71,1.66,5.06,4.29,7.95,9.42,9.56,15.2,4.76,30.26,10,45.38,15C-525.88,299.86-525.6,300.17-522.89,316Z" transform="translate(1013.99 325.26)"/><path d="M-351.28,145.29c-16.28-5.39-31.33-10.37-46.38-15.37-9.28-3.09-18.47-6.5-27.87-9.21-4.91-1.41-7.35-3.93-9-8.84-12.51-38.29-25.44-76.44-38-114.72-1.67-5.11-4.45-7.75-9.51-9.41-38.27-12.56-76.43-25.46-114.71-38-4.55-1.5-7.06-3.73-8.56-8.38-7.32-22.74-15-45.37-22.55-68-.61-1.85-1.07-3.76-1.72-6.07,10.2,1.55,17.61,4.32,20.44,15.69,3.83,15.41,10,30.23,14.69,45.45,1.73,5.61,4.69,8.56,10.3,10.4,38.28,12.52,76.44,25.44,114.71,38,4.4,1.45,6.54,3.78,8,8.09,12.59,38.26,25.48,76.43,38,114.7,1.73,5.29,4.39,8.33,9.83,10,15.65,4.83,31,10.62,46.74,15.2,7.6,2.21,12.45,5.76,13.52,13.8C-353.08,140.33-352.29,142-351.28,145.29Z" transform="translate(1013.99 325.26)"/><path d="M-628.77,81.26c-5.87-1.92-10.36-2.87-14.3-4.9-2-1-3.64-3.82-4.45-6.15-5.71-16.58-11.41-33.16-16.56-49.91C-666,14-669.34,10.6-675.7,8.53c-37.68-12.23-75.19-25-112.85-37.26-5.16-1.68-7.64-4.41-9.29-9.45-12.48-38.08-25.32-76-37.8-114.11-1.68-5.1-4.34-7.88-9.47-9.49-15.85-5-31.43-10.88-47.38-15.5-7.46-2.16-11.81-5.86-13.07-13.41a55,55,0,0,0-1.86-6.15,44.69,44.69,0,0,1,5.31,1.06c23.55,7.8,47.14,15.52,70.58,23.67a12.05,12.05,0,0,1,6.38,6.71q19.49,57.23,38.27,114.67c2,6.12,5.31,9.19,11.32,11.15,38.09,12.44,76,25.3,114.11,37.82,4.12,1.35,6.24,3.4,7.6,7.56C-645.85,30.46-637.53,55-628.77,81.26Z" transform="translate(1013.99 325.26)"/><path d="M-896.35-165.44c15.37,5.14,29.91,9.73,44.2,15,2.57.95,5,4.36,6,7.16q19.29,56.88,38,114c1.88,5.75,4.75,8.94,10.68,10.87C-759.4-6-721.48,6.84-683.43,19.33c4.59,1.51,7.06,3.87,8.48,8.49,4.28,13.84,9,27.54,13.83,42.06-10.16-1.92-19-3.74-20.42-15.7-2-16.84-12.25-24.13-28.26-28.77-33.86-9.79-67-22-100.52-33-4.57-1.49-7-3.66-8.55-8.35-12.53-38.28-25.45-76.43-38-114.7-1.74-5.34-4.44-8.59-9.94-9.9-4.41-1.05-8.57-3.49-13-4.07C-891.72-146.18-894.71-154.49-896.35-165.44Z" transform="translate(1013.99 325.26)"/><path d="M-533.46,284c-15.83-5.3-31.12-10.25-46.24-15.68-1.75-.63-3-3.71-3.76-5.91-12.83-38.18-25.65-76.36-38.16-114.64-1.9-5.81-4.93-8.92-10.76-10.83-38.07-12.43-76-25.3-114.06-37.76-4.67-1.52-7-3.9-8.41-8.52-4.27-13.84-9-27.53-13.86-42,10.7,1.83,19.27,4.45,20.65,16.45,1.88,16.36,12.16,23.33,27.48,27.85,34,10,67.45,22.12,101.18,33.16,4.57,1.49,7,3.85,8.54,8.46,12.56,38.27,25.47,76.42,38,114.7,1.76,5.37,4.49,8.51,10,9.81,4.41,1.05,8.55,3.53,13,4.13C-538,264.82-535,273.1-533.46,284Z" transform="translate(1013.99 325.26)"/><path d="M-597.74-122.06c11,1.39,19.18,4.57,20.64,16.4,2,16,11.6,23.09,26.92,27.56C-516.12-68.18-482.74-56-449-45c5.16,1.67,7.65,4.39,9.3,9.44,12.47,38.06,25.31,76,37.79,114,1.66,5.06,4.09,8.29,9.41,9.5,4,.9,7.7,3.08,11.69,3.72,11.57,1.87,17.25,8.72,18,21-3.09-.94-6.2-1.82-9.27-2.84-11-3.64-22-7.52-33.06-10.9-4.16-1.27-6.24-3.41-7.61-7.56-12.57-38.26-25.49-76.41-38-114.7-1.91-5.85-5.08-8.83-10.87-10.72-38.06-12.44-76-25.28-114-37.79-4.31-1.42-6.72-3.48-8.1-7.94C-588.1-93.78-592.94-107.66-597.74-122.06Z" transform="translate(1013.99 325.26)"/><path d="M-885.74-132.8c1.37.12,1.82.14,2.26.21,10.24,1.45,15.45,7,18.64,17.31,11.18,36.06,23.7,71.7,35.37,107.62C-827.56-1.79-824.4,1.12-818.6,3c36.33,11.85,72.38,24.6,108.9,35.83,11,3.37,14.53,9.79,15.72,20.27-2.18-.55-4.09-.91-5.92-1.52-44.25-14.71-88.52-29.39-132.69-44.35-2.73-.92-5.92-3.69-6.82-6.32C-854.78-38.31-869.83-83.65-884.93-129A36.86,36.86,0,0,1-885.74-132.8Z" transform="translate(1013.99 325.26)"/><path d="M-523.14-111.7c-2.35-.64-4.28-1.07-6.15-1.69-44-14.65-88.1-29.25-132.05-44.16-2.9-1-6.31-3.93-7.26-6.73-15.23-44.8-30.11-89.72-45-134.62-.47-1.41-.69-2.9-1.11-4.68,10.24,1.42,16.87,4.69,20.26,15.74,11.27,36.74,24.09,73,36,109.56,1.83,5.6,4.87,8.46,10.41,10.27,36.12,11.79,72,24.38,108.27,35.6C-528.95-129.06-523.94-123.23-523.14-111.7Z" transform="translate(1013.99 325.26)"/><path d="M-735.85,59l73.44,24.47c21.8,7.27,43.63,14.44,65.35,22,2.59.89,5.73,3.31,6.55,5.73,15.47,45.68,30.64,91.48,45.86,137.25.27.81.4,1.65.71,3-10.17-1.78-17.13-4.64-20.62-16.13-11.22-37-24.18-73.47-36.24-110.23-1.59-4.87-4.21-7.38-9.05-9-36.1-11.86-72-24.49-108.26-35.69C-729.28,76.91-735.18,71.35-735.85,59Z" transform="translate(1013.99 325.26)"/><path d="M-565.14-112l108.8,36.27c10.36,3.45,20.81,6.69,31,10.49a10.65,10.65,0,0,1,5.78,5.66C-404.15-14.1-389,31.48-373.88,77c.33,1,.52,2,.9,3.54-10.35-1.89-17.25-5-20.71-16.41-11.18-36.77-24.06-73-36-109.57-1.66-5.06-4.25-7.83-9.39-9.52C-475.45-66.82-511.49-79.65-548-90.77-559.42-94.24-563.77-100.55-565.14-112Z" transform="translate(1013.99 325.26)"/><path d="M-789.2-186.68c18.68,6.23,37,12.34,55.25,18.43,17.26,5.75,34.57,11.37,51.75,17.37,2.4.83,5.3,3.08,6.07,5.33,12,35.31,23.75,70.72,35.52,106.11a11.85,11.85,0,0,1,.22,2.34c-9.59-1.67-16.77-4.14-20-15.43C-668-78.95-677.58-104.81-686.08-131c-1.64-5.07-4.41-7.83-9.48-9.47-25.32-8.18-50.36-17.31-75.88-24.8C-782.58-168.53-788.65-174.13-789.2-186.68Z" transform="translate(1013.99 325.26)"/><path d="M-810.95,134.42c-4.38-1.41-8.12-2-11.13-3.77-2.79-1.65-6-4.2-7-7.06-9.44-27.3-18.66-54.68-27.43-82.2-2-6.43-5.48-9.51-11.75-11.52-25.57-8.16-50.74-17.65-76.52-25-11.35-3.24-13.62-10.6-15.85-20.68,5.43,1.77,10.11,3.28,14.78,4.83C-915.18-.81-884.5,9.3-853.93,19.72c2.77,1,6.14,3.53,7,6.1,12,34.86,23.53,69.84,35.18,104.8C-811.44,131.46-811.36,132.36-810.95,134.42Z" transform="translate(1013.99 325.26)"/><path d="M-618.82-15.37c12,1.33,17.91,6.78,21.19,18.14,7.43,25.77,16.77,51,25.08,76.49,1.5,4.61,4,7.08,8.59,8.58,25.51,8.32,50.93,16.92,76.39,25.42,14.56,4.87,14.57,4.86,18.28,20.64-1.91-.42-3.59-.63-5.15-1.15-34.1-11.34-68.22-22.64-102.23-34.23-2.55-.87-5.51-3.47-6.35-5.92-11.89-34.88-23.45-69.86-35.08-104.83C-618.37-13-618.48-13.9-618.82-15.37Z" transform="translate(1013.99 325.26)"/><path d="M-640.38,305.31l-70.41-23.45c-12.3-4.1-24.65-8-36.85-12.43-2.41-.87-5.35-3.08-6.11-5.33-12.1-35.52-23.88-71.16-35.71-106.77-.12-.36.12-.84.25-1.69,9.81,1.61,16.82,4.74,20.1,16.13,7.63,26.42,17.16,52.28,25.67,78.45,1.51,4.63,4,7,8.62,8.54,25.74,8.39,51.16,17.82,77.15,25.28C-646.31,287.3-641.7,293.61-640.38,305.31Z" transform="translate(1013.99 325.26)"/><path d="M-949.59,16.18c26.22,8.76,51.84,17.28,77.41,26a6.49,6.49,0,0,1,3.53,3.58c8.68,25.55,17.19,51.15,26,77.56-10.28-1.9-17.91-4.09-20.75-15.64-4-16.07-9.88-31.69-15.61-47.26a15.15,15.15,0,0,0-8-8c-14.92-5.52-29.89-11.22-45.3-15C-943.78,34.63-948.47,28.09-949.59,16.18Z" transform="translate(1013.99 325.26)"/><path d="M-672.21-47.72c-1.16-.06-1.39-.05-1.62-.08-10.81-1.4-16.69-7-19.45-18.12C-697-80.88-703-95.27-707.6-110c-1.54-4.89-4.27-7.43-9.1-9-15-4.71-29.79-9.86-44.68-14.81-14-4.68-14-4.67-17.4-20.41,1.88.43,3.55.66,5.12,1.18,23.3,7.73,46.63,15.4,69.85,23.4,2.58.89,5.66,3.36,6.5,5.78,8.41,24.28,16.41,48.7,24.51,73.08A27.63,27.63,0,0,1-672.21-47.72Z" transform="translate(1013.99 325.26)"/><path d="M-651.15,273.25c-26.13-8.7-51.59-17.13-77-25.76a7.33,7.33,0,0,1-4-4c-8.52-25.2-16.85-50.48-25.18-75.75-.11-.33.2-.81.33-1.27,10.08,1.23,17.12,4.83,19.95,16.26,3.87,15.63,10.06,30.67,15,46.06,1.46,4.59,4,7.16,8.57,8.62,15.18,4.8,30,10.93,45.42,14.71C-656.61,254.94-652.21,261.65-651.15,273.25Z" transform="translate(1013.99 325.26)"/><path d="M-586.6-4.29c12.77.46,18.29,7.27,21.21,18.54,3.75,14.5,9.45,28.48,13.84,42.83,1.67,5.44,4.72,8.19,10,9.83,14.56,4.51,29,9.49,43.43,14.3s14.45,4.84,18.08,20.65a51.36,51.36,0,0,1-5.22-1.19c-23.31-7.74-46.65-15.41-69.86-23.44-2.57-.88-5.6-3.39-6.45-5.82C-569.91,47.35-577.87,23.15-585.92-1A29.9,29.9,0,0,1-586.6-4.29Z" transform="translate(1013.99 325.26)"/><path d="M-768.12-122.67c15.48,5.15,30.19,9.93,44.78,15a8.17,8.17,0,0,1,4.46,4.43c5.09,14.59,9.87,29.29,14.77,44-11,.19-17.26-3.19-19.33-13.2-3.41-16.42-10.89-27.94-28.79-29.86C-764-103.51-766.52-112.11-768.12-122.67Z" transform="translate(1013.99 325.26)"/><path d="M-532.93-229.26c-10.44-1.72-19-4-20.46-15.83-2-16-10.72-25.83-27.18-27.82-11.7-1.41-15.38-9.38-16.55-20.65,15.77,5.28,31.16,10.39,46.51,15.63a4.2,4.2,0,0,1,2.19,2.39C-543.27-260.35-538.22-245.12-532.93-229.26Z" transform="translate(1013.99 325.26)"/><path d="M-361.87,284.1c-5.21-1.67-9.09-2.42-12.47-4.15a12.54,12.54,0,0,1-5.71-5.74c-2.95-7.37-4.85-15.18-7.92-22.5a14,14,0,0,0-6.72-6.67,97.54,97.54,0,0,0-18.07-6.1c-6.78-1.57-10.66-5.2-11.8-12a77.67,77.67,0,0,0-2.27-7.81c7.42,2.42,14,4.44,20.46,6.68,9.42,3.26,21.1,4.34,27.53,10.69,6.22,6.17,7.06,17.8,10.2,27C-366.47,269.92-364.41,276.36-361.87,284.1Z" transform="translate(1013.99 325.26)"/><path d="M-874.5,113.33c-5.81-2-10.23-3.07-14.3-5-1.73-.8-3.25-3-4-4.87-2.7-7.25-4.6-14.81-7.69-21.87A17,17,0,0,0-907.91,74a51.66,51.66,0,0,0-15.45-5.26c-11.74-1.77-14-10.21-15.79-20.53,15.75,5.22,30.79,10.14,45.76,15.28a6.62,6.62,0,0,1,3.49,3.72C-884.82,82-879.94,96.93-874.5,113.33Z" transform="translate(1013.99 325.26)"/><path d="M-490.36,70.47C-506.64,65-521.9,60-537.11,54.79a5,5,0,0,1-2.56-2.85c-5.12-15-10.12-30.1-15.22-45.37,13.38,1,17.37,3,19.85,15C-531.66,38-523.27,48-506.41,49.9-494.69,51.2-492.91,60.15-490.36,70.47Z" transform="translate(1013.99 325.26)"/><path d="M-661.37,241.35c-16-5.35-31.1-10.33-46.1-15.49a5.7,5.7,0,0,1-3.12-3.13c-5.15-15-10.12-30.06-15.38-45.79,10.61,1.71,19.2,4.22,20.63,16.22,1.94,16.24,11.22,25.6,27.48,27.45C-666,222-663.67,230.7-661.37,241.35Z" transform="translate(1013.99 325.26)"/><path d="M-693.28,187.93c13.47.54,19.88,7.68,20.61,20.28C-687.55,206.3-689.9,204-693.28,187.93Z" transform="translate(1013.99 325.26)"/><path d="M-928,81.28c14.76,1.73,16.91,3.81,20.55,19.88C-921.13,100.67-925.58,96.36-928,81.28Z" transform="translate(1013.99 325.26)"/><path d="M-415.37,252.09c13.15.57,19.82,7.3,20.37,19.89C-408,271.94-412.7,267.42-415.37,252.09Z" transform="translate(1013.99 325.26)"/><path d="M-521.74,17.08c13,.41,19.17,7.76,20,20.29C-516.73,35.24-521.65,30.18-521.74,17.08Z" transform="translate(1013.99 325.26)"/><path d="M-736.45-69.1c-16.32-3.47-18.41-5.6-20.61-20.55C-742.29-87.79-740-85.57-736.45-69.1Z" transform="translate(1013.99 325.26)"/><path d="M-565.75-240.32q-19.49-1-20.43-19.87C-573.32-260.49-568.6-256-565.75-240.32Z" transform="translate(1013.99 325.26)"/></g></svg>