<svg xmlns="http://www.w3.org/2000/svg" viewBox="0 0 736.54 685.33"><g id="Layer_2" data-name="Layer 2"><path d="M1401.87-182.53q-9.66,9.53-19.32,19.05c-4.27,4.24-8.49,8.54-12.84,12.92-1-.89-1.7-1.57-2.42-2.28l-30.2-30.2c-4.31-4.31-4.33-4.34-8.72.12q-14.83,15.07-29.61,30.19a15,15,0,0,0-1.4,1.87l-37.09-35.54-36.64,35.92L1187.83-187c-7.69,7.59-15.83,15.57-23.89,23.62q-5.55,5.53-10.83,11.33c-1.57,1.72-2.51,1.14-3.85-.24-11.33-11.67-22.72-23.28-33.83-34.66l-37.19,36.75L1042.17-187l-36.61,36.62-37.17-36.22L932.31-150.5l-35.65-36-37.19,35.31L823.2-187.56l-35.91,36.69-36.79-36L714-150.28,676.79-187.4l-11.1,11.53c0-6.54,0-12.25,0-18a2.69,2.69,0,0,1,.79-1.68c3.32-3.45,6.7-6.87,10.05-10.28l36.78,36.36q17.83-18.15,36-36.66c6.14,6.12,12.1,12,18,18s11.46,11.76,17.14,17.69c1.15,1.21,1.87.89,3-.16,11.78-11.53,23.62-23,35.59-34.66L859.49-169l36.32-36.24,36.39,35.67,35.57-36.18,36.54,36.56,36.7-35.73,36.53,34.71,35.77-35.75,36.38,36.46,37-36.68,36.72,36.28,36.4-35.15,35.67,35.74,36.63-36.59,36.84,36.53c.65-.57,1.23-1,1.74-1.53q14.13-14.1,28.24-28.22c.95-.94,2-1.8,3-2.71Z" transform="translate(-665.33 315.78)"/><path d="M1401.87-34.16q-9.66,9.51-19.32,19c-4.27,4.24-8.49,8.54-12.84,12.92-1-.89-1.71-1.56-2.42-2.29q-16.12-16.38-32.2-32.79c-1.52-1.56-2.48-1.65-4.09,0-10.62,11-21.36,21.8-32,32.7a17.59,17.59,0,0,0-1.61,2.08l-38-36.23L1223-2.85c-11.49-11.68-23.37-23.76-34.86-35.42l-37,35.09L1115-38.61l-37.64,36L1042-38.76,1005.84-2.53l-37.26-35.6L932.53-2l-36-36L859.62-2.78,823.39-39c-5.48,5.41-10.67,10.46-15.76,15.61Q798-13.65,788.48-3.74c-1.27,1.32-1.9,1.55-3.45,0-11.55-11.66-23.27-23.16-34.78-34.54L714.06-2.08,677.47-38.73l-10.71,11-1.07-.55c0-1.89,0-3.78,0-5.66,0-4.15-1.05-8.75.4-12.33s5.4-5.88,8.26-8.76l2.34-2.35L713.39-21,749-57.27,786.23-21.5l35.9-35.86,36.41,36.42,36.57-36.58,37,36.33,35.61-36.22,36.65,36.7,36.95-36.69L1077-21.12l36.63-36.67,36.31,36.37,36.93-36,35.63,36c4.21-3.83,8.17-7.23,11.89-10.88,7.21-7.06,14.28-14.28,21.44-21.4.85-.85,2-1.44,2.78-2.31,1-1,1.65-1,2.72.07,3.68,3.81,7.51,7.47,11.26,11.22,7.86,7.87,15.71,15.75,23.74,23.81l30.28-30.89c1.35-1.39,2.67-2.81,4-4.22,1.19-1.26,2-1.66,3.61,0,11.29,11.57,22.73,23,34.12,34.48a6.53,6.53,0,0,0,.92.59l6.52-6.58q12.45-12.57,24.9-25.14a5.39,5.39,0,0,1,1.22-.7Z" transform="translate(-665.33 315.78)"/><path d="M1401.87,114.2q-9.66,9.52-19.32,19c-4.27,4.24-8.5,8.53-13,13.06l-36.44-37.2-36.49,37.16-36-36.72-37.34,35.94-35.36-35.59c-7.67,7.53-15.82,15.49-23.92,23.5-3.86,3.8-7.72,7.6-11.41,11.57-1.31,1.41-1.65.78-2.68-.25-11.69-11.65-23.45-23.22-35.3-34.91a1,1,0,0,0-.45.25q-16.71,16.72-33.39,33.46c-2.71,2.74-2.67,2.82-5.34.11l-31.64-32.19c-.71-.73-1.47-1.4-1.83-1.75l-37.47,35.79c-2-2-4.66-4.42-7.17-7-8.06-8.19-16.07-16.43-24.13-24.61-4.62-4.69-4.55-4.56-9.17.12-10.52,10.66-21.14,21.21-31.84,31.93l-36.3-36.34-35.32,36.05-36.37-36.38-37.76,36-36-35.67-36.53,36.54L677,109.23l-10.64,11.18-.67-.35c0-5.8-.14-11.6.11-17.39.05-1.12,1.5-2.25,2.43-3.25,2.76-2.94,5.58-5.82,8.08-8.42l36.8,35.26L750,91.09l35.48,36.18L821.78,91l37.34,35.71,35.93-36,37.17,36.56L967.9,90.9l36.79,36.83,36.94-36.59,35.29,36,36.52-36.57L1149.76,127l37.62-35.49,35.93,35.29,35.8-35.8,36.79,36.82c9.44-9.69,18.36-18.85,27.3-28,2.61-2.68,5.37-5.23,7.86-8,1.65-1.84,2.57-.13,3.31.61,8.64,8.69,17.19,17.46,25.77,26.21l8.62,8.79a14.73,14.73,0,0,0,1.43-1.07q12.07-12.14,24.14-24.29c2.13-2.16,4.15-4.44,6.27-6.61.29-.3.84-.33,1.27-.49Z" transform="translate(-665.33 315.78)"/><path d="M1401.87,262.57q-9.66,9.53-19.32,19.05c-4.27,4.24-8.5,8.53-13,13.06L1333,257.52l-36.61,37.34c-3.35-3.5-6.47-6.81-9.64-10.07q-10.85-11.18-21.73-22.29c-5-5.05-5-5-10,.06q-14.46,14.71-29,29.38c-.78.78-1.66,1.46-2.5,2.19-12.08-12.08-24-24-35.53-35.56l-36.76,35.29-35.78-35.79L1079.39,294,1042,258.42l-37.25,35.18c-10.84-10.76-22.19-22.06-33.56-33.33-2.63-2.61-1.91-3.16-5.15.11-11.2,11.3-22.48,22.52-33.88,33.94l-36.28-36.39-35.71,36.41L823.9,258.07l-37.43,35.7-35.79-35.61L714,294.85l-37.16-37.18c-3.63,3.74-7.13,7.35-11.15,11.51,0-6.58,0-12.39,0-18.19a3.55,3.55,0,0,1,1-1.94c3-3.58,6-7.13,9.27-11l36.65,37.29,36.91-35.16,36.58,34.54,35.29-35.32L859,275l35.77-35.8L932,275.73l35.79-36.4L1004.43,276l36.86-36.82L1077,275.65c12.27-12.29,24.33-24.35,36.45-36.47q18.66,18.68,36.35,36.41l37-36.28,36.78,36.1,35.88-35.92L1295.93,276c10.22-10.25,20-20.06,29.78-29.9,1.75-1.77,3.43-3.61,5-5.53,1.3-1.6,2.22-1.42,3.6,0,11.39,11.74,22.84,23.41,34.13,34.94.51,0,.77,0,.86-.07,8.66-8.78,17.28-17.59,26-26.33,2.07-2.07,4.39-3.89,6.59-5.82Z" transform="translate(-665.33 315.78)"/><path d="M1401.87-143.46c-.77.68-1.58,1.31-2.3,2l-47.84,47.86c-2.06-2.09-4.07-4.13-6.09-6.16-6.57-6.62-13.12-13.28-19.77-19.82-1.32-1.29-1.24-2,0-3.16,2.47-2.17,4.86-4.42,7.37-6.71l17.37,17c.69-.67,1.42-1.34,2.12-2l46.82-46.8c.72-.72,1.53-1.35,2.3-2Z" transform="translate(-665.33 315.78)"/><path d="M1401.87,153.28c-4.84,4.74-9.71,9.46-14.51,14.24q-16.71,16.65-33.34,33.39c-1.69,1.71-2.63,2-4.45.11-7.16-7.38-14.51-14.58-21.76-21.87-1.1-1.11-2-2.38-3.32-3.86l8.71-7.95,18.08,17.18a12.29,12.29,0,0,1,1.47-2.19q23.58-23.65,47.22-47.24c.59-.59,1.27-1.09,1.9-1.63Z" transform="translate(-665.33 315.78)"/><path d="M1401.87,4.91c-5.77,5.68-11.58,11.33-17.32,17.05-10.92,10.88-21.81,21.81-32.83,32.83-8.72-8.74-17.36-17.44-26-26.08-1.21-1.21-.91-2,.19-3,2.45-2.18,4.85-4.42,7.39-6.74l17.34,17c.67-.64,1.41-1.31,2.12-2l46.86-46.84c.72-.72,1.53-1.35,2.3-2Z" transform="translate(-665.33 315.78)"/><path d="M1401.87-291.83c-.77.68-1.57,1.32-2.3,2l-47.52,47.51-27.48-27.5,8.65-7.92,17.58,16.85c.8-.71,2.07-1.71,3.2-2.85q23.82-23.93,47.6-47.86c.06-.06.18-.06.27-.09Z" transform="translate(-665.33 315.78)"/><path d="M1401.87,301.65c-2.69,2.6-5.43,5.16-8.08,7.8q-20,19.95-39.9,40c-1.63,1.65-2.57,1.77-4.24,0-7.73-8-15.6-16-23.42-23.94-.51-.52-1-1.12-1.66-2,2.72-2.46,5.38-4.81,8-7.23,1.52-1.41,2.17,0,2.94.82,5,5.22,10,10.47,15,15.8l49-49.08c.72-.72,1.53-1.36,2.3-2Z" transform="translate(-665.33 315.78)"/><path d="M1401.87-227.83,1388.77-242l-16,15.89c-2.89,2.87-2.92,2.91-5.78-.09-2-2.09-3.85-4.29-5.53-6.17l26.83-26.73L1401.87-246Z" transform="translate(-665.33 315.78)"/><path d="M1401.87,217.27l-12.66-13.83c-6.26,5.9-11.66,10.95-17,16.05-2.4,2.29-2.74,2.27-4.81-.19s-4.12-4.62-5.92-6.64l26.89-26.86c2.43,2.44,5.35,5.46,8.37,8.37,1.62,1.57,3.42,3,5.14,4.41Z" transform="translate(-665.33 315.78)"/><path d="M1401.87-79.47l-13.25-14.47-19.11,18.67L1361.38-84l26.84-26.77,13.65,13.23Z" transform="translate(-665.33 315.78)"/><path d="M1401.87,68.9l-13.39-14.57c-2.12,2.32-3.42,3.85-4.82,5.28-4,4.09-8.17,8.08-12.14,12.23-1.37,1.43-2.25,1.19-3.4-.14-2.26-2.62-4.6-5.17-6.74-7.55l26.81-26.63,13.68,13.26Z" transform="translate(-665.33 315.78)"/><path d="M1401.87,365.64l-13.25-14.42c-4.8,4.73-8.79,8.65-12.76,12.6-1.56,1.56-3.13,3.12-4.55,4.81-1.24,1.47-2.13,1-3.16-.17-2.28-2.6-4.6-5.16-6.65-7.44l26.91-26.89,13.46,13.39Z" transform="translate(-665.33 315.78)"/><path d="M1179-119l8-10.36,1.65-.34,16.24,17.6,54-54.78c.66.55,1.25,1,1.75,1.46,8.08,8.06,16.1,16.17,24.25,24.16,1.62,1.59,1.66,2.61,0,4.08-2.33,2-4.5,4.19-6.49,6.07l-18.68-16.85c-7.4,7.64-15.37,16-23.47,24.19-9.83,10-19.78,19.81-29.65,29.74-1.16,1.16-1.73,1.29-3-.15-5.64-6.17-11.47-12.17-17.33-18.13C1183.7-114.89,1180.9-117.26,1179-119Z" transform="translate(-665.33 315.78)"/><path d="M914.7-241.67,887.15-269l9.9-9.11,15.63,17.05,54.38-53.63,27.47,27.48-8.4,8.2-16.74-17.34Z" transform="translate(-665.33 315.78)"/><path d="M1278.38,17.12C1272.11,11.59,1266,6.21,1259.8.73c-5.92,5.89-12.69,12.54-19.36,19.28q-16.82,17-33.53,34.08c-1.38,1.42-2,1.35-3.42-.18-7-7.34-14.25-14.45-21.43-21.62-1.27-1.27-2.6-2.46-4.08-3.86,2.73-2.66,5.35-5.09,7.82-7.68,1.29-1.35,2.16-1.33,3.45,0,5,5.18,10.15,10.27,15.56,15.72L1259-18.48c.6.49,1.13.86,1.57,1.3C1268.71-9,1276.82-.88,1285,7.2c1.47,1.45,1.71,2.44,0,3.85C1282.64,13.1,1280.35,15.31,1278.38,17.12Z" transform="translate(-665.33 315.78)"/><path d="M967.24,278.39l26.82,26.82-7.5,9.7L969,296.53,915.2,351c-9.56-8.79-18.88-17.36-28.49-26.18,2.46-2.4,5.06-5,7.68-7.48,1.17-1.12,2.12-1,3.29.24,4.18,4.32,8.49,8.5,12.71,12.79a33.86,33.86,0,0,1,2.46,3.21Z" transform="translate(-665.33 315.78)"/><path d="M967.38-166.84l27.37,27.38c-2.55,3-5.18,6.07-8,9.41l-17.35-18-56.25,54.8c-1.71-1.9-3.65-4.3-5.83-6.46q-9.22-9.13-18.66-18.07c-1.67-1.58-1.93-2.66,0-4.25,2.55-2.18,4.91-4.58,8.28-7.75l16.19,16.89Z" transform="translate(-665.33 315.78)"/><path d="M967.19,130.11q14,14,27.58,27.58c-2.07,2.14-4.4,4.47-6.64,6.9-1.25,1.34-2.18,1.3-3.45-.05-5.15-5.49-10.4-10.9-15.71-16.43l-53.9,54.6-27.77-27c2.13-2,4.94-4.75,7.86-7.35.3-.27,1.49,0,1.88.34,4.31,4.17,8.55,8.42,12.8,12.66,1.06,1,2.09,2.12,3.41,3.46Z" transform="translate(-665.33 315.78)"/><path d="M887,27.82l9.63-9,16,16.89L967.5-17.85,994.73,9.38c-2,2.06-4.39,4.35-6.56,6.83-1.29,1.49-2.15,1.35-3.4,0C979.92,11.11,975,6.05,970.09,1c-.33-.34-.69-.64-1.16-1.09L914.48,55Z" transform="translate(-665.33 315.78)"/><path d="M1205.45,351.14l-27-26.39c2.29-2.24,4.91-4.68,7.38-7.27,1.29-1.36,2.16-1.3,3.45,0,5,5.16,10.18,10.23,15.53,15.57,18.09-18.32,36.08-36.54,54.19-54.9.74.66,1.31,1.11,1.82,1.62,8.08,8.07,16.12,16.18,24.26,24.18,1.52,1.5,1.57,2.49,0,3.85-2.41,2.06-4.7,4.25-7.29,6.61l-17.35-18.06Z" transform="translate(-665.33 315.78)"/><path d="M842.16-242.16l-27.31-27,8.93-8.85,17.05,17.75L896.24-315l26.15,27.89-9.28,8.4-16.73-16.81Z" transform="translate(-665.33 315.78)"/><path d="M895.67-166.89c4.69,4.69,9.34,9.11,13.71,13.78s8.39,9.54,12.12,13.81c-2.19,2.47-4.3,4.75-6.29,7.13-1.35,1.61-2.32,1.23-3.65-.09-5.22-5.14-10.53-10.18-15.39-14.85L841.71-94.45l-26.59-25.92,9-8.95c4.57,4.8,9.74,10.18,14.85,15.61,1.2,1.27,1.81,1.75,3.46.08,17.29-17.52,34.73-34.88,52.13-52.29C894.83-166.18,895.13-166.41,895.67-166.89Z" transform="translate(-665.33 315.78)"/><path d="M823.43,149.28,769,202l-27-27,8.53-8.09,17.27,18c3.39-3.53,6.69-6.94,10-10.37,3.69-3.85,7.3-7.76,11.06-11.54,10.37-10.44,20.86-20.77,31.16-31.28,1.91-1.95,2.92-1.74,4.7.08,8.3,8.48,16.75,16.83,25.27,25.35l-9.43,8.91Z" transform="translate(-665.33 315.78)"/><path d="M1205.56,202.58l-27.63-25.67c3.45-3.19,6.57-6.06,10.41-9.62L1205,184.64l54-54.78c.68.57,1.27,1,1.78,1.51,8.08,8.06,16.1,16.17,24.26,24.15,1.65,1.63,1.62,2.64-.09,4-2.37,2-4.61,4.09-6.54,5.82l-18-15.84Z" transform="translate(-665.33 315.78)"/><path d="M1178.46-268.47l9.63-9.13,17.67,16.46,53.27-54c.55.45,1.08.81,1.52,1.25,8.15,8.13,16.26,16.3,24.45,24.38,1.45,1.43,1.73,2.43.07,3.87a66.73,66.73,0,0,0-5.43,5.34c-1.08,1.19-1.86,1.27-3,.09-4.88-5.1-9.78-10.19-14.78-15.16a2.72,2.72,0,0,0-2.65,0q-13.38,13.21-26.57,26.63-13.08,13.23-26.1,26.51c-1.2,1.21-1.76,1-3-.35-6.78-7.15-13.8-14.05-20.71-21.07C1181.4-265.18,1180.07-266.71,1178.46-268.47Z" transform="translate(-665.33 315.78)"/><path d="M696.19,351.48,668.8,324.09l8.84-8.66c3.89,4.08,8.2,8.61,12.52,13.12,1.3,1.36,2.46,3.4,4,3.79,1,.26,2.79-1.71,4-2.9,5.56-5.38,11-10.85,16.57-16.26,11.68-11.39,23.38-22.75,35.27-34.32a8.45,8.45,0,0,1,1,.86c8.08,8.06,16.1,16.17,24.25,24.16,1.65,1.62,1.56,2.6-.07,4.08-2.29,2.09-4.38,4.42-6.76,6.86l-17.41-18.14Z" transform="translate(-665.33 315.78)"/><path d="M921.53,8.61c-2.15,2.61-4,4.76-5.73,7-1.57,2-2.77,2.08-4.68.12-5-5.11-10.24-10-15.58-15.09l-53.1,53.8L814.33,27.87l9.1-8.81q8.66,8.16,17.89,16.88l54.59-54.63Z" transform="translate(-665.33 315.78)"/><path d="M1140.49-287.43l-8.08,9.13-17.18-18-54,53.82-28.71-26.42c3.15-3.1,5.59-5.46,8-7.86,1.18-1.18,1.77-1.05,3.06.28,5.17,5.32,10.62,10.36,15.53,15.09l54.64-52.9Z" transform="translate(-665.33 315.78)"/><path d="M1033.27-121l7.72-8.22,18.73,16.51,54-53.81,26.8,26.8-8.9,8.92-16.53-17.23-55.06,54.51Z" transform="translate(-665.33 315.78)"/><path d="M1132.89,314l-18.42-16.62-54,54.05-27.14-26.77,8.35-9.74,17.26,18,52.4-52.41c2.45-2.46,2.35-2.35,4.91.2,5.38,5.37,10.89,10.61,16.33,15.92,2.51,2.45,5,5,7.47,7.41,1,1,1,1.81-.1,2.83C1137.28,309.4,1134.75,312.07,1132.89,314Z" transform="translate(-665.33 315.78)"/><path d="M767.67,333.24c4-4.26,7.56-8.22,11.29-12,5.86-6,11.83-11.87,17.76-17.79,7.78-7.79,15.6-15.55,23.33-23.39,1.47-1.49,2.45-2,4.18-.26,8.43,8.58,17,17.05,25.22,25.27l-8.52,9.19L824,297.1,769.31,351,741.7,323.39l8.78-8.09Z" transform="translate(-665.33 315.78)"/><path d="M1213.81-139c-2.63,2.55-5,4.64-7.06,6.91-1.33,1.43-2.15,1.15-3.42-.09-5.33-5.13-10.76-10.15-16.37-15.42l-53,53.68-27-27.07c2.51-2.47,5.5-5.41,8.63-8.51L1132-112.29l55.11-55.11Z" transform="translate(-665.33 315.78)"/><path d="M1251.69-269.74l8.73-8.51,17.44,17c17.81-17.81,36-36,54.11-54.11l27.73,27.72-8.21,8-18.41-16.61-53.76,54.39C1270-251.32,1260.84-260.52,1251.69-269.74Z" transform="translate(-665.33 315.78)"/><path d="M769.16,54.35,742.39,27.57c2-2.31,4-4.71,6-7.17,1.31-1.62,2.33-1.67,3.81-.07,4.61,5,9.36,9.8,14.07,14.68.38.39.81.74,1.3,1.18,4.76-4.73,9.46-9.33,14.08-14,13-13.13,26-26.29,39-39.37.54-.54,2.3-.8,2.71-.4C832.24-8.88,841-.07,850,9c-3,2.72-5.79,5.4-8.73,8-.29.26-1.46-.05-1.88-.46-5.5-5.27-10.92-10.61-16-15.58Z" transform="translate(-665.33 315.78)"/><path d="M814.21,324.52l8.57-8.75,18.16,16.47,54.57-54.58,26.74,28.39c-2.79,2.72-5.24,5.25-7.91,7.54-.38.33-2-.27-2.68-.89-4.49-4.3-8.88-8.7-13.28-13.11-.79-.8-1.44-1.74-2.28-2.78q-27.39,27.74-53.84,54.55Z" transform="translate(-665.33 315.78)"/><path d="M769.05,17.43,750.26.83,696.45,54.65,668.72,26.92l8.69-8.39,17.05,17.8,55.59-54.55L772.06,4c1.19,1.19,2.33,2.42,3.59,3.53s1.26,2.05,0,3.24C773.27,13.05,771,15.45,769.05,17.43Z" transform="translate(-665.33 315.78)"/><path d="M1040.87-167.18l27.57,27.37-8.47,8.43-18.35-16.43L987.55-93.87,960-120.77l9-8.9,16.84,17.49Z" transform="translate(-665.33 315.78)"/><path d="M895.75,129.49l26.11,27.83c-2.3,2.51-4.35,4.49-6.08,6.71s-3,1.66-4.72-.07c-4.47-4.6-9-9.08-13.58-13.62-.46-.47-.86-1-1.53-1.79l-54.2,54.87-26.81-27.54,8.28-8.24,17.84,16.55Z" transform="translate(-665.33 315.78)"/><path d="M1133.51,54.12l-26.94-27,8.66-8.56L1132,36.07l54.85-54.87c4.89,4.83,9.54,9.18,13.89,13.81s8.41,9.53,12.81,14.57c-2.44,2.4-4.85,4.76-7.22,7.15-1.35,1.36-2.12.25-3-.59-5.34-5-10.7-10-15.85-14.83Z" transform="translate(-665.33 315.78)"/><path d="M1061.19,202.86l-28.1-26.67,8.43-9.73,17.3,18L1113.26,130l27.41,27.42-8.36,8.06c-5.79-5.23-11.81-10.69-17.7-16Z" transform="translate(-665.33 315.78)"/><path d="M1068.27-287.33l-8.42,8.5-17.8-17.12L987.43-241.3,960-268.73l8.73-8.75,17.94,16.58,54-54C1049.93-305.67,1059.06-296.54,1068.27-287.33Z" transform="translate(-665.33 315.78)"/><path d="M1133.22-242.55l-26.93-26.94c2.44-2.43,5.09-5.19,7.91-7.75.35-.31,1.9.15,2.44.7,4.47,4.51,8.84,9.12,13.22,13.7.72.75,1.38,1.55,1.9,2.14l55-55c4.57,4.52,8.8,8.45,12.75,12.65,4.29,4.57,8.27,9.43,12.5,14.06,1.34,1.45,1.77,2.14-.17,3.64-2.42,1.87-4.32,4.42-6.49,6.72l-17.55-16.88Z" transform="translate(-665.33 315.78)"/><path d="M1187.23,277.69l26.54,28.4c-2.68,2.64-5.07,5.14-7.68,7.4-.43.37-2.08,0-2.67-.59-4.4-4.22-8.69-8.55-13-12.89a38.6,38.6,0,0,1-2.53-3.19l-53.6,53.63c-9.37-9.13-18.58-18.1-27.28-26.56l7.07-8.79,18.59,17.13Z" transform="translate(-665.33 315.78)"/><path d="M1331.94-166.64c9.58,9.6,18.7,18.72,27.67,27.69l-7.45,8.57-19.08-17.68-53.73,54.47-27.66-27.63,8.24-8,18.24,16.35Z" transform="translate(-665.33 315.78)"/><path d="M742.08-119.83c2.52-3.2,4.51-5.71,6.47-8.25,1.24-1.61,2.28-1.44,3.63,0,4.36,4.68,8.83,9.26,13.27,13.87.64.67,1.34,1.29,2.29,2.19,18-18.3,36-36.51,54.33-55.11l26.81,28.61-7.8,7.3-18-15.92L768.32-94.36Z" transform="translate(-665.33 315.78)"/><path d="M822.47-315.78l27.17,28.27-8.54,8-18.64-16.59-53.23,54-27.08-26.54c2.32-2.84,4.38-5.28,6.34-7.8,1.38-1.76,2.44-1.4,3.82.08,4.32,4.65,8.76,9.2,13.16,13.78.64.67,1.34,1.28,2.28,2.16Z" transform="translate(-665.33 315.78)"/><path d="M987.38,350.63l-27-27,8.68-8.3,17.08,17.77,54.54-54.55,28.08,27.24-8.5,7.88c-5.83-5.23-12.07-10.83-18.06-16.22Z" transform="translate(-665.33 315.78)"/><path d="M1187,129.06l26.73,28.68L1205,166l-17.22-16.66-54.33,53.83c-.61-.53-1.25-1-1.82-1.6-8-7.94-15.86-15.91-23.85-23.79-1.59-1.57-2-2.38.16-4,2.59-1.94,4.63-4.62,7-7.12l16.82,17.56Z" transform="translate(-665.33 315.78)"/><path d="M749.25,129.92,777,157.59l-8.8,8.53-17.76-18.49-54.58,54.54L669.5,175.92l6.88-9.34,18.38,17.28Z" transform="translate(-665.33 315.78)"/><path d="M1331.87-18.37,1360,9.75c-2.53,2.33-5.16,4.85-7.93,7.19-.35.29-1.68-.13-2.21-.61-5.68-5.19-11.29-10.45-17-15.73L1279.2,55l-27.3-27.68,8.64-8.35,17.22,16.81Z" transform="translate(-665.33 315.78)"/><path d="M1032.85,27.36l9.26-8.79,17,16.57,55.2-53.22L1141,9.25c-2.56,2.45-5.21,5.12-8,7.56-.42.36-2.07-.08-2.64-.65-4.51-4.53-8.9-9.17-13.31-13.79-.65-.68-1.21-1.45-1.56-1.87l-54.31,54.3C1051.46,45.4,1042.21,36.44,1032.85,27.36Z" transform="translate(-665.33 315.78)"/><path d="M1068.22,157.18,1061,166l-19.3-17.49-53.63,54.3-27.44-27.42,8.43-8.39,17,17.7,54.56-54.59Z" transform="translate(-665.33 315.78)"/><path d="M696.1-93.71l-27.23-27.23,8.73-8.68,16.73,17.46,54.91-53.92,27.54,27-8.16,7.71-18.44-16.5Z" transform="translate(-665.33 315.78)"/><path d="M1041.38-18.36l27.53,27.61-8.48,8-18.21-17L987.81,54.42,960.32,27l8.7-8.34,17.38,18Z" transform="translate(-665.33 315.78)"/><path d="M1351.66,166.08l-18.33-17.71L1279,203.5q-14-14.07-27.42-27.58l8.36-8.77L1278,183.9c17.77-17.78,35.9-35.9,53.93-53.93l27.7,27.71Z" transform="translate(-665.33 315.78)"/><path d="M1279.13,351.55l-27.47-27.7,8.08-8.09L1278,332.17l54.09-54.09,27.75,27.73-7.78,8.24-18.39-17.65Z" transform="translate(-665.33 315.78)"/><path d="M1004.63-205.6c5.58-5.64,10.61-10.74,15.66-15.82,2.5-2.51,2.92-2.49,5.47,0l6.4,6.23-27.05,27.68-54-54-18.42,17.73-8.25-9L951-259.3Z" transform="translate(-665.33 315.78)"/><path d="M1005.12-57.67c5.3-5.37,10.49-10.54,15.56-15.84,1.68-1.75,3-1.95,4.62,0,2,2.38,4,4.71,6.22,7.3l-26.3,26.91L951.37-93.2c-6.29,6.31-12.18,12.22-18.23,18.27l-9-9.87c8.92-8.89,17.85-17.81,27-26.94Z" transform="translate(-665.33 315.78)"/><path d="M768.57-279.8,750-296.45l-53.85,53.84-27.18-27.18c1.74-1.94,3.64-4.08,5.57-6.2,1.34-1.47,2.51-2.15,4.3-.25,5.17,5.5,10.54,10.82,15.38,15.75l55.28-54.72q13.8,14.08,27,27.61Z" transform="translate(-665.33 315.78)"/><path d="M1296.35-205.79c5.69-5.72,10.94-10.87,16-16.17,1.68-1.74,2.93-1.58,4.48,0,2.26,2.27,4.59,4.47,6.86,6.68l-27.5,27.46-53.71-53.72-18,18-9.06-9.66c8.63-8.61,17.13-17.14,25.73-25.58.44-.43,1.72-.24,2.52,0,.55.16,1,.88,1.41,1.34l49,49C1294.89-207.66,1295.49-206.82,1296.35-205.79Z" transform="translate(-665.33 315.78)"/><path d="M950.8,55,932.91,72.92l-8.84-9.4,26.78-26.75,54,54c5.38-5.4,10.61-10.51,15.65-15.79,1.92-2,3.24-1.94,5,.06,2,2.2,4.29,4.14,6.75,6.48l-27.76,27.25C986.86,91.1,968.88,73.11,950.8,55Z" transform="translate(-665.33 315.78)"/><path d="M1224.23-75.4l-8.47-9.28,26.45-26.41,53.87,53.9c5.56-5.57,11-10.82,16.17-16.27,1.76-1.84,3.09-1.63,4.67-.07l6.61,6.47-27.92,27.82L1242.1-93.19Z" transform="translate(-665.33 315.78)"/><path d="M1242.81,36.46l54,54,15.27-15.33c2.31-2.31,2.8-2.32,5.22.07,2.09,2,4.13,4.14,6.41,6.44-9.07,9.06-18.15,18.14-27.12,27.09l-54.13-54.13-18.67,17.75-8.08-8.86Z" transform="translate(-665.33 315.78)"/><path d="M1322.71,230.26l-26.87,26.87-53.21-53.31-18.93,16.91-8-8.79,26.79-26.73,54,54L1312,223.58c2.56-2.57,2.75-2.65,5.14-.05C1319.2,225.73,1321,228.14,1322.71,230.26Z" transform="translate(-665.33 315.78)"/><path d="M950.82,203.4,933,221.3l-8.87-9.3,27-27.06,54,54.08c5.09-5.17,10.28-10.31,15.3-15.61,1.88-2,3.33-2.14,5,0,1.84,2.38,3.72,4.73,5.68,7.2L1004.43,257Z" transform="translate(-665.33 315.78)"/><path d="M932.06,91.1l17.82-18,8.68,8.73-26.9,26.88c-1.53-1.38-3.2-2.78-4.75-4.31q-9.64-9.57-19.22-19.2l-30.5-30.55L859.86,72.81l-8.51-8.69L877.68,36Z" transform="translate(-665.33 315.78)"/><path d="M877.22-93.66,859.84-75.52c-2.94-2.68-5.8-5.18-8.47-7.86-.33-.33.07-1.93.6-2.48C857-91,862.09-96,867.2-101c3.13-3.08,6.52-5.91,9.41-9.19,1.4-1.57,2-1.33,3.15-.1,6.08,6.31,12.15,12.64,18.34,18.85,11.31,11.36,22.71,22.63,34.19,34.05l17.92-18,8.78,8.8q-13,13-26,26c-1.6,1.61-2.51.33-3.47-.61q-7.54-7.47-15-15Z" transform="translate(-665.33 315.78)"/><path d="M1150.51,90.72,1168.14,73,1177,82.1c-.42.46-1,1.15-1.65,1.79l-22.6,22.61c-2.63,2.64-2.61,2.62-5.19,0q-25.1-25.11-50.2-50.21c-.33-.32-.67-.62-1.29-1.19l-17.4,17.47-9.22-8.85c.36-.43.79-1,1.3-1.53,7.86-7.88,15.75-15.73,23.58-23.64,1.35-1.36,2.25-1.86,3.86-.19q10.74,11.18,21.71,22.12C1130,70.58,1140.19,80.54,1150.51,90.72Z" transform="translate(-665.33 315.78)"/><path d="M1168.79-93.68l-18.13,19c-2.72-3-5.32-5.78-7.71-8.71-.32-.39.17-1.92.73-2.49,7.68-7.8,15.45-15.52,23.17-23.28a21.53,21.53,0,0,0,1.81-2.2L1224-58.66l17.49-16.43,8.55,9c-8.07,8.07-16.7,16.65-25.25,25.3-1.42,1.44-2.26,1-3.44-.2-6.84-6.91-13.74-13.77-20.61-20.64Z" transform="translate(-665.33 315.78)"/><path d="M1169,185.82l55.1,52.38,17.55-16.9,8.64,9.26c-2.73,2.69-5.93,5.82-9.1,9-5.28,5.27-10.6,10.49-15.78,15.85-1.6,1.66-2.58,1.81-4.29.06-7.11-7.3-14.37-14.45-21.58-21.66L1168.79,203l-17.74,18.42-8.25-9.5Z" transform="translate(-665.33 315.78)"/><path d="M950.11-223.89l8.81,8.79c-8.64,8.68-17.3,17.33-25.89,26-1.6,1.62-2.52.35-3.48-.6-5-5-10-10-15-15l-36.6-36.64-18.74,16.73-8-8.21,25.74-26.91,55.46,53.51Z" transform="translate(-665.33 315.78)"/><path d="M1169.2-259.23,1224-206.48l17.62-17.59,8.61,8.84L1223-188l-54.1-54.1-18.06,18.82c-2.4-2.58-4.45-5-6.75-7.19-1.67-1.57-1.84-2.58-.07-4.28,7.76-7.44,15.37-15,23-22.54C1167.82-258.09,1168.7-258.8,1169.2-259.23Z" transform="translate(-665.33 315.78)"/><path d="M1224.12,89.66l17.3-16.06,8.45,8.45-26.59,26.49a24.29,24.29,0,0,1-2.68-2.06q-10.44-10.37-20.82-20.8c-10.24-10.25-20.47-20.51-31-31L1151,73.24c-2.5-2.64-4.85-5.24-7.32-7.71-1-1-1.44-1.74-.22-3,8.69-8.64,17.34-17.33,25.46-25.46Z" transform="translate(-665.33 315.78)"/><path d="M958.59,230.2l-27.06,27.06-54.31-54.21c-5.86,6.11-11.62,12.13-17.45,18.2l-8.29-8.63,26.38-28,53.9,54.55,17.92-17.93Z" transform="translate(-665.33 315.78)"/><path d="M1150.46-57.21l18-17.61,8.33,8.08-27,26.95c-17.5-17.49-35.37-35.37-53.39-53.4-5.4,5.41-10.7,10.61-15.85,16-1.7,1.77-2.63,2.27-4.48-.06-2-2.53-4.8-4.44-7.45-6.79l13.45-13.41c4.07-4.07,8.2-8.08,12.17-12.24,1.52-1.6,2.5-1.74,4.09-.06,5.54,5.87,11.19,11.65,16.87,17.38Q1132-75.48,1148.9-58.64C1149.36-58.18,1149.85-57.77,1150.46-57.21Z" transform="translate(-665.33 315.78)"/><path d="M805.15,203.11l-17.94,18-8.45-8.71,25.68-26.72,53.8,53.1,18.9-17,8.23,8.06-27.1,27Z" transform="translate(-665.33 315.78)"/><path d="M1097.25,202.66,1079,221.08l-9.36-9.44c1.28-1.24,2.89-2.8,4.48-4.39l19.41-19.4c2.85-2.86,2.87-2.87,5.61-.1l48.81,49.38c.72.74,1.35,1.58,2,2.34l18.47-17.66c2.61,2.67,5.51,5.66,8.25,8.48l-26.59,26.6Z" transform="translate(-665.33 315.78)"/><path d="M714,221.27l-9.3-8.46a18.25,18.25,0,0,1,1.29-1.58c8.07-8.09,16.18-16.12,24.17-24.26,1.56-1.59,2.49-1.64,4.08,0q19.69,19.86,39.54,39.56c4.26,4.22,8.78,8.17,12.51,11.63l18.75-16.81,9.15,9a40.1,40.1,0,0,0-4.2,3.24q-11.09,10.91-22,22c-1.4,1.41-2.38,1.59-3.9,0q-13.21-13.56-26.63-27c-8.5-8.45-17.14-16.75-25.66-25.06Z" transform="translate(-665.33 315.78)"/><path d="M885.45,81.78l-26.9,26.89L804.8,55.28,787.3,72.89l-9.39-9.62,26.54-25.89L859,91l17.45-18.15Z" transform="translate(-665.33 315.78)"/><path d="M1096.38-241.57l-18.12,18.22-8-8.58,26.46-27.63,53.43,53,18.41-16.51,8.1,8.13-26.86,26.83Z" transform="translate(-665.33 315.78)"/><path d="M804.46-241.63l-17.58,17.69-9-9.44L805-259.91l53.79,54.44,17.62-18.31,8.67,8.72-26.24,27.34Z" transform="translate(-665.33 315.78)"/><path d="M813.55,81.58c-8.72,8.72-17.43,17.47-26.24,26.12a2.75,2.75,0,0,1-2.69-.11c-8.37-8.29-16.57-16.76-24.93-25-9.24-9.16-18.62-18.19-27.7-27.05L714.17,73.1l-9.47-8.68c.42-.5.84-1.1,1.34-1.6C714,54.87,722,47,729.83,39c1.71-1.74,2.78-2.12,4.73-.1q14.81,15.3,29.93,30.29c7.25,7.22,14.66,14.28,22.25,21.65l17.78-18.47Z" transform="translate(-665.33 315.78)"/><path d="M804.79-111.78c18.2,18.43,36,36.44,54,54.68l17.54-18.26,8.78,9c-8.63,8.61-17.42,17.4-26.65,26.63L804.56-93.26,787-75.51l-8.2-8.63C787.16-93,795.86-102.27,804.79-111.78Z" transform="translate(-665.33 315.78)"/><path d="M1024-259.32l53.13,53.2,19.31-17.32,8,7.46L1078-187.85q-27.57-27.6-53.91-54l-18.7,17.91-8.79-8Z" transform="translate(-665.33 315.78)"/><path d="M1023.29-93.56l-18,18-8.63-7.91,27.06-27,53.13,53.13,20.23-18.24,7.9,8.74a13.6,13.6,0,0,1-1.1,1.34Q1091.24-53,1078.54-40.63a2.61,2.61,0,0,1-1.91.26c-.37-.06-.68-.6-1-.94q-24.43-24.55-48.88-49.11C1025.68-91.48,1024.53-92.44,1023.29-93.56Z" transform="translate(-665.33 315.78)"/><path d="M1104.27,81.2l-25.59,27.7-55.23-53.67-17.83,17.85-8.89-8.18L1024,37.67l53.53,53.41,18.94-18.26Z" transform="translate(-665.33 315.78)"/><path d="M1315,36.75q27.54,27.55,53.85,53.88l19.32-17.85,8.55,9.07c-9,8.77-18.2,17.71-27.33,26.6l-53.91-53.92-19.14,17.7-8.65-7.89Z" transform="translate(-665.33 315.78)"/><path d="M732.32-241.46l-19.25,17-8.74-8.2c1.13-1,2.32-1.87,3.37-2.91q11-11,22-22c2.43-2.43,2.46-2.27,4.74.09,3.87,4,8,7.74,11.92,11.67,3.5,3.49,6.84,7.14,10.35,10.61,9.89,9.77,19.82,19.49,29.93,29.4l18-18.72c2.69,2.73,5.15,5.33,7.74,7.81,1.21,1.17,1.32,2,0,3.2q-12.37,12-24.61,24.11c-1.28,1.26-2.23,1.54-3.71,0q-16.12-16.5-32.43-32.84C745.19-228.83,738.56-235.29,732.32-241.46Z" transform="translate(-665.33 315.78)"/><path d="M1315-94.28,1296.45-76l-8.17-7.43,27.29-27.27L1369-57.29l18.87-18.05c2.66,2.82,5.51,5.81,8.6,9.08l-27.08,26.43Z" transform="translate(-665.33 315.78)"/><path d="M1369.22,239.73c5.65-5.95,10.93-11.45,16.13-17,1.37-1.47,2.33-2.09,4-.21,2.27,2.54,4.9,4.77,7.65,7.41l-27.76,27-53.6-53.62-19.33,17.38-8.54-7.77,27.13-27.45Z" transform="translate(-665.33 315.78)"/><path d="M1368.75-205.62l19-18.24,8.75,9.18-27.25,26.5-54-54.06-18.57,18.1-8.57-7.8,27.18-27.17C1332.92-241.44,1350.84-223.52,1368.75-205.62Z" transform="translate(-665.33 315.78)"/><path d="M1077.94,258.1c-3.79-3.93-6.62-7-9.54-9.88-10.19-10.22-20.43-20.39-30.6-30.63-4.24-4.27-8.37-8.65-12.49-13-1.36-1.45-2.1-1.62-3.68.06-5.23,5.55-10.77,10.82-16.4,16.41l-8.52-7.82c9.06-9.06,18.1-18.1,27.23-27.25l53.19,53.25,19.54-17.77,7.58,8.15C1095.84,238.7,1087.11,248.17,1077.94,258.1Z" transform="translate(-665.33 315.78)"/><path d="M713.7-75.59,705-83.7c9-9,18.1-18,27.06-27L786.28-57l18.45-19.21c2.7,2.76,5.25,5.42,7.86,8,1.11,1.11,1,1.59-.23,2.77-5.8,5.5-11.34,11.26-17,16.86-3,3-6.17,5.82-9.55,9l-54-53.09Z" transform="translate(-665.33 315.78)"/><path d="M666.34,191.82c4.11,4.22,8.19,8.48,12.34,12.65q16.38,16.44,32.79,32.85c1.41,1.42,2.06,1.91,3.83-.09,4.57-5.16,9.6-9.9,14.6-14.65a3.2,3.2,0,0,1,3.07.09c2.63,2.09,5,4.47,7.8,7l-28.42,26.76.84,1.12c-.6-.56-1.23-1.1-1.81-1.68q-21.81-21.81-43.65-43.59a6.21,6.21,0,0,1-2.09-4.95c.14-5.05.05-10.1.05-15.15Z" transform="translate(-665.33 315.78)"/><path d="M713.35,91.58c5.13-5.42,9.86-10.15,14.28-15.17,2.91-3.3,4.2-3.67,7.23-.67,1.83,1.81,3.52,3.77,5.62,6L712.3,107.92l.19,2.08a10.94,10.94,0,0,0-1.46-2.78q-21.94-22.05-43.94-44.06a4.61,4.61,0,0,1-1.34-2.84c-.13-5.46-.06-10.93-.06-16.41Z" transform="translate(-665.33 315.78)"/><path d="M713.28-205c4.59-4.79,8.49-8.84,12.37-12.93,1.15-1.22,2.18-2.55,3.33-3.78,1.58-1.7,3.06-2.11,4.86,0a46.07,46.07,0,0,0,5.59,5.12c1.68,1.38.86,2.3-.26,3.42q-9.54,9.47-19,19c-2.2,2.21-4.34,4.46-6.68,6.86-.76-.67-1.4-1.17-2-1.74q-22.14-22.11-44.2-44.29a5.82,5.82,0,0,1-1.54-3.59c-.17-5.28-.07-10.56-.07-15.64Z" transform="translate(-665.33 315.78)"/><path d="M713.15-39.2c-.6-.56-1.22-1.11-1.81-1.7q-22-22-44-44.05a6.29,6.29,0,0,1-1.63-3.84c-.18-5.24-.07-10.49-.07-15.87L713.32-57c5.33-5.57,10.34-10.69,15.21-15.95,2.05-2.21,3.24-2.38,5.44-.24s4.31,4.12,6.71,6.42L712.55-40Z" transform="translate(-665.33 315.78)"/><path d="M665.69-284.71c0-6.81,0-12.89,0-19a3.17,3.17,0,0,1,1-1.86c3.08-3.17,6.22-6.29,9.29-9.37l27.38,27.41-8.61,8.69L677.39-297Z" transform="translate(-665.33 315.78)"/><path d="M676-166.63l27.15,27.2-8.71,8.64-17.1-17.86L665.69-137.1c0-6,0-12.13,0-18.22a2.75,2.75,0,0,1,.79-1.67C669.66-160.25,672.85-163.45,676-166.63Z" transform="translate(-665.33 315.78)"/><path d="M677.34-.31c-4,4-7.68,7.81-11.65,11.83,0-6.31,0-12.4,0-18.49a2.87,2.87,0,0,1,.78-1.7c3.09-3.29,6.24-6.53,9.28-9.69L703.54,9.36c-2.31,2.27-4.74,4.52-7,6.92-1.31,1.4-2.21,1.26-3.45-.06C688,10.8,682.86,5.46,677.34-.31Z" transform="translate(-665.33 315.78)"/><path d="M665.69,308.2c0-6.32,0-12.24,0-18.16a3.58,3.58,0,0,1,1-2.13c3.06-3.19,6.19-6.31,9.62-9.78L703.72,306c-2.42,2.36-4.82,4.5-7,6.86-1.53,1.67-2.53,1.27-3.88-.16-5-5.39-10.19-10.72-15.25-16Z" transform="translate(-665.33 315.78)"/><path d="M676.77,130.26l27,27.3L695,165.61l-17-17.09-11.54,11.54-.73-.32c0-5,.17-10.05-.07-15.06a7.77,7.77,0,0,1,2.94-7.08C671.31,135.37,673.85,132.9,676.77,130.26Z" transform="translate(-665.33 315.78)"/></g></svg>