<svg xmlns="http://www.w3.org/2000/svg" viewBox="0 0 749.22 719.23"><g id="Layer_2" data-name="Layer 2"><path d="M2101.55,392c-3.41-14.74-14.47-23.18-26.54-29.71-12.9-7-26.88-12-40.25-18.11a99.31,99.31,0,0,1-15.18-8.57c-7.46-5.19-11.84-12.21-11.73-21.81.2-19-.16-38.06.25-57.09.08-3.77,2.57-7.5,4-11.25l4.35,1.09c0,10.13.48,20.28-.1,30.37-1.19,20.84,8.38,35.82,25.38,46.15,10.49,6.37,22,11,33.13,16.42.31.15.65.23,1,.35,33.68,12.26,36.61,16.49,36.17,52.16Z" transform="translate(-1710.43 327.2)"/><path d="M1847.74,392c-8.16-21.78-27.19-30.87-46.53-39.22-15-6.5-31.46-10.47-42.53-23.76a18.87,18.87,0,0,1-4.38-10.76q-.61-31.65,0-63.32c0-3.21,2.66-6.38,4.09-9.57l4.07,1.14c0,9.84.83,19.77-.16,29.52-2.52,24.57,10.26,39.76,30,50.61a229.66,229.66,0,0,0,28.82,13c32.72,12.43,37.06,18.32,37,52.32Z" transform="translate(-1710.43 327.2)"/><path d="M2357.43,392c-8.64-21.86-28.07-30.68-47.54-39.66-12.73-5.87-25.27-12.21-37.6-18.88-6.57-3.55-8.88-9.6-8.71-17.38.48-20.79.27-41.59.13-62.39,0-5.43.88-9,8.44-6.45,0,10.78.77,21.87-.16,32.81-1.81,21.29,9.42,34.69,26.16,44.41,10.3,6,21.58,10.28,32.44,15.31,6.82,3.16,13.9,5.84,20.45,9.48,11.72,6.51,18.85,15.85,16.89,30.28-.55,4.08-.09,8.31-.09,12.47Z" transform="translate(-1710.43 327.2)"/><path d="M1710.43-34.4c9.69-4.17,19.73-7.69,29-12.68,11.71-6.31,23.62-12.8,33.88-21.13,8.25-6.71,12.72-16.62,12.16-28.32-.63-13-.14-26-.14-39.06l3.59-1.33c1.61,2.85,4.56,5.68,4.61,8.55.38,22.13,1,44.32-.35,66.37-.37,5.93-6.43,12.76-11.7,16.8-6.89,5.29-15.67,8.06-23.48,12.21-15.91,8.44-31.71,17.08-47.55,25.63Z" transform="translate(-1710.43 327.2)"/><path d="M1710.43,219.38c18.71-9.1,37.92-17.29,55.94-27.59,12.85-7.35,19.69-19.66,19-35.42-.5-12.05-.1-24.13-.1-36.2l3.06-1.74c1.78,2.35,5.07,4.68,5.11,7.07.39,22.52,1.32,45.13-.48,67.51-.52,6.48-8.37,13.76-14.65,18-8.37,5.68-18.73,8.34-27.82,13.09-13.55,7.07-26.75,14.83-40.1,22.3Z" transform="translate(-1710.43 327.2)"/><path d="M1710.43-290.26c22.32-8.66,45.45-15.37,63.56-32.75,3.73-3.58,12.06-2.39,18.19-3.38,3,15.82.37,21.28-15,29.76-7.73,4.27-16.39,6.8-24.28,10.81-14.29,7.26-28.31,15-42.45,22.6Z" transform="translate(-1710.43 327.2)"/><path d="M1710.43,171.53c15.28-3.41,28.2-12.39,35.25-25,6.82-12.22,8-27.57,12-42.43,1.18,2.27,4.43,5.72,4.58,9.3.6,14.54,1.1,29.18-.18,43.63-.5,5.67-4.43,13.29-9.11,15.91-13.53,7.6-28.24,13.1-42.49,19.42Z" transform="translate(-1710.43 327.2)"/><path d="M1710.43-82.24c19.66-7.5,36.65-18.37,42.47-39.95,2.37-8.76,1.25-18.45,3.88-29.21,1.89,3.05,5.29,6,5.41,9.16.58,14.86,1,29.82-.15,44.61-.43,5.39-4.24,12.58-8.7,15.18-13.73,8-28.53,14.14-42.91,21Z" transform="translate(-1710.43 327.2)"/><path d="M1939.28,392c10.32-8.61,21.62-16.34,30.56-26.2,4.49-5,6.3-13.73,6.56-20.89.82-21.8,0-43.65.5-65.48.11-5.33,2.67-10.61,4.1-15.91l3.24.46a68.74,68.74,0,0,1,.79,7.24c0,34,.36,67.93-.23,101.88-.11,6.33-3.9,12.6-6,18.9Z" transform="translate(-1710.43 327.2)"/><path d="M2193.08,392c5.69-3.59,11.56-6.93,17-10.82,14.08-10,21.85-23.11,21.25-41.1-.65-19.7-.51-39.45,0-59.16.17-6,2.82-11.91,4.33-17.86l3.56.7v20.44c0,30.44.28,60.88-.14,91.32-.08,5.51-2.9,11-4.46,16.48Z" transform="translate(-1710.43 327.2)"/><path d="M1710.43-136.33c9.4-10.09,12.72-22.11,12.44-35.74-.41-20.06-.32-40.15.13-60.21.1-4.31,2.65-8.57,4.07-12.86l3.55.78c.22,3.23.61,6.45.61,9.67q.07,48.8,0,97.58c0,14.64-5.94,22.52-20.82,27.82Z" transform="translate(-1710.43 327.2)"/><path d="M1710.43,117.45c9.72-7.87,12.06-18.88,12.23-30.43.3-21.14-.15-42.29.28-63.43.1-4.93,2.48-9.81,3.81-14.72l3.26.48c.41,2.07,1.17,4.14,1.17,6.22.09,34.31-.15,68.63.18,102.94.14,15.06-9.9,21.74-20.93,28.06Z" transform="translate(-1710.43 327.2)"/><path d="M1710.43,371.23c9.27-7.05,12.07-17.09,12.21-28,.27-21.81-.12-43.64.29-65.45.1-4.91,2.39-9.78,3.66-14.66l3.63.44c.34,3.53,1,7,1,10.58.08,31.51.45,63-.24,94.55-.17,7.8-3.89,15.53-6,23.3h-14.57Z" transform="translate(-1710.43 327.2)"/><path d="M1752,392c.69-5.76,1.63-11.49,2-17.27.34-5.49.07-11,.07-16.54l3-1.39c1.79,3.44,4.79,6.76,5.13,10.33.77,8.23.24,16.57.24,24.87Z" transform="translate(-1710.43 327.2)"/><path d="M2261.74,392c.67-5.74,1.6-11.45,2-17.21.34-5.39.07-10.82.07-16.23l3.48-1.19c1.64,3.61,4.35,7.11,4.69,10.84.72,7.87.2,15.85.2,23.79Z" transform="translate(-1710.43 327.2)"/><path d="M2007.93,392V359.26c10,.6,8.46-2.69,8.32,32.77Z" transform="translate(-1710.43 327.2)"/><path d="M1785.33,392V372.57c13.37,3.37,6.4,13.15,8.32,19.46Z" transform="translate(-1710.43 327.2)"/><path d="M2295,392V374.51l2.59-1.88c1.92,2.32,4.88,4.39,5.51,7,.94,3.92.23,8.23.22,12.38Z" transform="translate(-1710.43 327.2)"/><path d="M2041.21,392V372.4c12.12,3.92,6.86,13.14,8.33,19.63Z" transform="translate(-1710.43 327.2)"/><path d="M1710.43-325.62h20.7l.73,1.87-21.43,8.53Z" transform="translate(-1710.43 327.2)"/><path d="M1762.46-262.43c0,10.7.81,21.48-.17,32.1-1.85,20.14,7.7,34.14,23.74,43.62,13.77,8.15,28.84,14.09,43.32,21q6.06,2.91,12,6c12.09,6.31,17.59,15.3,17.14,29.91-1.09,34.92-.35,69.89-.35,104.83l-3.5,1.14c-1.63-4.81-4.54-9.58-4.66-14.42-.53-20.44-.88-40.92,0-61.33.87-21.31-9.92-35.29-26.75-45.36-9.9-5.93-21-9.93-31.51-14.78-5.29-2.44-10.57-4.92-15.89-7.28-15.22-6.77-24-16.58-22.07-35.11,1.75-17.15.15-34.63.57-51.94.08-3.37,2.71-6.67,4.17-10Z" transform="translate(-1710.43 327.2)"/><path d="M1886.09-5.37c-1.7-3.16-4.79-6.28-4.86-9.47-.43-21.12-.94-42.29.25-63.34.33-5.84,5-13.19,10-16.62,9.7-6.72,21.19-10.79,31.54-16.66,14.52-8.24,29.93-15.64,42.46-26.33,6.52-5.55,10.11-17.23,10.74-26.43,1.51-22.06.21-44.3.71-66.45.11-5.14,2.89-10.21,4.44-15.32l3.7.75v9.72c0,32.56-.79,65.14.36,97.65.53,15.09-6.84,23.1-18.47,28.88-10.7,5.33-22,9.35-32.92,14.36-18.29,8.43-36.07,17.76-42.66,38.84-1.7,5.44-1.75,11.49-1.91,17.28-.28,10.36-.08,20.73-.08,31.1Z" transform="translate(-1710.43 327.2)"/><path d="M2272.16-262.74c0,11,.8,22.07-.18,33-1.83,20.49,8.09,34.37,24.47,43.84,13,7.49,27.2,12.71,40.65,19.38,7.64,3.78,15.59,7.58,22,13,4.25,3.65,8.31,10.21,8.41,15.55.72,37.68.38,75.39.38,113.84-8-2-8.43-7.65-8.45-13.48,0-20.42-.5-40.85.07-61.25.53-19.13-7.49-33.64-23.09-43.36-11.51-7.18-24.31-12.29-36.58-18.23-4.62-2.24-9.33-4.33-14.09-6.29-16.1-6.64-24.19-17.27-22.3-36,1.69-16.78.09-33.88.56-50.83.09-3.53,2.85-7,4.38-10.48Z" transform="translate(-1710.43 327.2)"/><path d="M2044.18,117.46c1.79,3.42,5,6.79,5.13,10.25.5,20.07.34,40.15.21,60.23-.1,15.54-12.19,21.35-23.38,27.3-7.78,4.14-16.47,6.55-24.39,10.48-10.08,5-20.5,9.8-29.48,16.42-12.37,9.13-19.53,21.28-18.66,38,1.05,20,.55,40.16,0,60.22-.14,5.6-2.71,11.14-4.17,16.7l-3.29-.61c-.25-2.83-.72-5.66-.73-8.49,0-31.85,1.1-63.76-.46-95.53-.87-17.78,7.19-26.85,21.58-33.22,12.8-5.65,25.83-10.83,38.4-16.94,23.81-11.59,39.19-28.65,36.16-57.49-.9-8.53-.14-17.24-.14-25.87Z" transform="translate(-1710.43 327.2)"/><path d="M2076.62-118c1.38,5.36,3.82,10.7,4,16.09.47,19.73,1.14,39.54-.09,59.2-1.24,19.82,7.94,33.26,23.28,43,10.62,6.76,22.49,11.58,33.93,17,5.86,2.78,12.19,4.58,18,7.52,13.74,7,22.71,16.37,21.14,34s-.53,35.3-.24,53c.1,5.87-1.33,9.31-8.47,8.85,0-10.69-.55-21.43.11-32.09,1.29-20.62-8.55-35.08-25.14-45.11-11-6.68-23.33-11.27-34.91-17.1-9.43-4.75-19.12-9.24-27.71-15.26-3.91-2.74-7.61-8.85-7.69-13.5-.6-37.39-.32-74.8-.26-112.2a9,9,0,0,1,.87-2.62Z" transform="translate(-1710.43 327.2)"/><path d="M2199.32,102.19c0-38-.21-76,.13-114.06.1-10.65,8.84-15.84,16.78-20.38,8.25-4.71,17.33-8,25.91-12.14,10.12-4.92,20.68-9.27,30-15.44,15.08-10,25-23.27,23.05-43.08-1-10.87-.19-21.92-.19-32.89l3.36-1.22c1.66,3.19,4.71,6.35,4.78,9.58.43,21.45.23,42.91.21,64.37,0,9.64-6.36,15.17-13.85,18.85-15.05,7.39-30.75,13.48-45.76,21-15.94,7.94-30.07,18.16-34.88,36.81a42.21,42.21,0,0,0-1.13,10.16c-.09,21.8.2,43.61-.24,65.41-.09,4.75-2.63,9.46-4,14.19Z" transform="translate(-1710.43 327.2)"/><path d="M1985.06,10.45c0,38.39.41,76.8-.48,115.17-.12,5.21-5.73,12-10.64,15-10.39,6.5-22.34,10.44-33,16.53-13.89,7.93-28.46,15.48-40.2,26-6.46,5.81-9.55,17.15-10.89,26.46-1.8,12.51-.45,25.48-.45,38.25l-3.1,1.32c-1.76-3.13-5-6.23-5-9.39-.45-21.13-.27-42.27-.21-63.4,0-12.54,9.67-17.83,18.68-22.45,14.59-7.47,30.19-13,44.72-20.55,21.23-11.07,34.91-26.82,32.58-53.33-1.6-18.22-.63-36.71-.1-55.06.14-5.22,2.76-10.38,4.24-15.57Z" transform="translate(-1710.43 327.2)"/><path d="M2272.16-8.68c0,12.77.49,25.58-.13,38.32-.73,14.61,5.62,26.13,16.91,33.36,14.89,9.54,31.32,16.69,47.11,24.83,5.78,3,11.85,5.47,17.37,8.85,9.73,5.95,14.84,14.15,14.64,26.41-.58,35.29-.21,70.6-.21,106.66-8.11-1.95-8.46-7.61-8.47-13.42,0-19.4-.81-38.83.16-58.18,1.16-23.22-9.21-39-28.81-49.53-9.94-5.31-20.53-9.39-30.73-14.24-7.72-3.67-15.43-7.39-22.86-11.59-9.4-5.31-14.18-12.87-13.65-24.54.88-19.36,0-38.78.44-58.17.07-3.4,2.76-6.74,4.25-10.11Z" transform="translate(-1710.43 327.2)"/><path d="M1762.46-8.21c0,10.72.83,21.51-.17,32.13-2,20.91,8.6,34.72,24.81,44.87,9.82,6.15,20.86,10.36,31.41,15.33,7.71,3.64,15.89,6.47,23.19,10.79,11,6.47,17.19,15.25,16.78,29.5-1,34.89-.32,69.83-.32,105.65-8-2.61-8.39-8.21-8.39-14.08,0-18.71-1.15-37.5.29-56.1,2-25.72-10.61-41.79-31.44-53.23-8.41-4.62-17.45-8.06-26.25-12-6.56-2.9-13.46-5.16-19.74-8.57-12.6-6.82-20.29-16-18.88-32.17,1.55-17.88.11-36,.56-54,.08-3.3,2.92-6.52,4.49-9.78Z" transform="translate(-1710.43 327.2)"/><path d="M2168.08,374.73c0-11.39-.41-22.8.09-34.16.76-17.21-6.7-30.44-20.46-39.26-12-7.69-25.43-13.23-38.31-19.54-6.43-3.16-13.28-5.5-19.53-8.94-11.94-6.58-18.33-15.57-17.83-30.7,1.14-34.91.36-69.89.36-104.84l3.11-1c1.75,5.19,4.83,10.34,5,15.58.62,18.33,1.59,36.83-.07,55-2.51,27.43,12,43.21,33.78,54.73,9.06,4.79,19,7.86,28.41,12.08A152.51,152.51,0,0,1,2162.75,284c9.52,6.12,14.78,14.25,14,26.78-1.13,18.28-.07,36.69-.49,55-.07,3.42-2.68,6.78-4.12,10.18Z" transform="translate(-1710.43 327.2)"/><path d="M2421.91,374.69c0-10-1-20.13.19-30,2.91-24.78-10-39.74-30-50.29-10.54-5.56-21.82-9.71-32.7-14.64-5.65-2.57-11.41-5-16.66-8.28-10.88-6.75-17.23-15.52-16.82-29.69.92-31.52.26-63.09.33-94.63,0-3.52.6-7,.93-10.54l3.72-.44c1.26,4.9,3.48,9.78,3.59,14.7.44,19.06,1,38.18,0,57.19-1.29,24.13,10.07,40.06,30.2,50.79,10.24,5.45,21.23,9.5,31.69,14.58,8.62,4.18,17.75,7.95,25.12,13.83a24.9,24.9,0,0,1,8.39,16.36c1,20.75.59,41.59.21,62.38-.06,3.39-2.68,6.74-4.12,10.1Z" transform="translate(-1710.43 327.2)"/><path d="M2199.31,356.07V307.53c0-19.06.73-38.16-.25-57.17-.69-13.41,5.27-22,16.14-27.41,15-7.48,30.65-13.45,45.57-21,22-11.1,37.39-26.74,34.35-54.13-.8-7.19-.15-14.54-.1-21.82,0-2.4.21-4.81,2.89-8.58,1.82,3,5.14,6,5.21,9.13.46,21.48.44,43,.16,64.45-.13,10.78-8.15,16.56-16.38,20.75-15.54,7.94-31.72,14.59-47.46,22.15-22.42,10.76-33.74,27.85-32,53.65,1.24,18.29.51,36.73.05,55.09-.12,4.84-2.51,9.63-3.86,14.45Z" transform="translate(-1710.43 327.2)"/><path d="M2108.11,230.28c-1.5-5.55-4.13-11.06-4.29-16.65-.55-18.69-1.48-37.51.09-56.08,2.23-26.22-11.94-41.08-32.59-51.9-12.09-6.32-24.94-11.24-37.56-16.49-18.11-7.52-28.33-19.21-26.15-40.5,1.57-15.43,0-31.15.51-46.72.11-3.78,2.82-7.47,4.33-11.21l3.94.95c0,10.82.27,21.64-.06,32.45-.56,19,7.51,33.4,23.26,43.15,9.52,5.9,19.92,10.37,30,15.25,5.86,2.83,11.91,5.26,17.92,7.77,17.18,7.15,26.32,17.69,25,38.61-2.06,33.42-.55,67.07-.55,100.62Z" transform="translate(-1710.43 327.2)"/><path d="M2330.19-118.13c1.49,4.65,4.14,9.27,4.27,14,.5,18.35,1.25,36.79,0,55.06-2.09,29.9,13.94,46.72,38.72,58.23,14.53,6.75,29.23,13.15,43.5,20.39,9.88,5,14.67,12.82,13.93,25-1.15,19-.1,38.08-.46,57.13-.06,3.39-2.44,6.73-3.76,10.09l-4.46-.86c0-9.44-1-19,.19-28.3,3.61-27.93-11.8-43.83-34.08-55.24-10.31-5.28-21.72-8.4-32-13.66a125.86,125.86,0,0,1-23.71-15.81c-3.23-2.72-5.7-8.27-5.75-12.56-.43-36.71-.23-73.42-.17-110.13a7.76,7.76,0,0,1,1-2.55Z" transform="translate(-1710.43 327.2)"/><path d="M2044.44-136.77c1.7,3.35,4.8,6.68,4.88,10.06.46,20.43.21,40.87.24,61.31,0,10.46-7,16.65-14.81,20.85-12.88,7-26.93,11.81-39.87,18.69A160.38,160.38,0,0,0,1966-6.65c-8.87,7.59-12.76,18-12.31,30.43.75,21.1.51,42.26,0,63.37-.13,5.24-2.92,10.41-4.49,15.62l-3-.55c-.24-2.83-.66-5.67-.67-8.51,0-33.6.34-67.2-.25-100.79-.19-10.78,4-18.13,12.72-22.91,9.93-5.42,20.43-9.77,30.57-14.83,10.68-5.33,21.81-10.06,31.7-16.64,14-9.34,21.58-22.83,20.9-40.38-.42-11-.08-22.11-.08-33.17Z" transform="translate(-1710.43 327.2)"/><path d="M2108.31-24.49c-1.57-5.11-4.36-10.2-4.48-15.35-.51-21.45-.68-42.94-.07-64.38.45-15.78-6.52-27.54-18.82-35.54-11.66-7.59-24.78-12.91-37.12-19.49-10.83-5.77-22.16-11-31.89-18.28-4.4-3.3-7.38-11-7.66-16.85-.94-19.34-.61-38.77-.14-58.14.09-3.81,3-7.55,4.55-11.32l3.71,1.08c0,9.85.54,19.73-.11,29.54-1.5,22.53,8.64,38.59,27.69,48.85,16.24,8.74,33.39,15.8,50,23.78,13.06,6.25,18.9,15.72,18.37,31.23-1.19,34.57-.37,69.21-.37,103.82Z" transform="translate(-1710.43 327.2)"/><path d="M1822.57,136.63c1.17,5.67,3.22,11.31,3.36,17,.46,18.7,1.25,37.48,0,56.1-1.59,24.2,10.54,39.29,30.17,49.69,11.75,6.23,24.45,10.62,36.56,16.19a111.54,111.54,0,0,1,17.88,9.9c6.69,4.74,10.83,10.94,10.58,20.1-.56,20.08,0,40.19-.44,60.28-.07,3.48-2.91,6.9-4.47,10.35l-3.31-1.3c0-10-.76-20.07.16-30,2.16-23.33-9.08-39.08-28.23-49.48-15.27-8.3-31.7-14.43-47.44-21.9-12.66-6-20-14.6-19.46-30.45,1.13-33.58.26-67.22.23-100.84,0-1.61.23-3.23.34-4.85Z" transform="translate(-1710.43 327.2)"/><path d="M2239.14,10.41c0,38.32.61,76.66-.62,114.94-.19,6.15-7.39,13.92-13.4,17.62-10.9,6.72-23.57,10.47-35,16.35-10.38,5.31-20.76,11-30,18-11.37,8.54-16.18,20.89-15.83,35.27.28,11.61.06,23.23.06,34.85l-3.31,1.32c-1.46-2.59-4.15-5.16-4.19-7.76-.31-22.51-.89-45.07.41-67.51.32-5.59,6.1-12.47,11.27-15.82,9.66-6.24,20.84-10.08,31.16-15.37,11.85-6.07,24.14-11.66,35-19.23,11.52-8,16.92-20.22,16.73-34.72-.26-20.09-.38-40.19.14-60.26.16-6.27,2.59-12.47,4-18.71Z" transform="translate(-1710.43 327.2)"/><path d="M1912.44,120.36c0-11.26-.78-22.58.16-33.76,2-24.26-12.48-37.62-31.13-47.6-15-8-31.07-14.1-46.52-21.34-11.62-5.45-17.39-13.94-17-27.76.81-32.19.24-64.41.28-96.62,0-3.3.31-6.6.48-9.91l3.42-.67c1.28,5.11,3.5,10.19,3.66,15.34.65,20.76,1.46,41.56.66,62.29-.78,20.47,10.36,32.78,26,42.33,8.4,5.13,17.72,8.77,26.71,12.9,6.53,3,13.21,5.68,19.79,8.57,16.19,7.08,24.44,18.09,22.46,37.09-1.75,16.8-.27,33.91-.68,50.87-.07,3.21-2.3,6.37-3.54,9.55Z" transform="translate(-1710.43 327.2)"/><path d="M2239.16-244.26c0,37-.2,74,.15,111,.08,9-3.08,15.74-10.65,19.73-11.45,6.06-23.19,11.64-35.09,16.78-16.91,7.3-33.88,14.87-43.18,31.73-3.92,7.11-5,16.13-5.94,24.45-1,9.25-.08,18.69-.43,28-.07,1.8-2.14,3.52-3.29,5.28-1.4-1.85-4-3.69-4-5.55-.2-22.87-.42-45.76.39-68.6.16-4.33,3.82-10.2,7.59-12.41,12.34-7.23,25.52-13,38.3-19.51,9.14-4.66,18.77-8.7,27.11-14.54,15-10.5,22.63-24.73,21.36-44.06-1.23-18.62-.53-37.41.08-56.1.2-5.86,2.87-11.63,4.41-17.45Z" transform="translate(-1710.43 327.2)"/><path d="M2329.61-326.54c1.68,2.42,4.55,4.7,4.82,7.27a106.36,106.36,0,0,1,.16,19.71c-1.62,20.5,7.69,35.59,24.3,45.68,12.77,7.76,26.94,13.19,40.49,19.66,3.74,1.78,7.46,3.58,11.2,5.35,14.05,6.65,21.57,16.28,20.09,33.25-1.56,17.88-.43,36-.3,54,0,5.29-.63,9.15-8.47,6.55,0-11.36-.63-23.1.15-34.74,1.19-17.63-7.2-30.42-21-38.75-15.09-9.11-31.74-15.63-47.65-23.41a127.24,127.24,0,0,1-15.29-8.4c-7.82-5.29-12.2-12.46-12-22.5.37-20.4.11-40.81.11-61.21Z" transform="translate(-1710.43 327.2)"/><path d="M2075.65-326.67c1.7,2.16,4.62,4.2,4.86,6.52a92.12,92.12,0,0,1,.14,19.71c-2.86,25.59,10.92,41,31.7,51.66,16.71,8.61,34,16,50.76,24.56,9.62,4.91,14,13,13.55,24.49-.75,18.67-.21,37.4-.19,56.11,0,5,.37,10.29-8.39,9,0-10.18-.58-20.53.12-30.79,1.56-23-9.91-38.08-28.94-48.14-13-6.86-26.82-12.13-40.15-18.36a145.23,145.23,0,0,1-15.29-8.48c-8.27-5.16-11.9-12.4-11.6-22.55.61-20.38.18-40.8.18-61.21Z" transform="translate(-1710.43 327.2)"/><path d="M1912.9-135.7c0-11-.58-22.11.13-33.09,1.25-19.35-8.68-32.54-23.78-41.66-12.81-7.73-27.08-13.06-40.71-19.43-1.53-.72-3.14-1.28-4.7-2-18.09-7.68-29-19.08-26.09-41,2-15,.27-30.42.61-45.64.06-2.37,2.25-4.69,3.46-7,1.36,2.24,3.65,4.37,3.9,6.72a75.35,75.35,0,0,1,.11,16.58c-3.2,27.72,12.15,44,34.57,55.28,12.74,6.43,26.34,11.16,39.41,17,14.84,6.57,23.14,16.55,21.55,34.46s-.2,36-.65,54c-.07,2.81-3,5.54-4.61,8.31C1915-134.06,1914-134.88,1912.9-135.7Z" transform="translate(-1710.43 327.2)"/><path d="M2302.17-327.2c3.24,13.66-1.28,21.45-10.19,26.45a306.32,306.32,0,0,1-30.21,14.86c-19.14,8.11-38.34,16.17-49,35.52a42.15,42.15,0,0,0-4.86,18.57c-.58,21.81,0,43.65-.44,65.47-.12,5.17-2.76,10.28-4.24,15.43l-3.93-.76v-18c0-30.49.41-61-.22-91.46-.23-10.8,4.24-18.11,12.7-22.93,9.76-5.55,20.48-9.4,30.36-14.76,13.47-7.32,26.29-15.85,39.89-22.89C2288-324.72,2295.13-325.35,2302.17-327.2Z" transform="translate(-1710.43 327.2)"/><path d="M1945.47-152.34c0-38.38-.55-76.78.59-115.12.17-5.9,7-13.54,12.76-16.93,13.49-7.9,28.48-13.21,42.34-20.55,9.28-4.91,17.26-12.27,26.59-17.05,6-3.05,13.33-3.4,20.59-5.08,3.4,14-3,21.94-12.2,27.23-10.62,6.12-22.35,10.29-33.24,16-11.5,6-23.25,11.88-33.65,19.5-10.65,7.8-16.07,18.93-15.59,33.08.74,21.43.49,42.91,0,64.36-.12,5.2-2.86,10.35-4.39,15.53Z" transform="translate(-1710.43 327.2)"/><path d="M2303.07-276.76c.1,1.71.25,3.41.28,5.12.59,34.7,11.16,49.54,43.63,62.62a399.92,399.92,0,0,1,38.18,17.51c9.22,4.89,15,12.44,14.1,24.29-.91,12.74.16,25.62-.42,38.4-.17,3.78-3,7.43-4.6,11.15l-3.15-1a16.92,16.92,0,0,1-.36-3.65c4.56-38.87-14.71-52.32-49.72-68.17-13-5.9-26-12.22-37.91-20.1-4.4-2.92-7.27-10.68-7.74-16.48-1.11-13.76-.66-27.68-.14-41.51.13-3.33,3-6.57,4.59-9.85Z" transform="translate(-1710.43 327.2)"/><path d="M2266.63,102.86c1.84,3.32,5.13,6.57,5.27,10,.59,14.51,1.2,29.16-.21,43.56-.59,6-4.85,13.66-9.82,16.79-12,7.59-25.54,12.85-38.33,19.27-8.88,4.45-18.27,8.32-26.2,14.14-13.91,10.23-23.36,23.39-21,42.19.56,4.4.08,8.93.08,13.4l-2.81,1.5c-1.85-2.94-5.2-5.83-5.31-8.84-.53-15.56-1.2-31.24.26-46.67.55-5.74,5.56-13,10.64-16,13.85-8,28.92-13.83,43.31-20.94,7.3-3.61,14.65-7.46,21.13-12.34,14-10.59,21.81-24.53,20.12-42.78-.38-4-.06-8.07-.06-12.11Z" transform="translate(-1710.43 327.2)"/><path d="M1881.48,389.43c-.16-2.7-.75-5.45-.41-8.09,3.94-30.44-14.14-46.33-38.39-57.94-13.86-6.63-28.19-12.31-42-19.15-11-5.49-16.82-14.24-15.65-27.58,1.06-12-.18-24.22.47-36.3.2-3.61,3.34-7.06,5.13-10.58l2.73,1.31c.1,1.72.27,3.44.3,5.16.68,35.34,12.53,51.31,46,64.54,13.91,5.5,27.11,12.85,40.4,19.81,7,3.66,9.72,9.94,9.47,18-.43,14.18.16,28.38-.4,42.55-.13,3.24-3.19,6.36-4.91,9.53Z" transform="translate(-1710.43 327.2)"/><path d="M2303.39-23.37c0,5.06.38,10.17-.06,15.19-1.7,19.21,8.48,32.22,23,42,9.27,6.22,20,10.34,30.08,15.28,3.06,1.5,6.34,2.57,9.48,3.9,31.21,13.25,33.13,16.14,33.13,49.85,0,7.62.48,15.28-.21,22.83-.34,3.72-2.83,7.25-4.35,10.86l-3.82-.79c0-4.89-.42-9.82.07-14.66,2-19.71-8.09-33.4-23.43-42.75C2353.45,69.88,2338,64,2323.26,57c-3.42-1.63-6.79-3.38-10.18-5.07-12.85-6.39-20.08-15.52-18.33-31.09,1.28-11.28-.15-22.84.48-34.23.21-3.8,3.09-7.46,4.75-11.18Z" transform="translate(-1710.43 327.2)"/><path d="M2391.12,389.21a37.39,37.39,0,0,1-.38-6.13c3.42-33.75-13.09-47.26-42.57-61.51-12.27-5.93-25.19-10.58-37.35-16.71-10.8-5.45-17.34-13.69-16.06-27.29,1.15-12.34-.11-24.9.47-37.32.16-3.5,3.06-6.87,4.71-10.3l3.42.93c0,4.58.41,9.21-.07,13.74-2.21,20.92,8.78,35,24.95,45.11,10.92,6.86,23.38,11.26,35.1,16.87,7.69,3.68,15.69,6.92,22.81,11.51,8.76,5.65,14.12,13.33,13.14,25-1,12.36.08,24.89-.44,37.33-.14,3.41-2.75,6.72-4.23,10.08Z" transform="translate(-1710.43 327.2)"/><path d="M1881,135.63c0-4.7-.45-9.45.07-14.09,2.26-20.06-7.54-34-23.51-43.66-11.94-7.21-25.11-12.36-37.73-18.45-5.55-2.68-11.15-5.25-16.59-8.14-12.63-6.72-19.81-16.19-18.17-31.65,1.17-11-.15-22.18.45-33.24.2-3.63,2.94-7.13,4.52-10.68l3.94.87c0,8.38-1.16,17,.23,25.11,3.33,19.49,17.22,30.7,33.85,38.93,16.28,8.06,32.84,15.53,49.13,23.55,9.35,4.6,13,12.31,12.36,22.89-.7,12.78.18,25.66-.4,38.45-.17,3.82-3,7.51-4.56,11.26Z" transform="translate(-1710.43 327.2)"/><path d="M2173.21,9.37c-1.7-3.38-4.75-6.71-4.88-10.15-.54-14.87-1.3-29.89.28-44.61.67-6.19,5.76-13.36,11-17.25,7.76-5.8,17.38-9.14,26.25-13.44,9.88-4.79,19.94-9.24,29.71-14.25,20.15-10.33,30.06-26.65,28.25-49.59a76.86,76.86,0,0,1,.1-8.31c0-.66.37-1.31,1.69-5.72,3,6.09,6.17,9.63,6.34,13.31.61,13.83.14,27.7.28,41.55.11,11-7.46,17.1-15.41,21.56-11.3,6.32-23.83,10.39-35.35,16.36-10.64,5.5-21.41,11.28-30.72,18.7s-15,17.78-14.31,30.6c.34,6.56.06,13.14.06,19.71Z" transform="translate(-1710.43 327.2)"/><path d="M1793.73-277.34c0,3.32.24,6.67,0,10-2.33,27.59,12.72,43.6,36,54.17,13.36,6.08,26.77,12,40.11,18.15,13.73,6.29,21.74,15.65,19.87,32.19-1.27,11.29.16,22.86-.47,34.26-.21,3.75-3.09,7.35-4.75,11l-3.41-1.19c0-6.1-.35-12.24.07-18.31,1.18-17.09-7.13-29.79-20.6-37.9-14.85-8.94-31.32-15.19-47-22.81a125.85,125.85,0,0,1-16.12-9.05c-8.47-5.83-13-13.56-12.25-24.56.81-12.42-.15-24.95.42-37.4.15-3.3,3.1-6.48,4.77-9.72Z" transform="translate(-1710.43 327.2)"/><path d="M1919,9.16c-2.1-2.31-6-4.59-6-6.94q-.36-24.18.71-48.39c.5-11.65,9.82-16.81,18.55-21.23,12.47-6.3,25.69-11.08,38.29-17.14a126.91,126.91,0,0,0,19.14-11.85c12.41-9,20-20.54,18.34-36.81-.56-5.41-.09-10.92-.09-16.39l3.22-1.51c1.76,2.65,5,5.26,5,7.95.46,16.27,1.12,32.64-.33,48.8-.48,5.35-6,11.75-11,14.87-10.08,6.32-21.37,10.7-32.16,15.9-8.62,4.16-17.52,7.84-25.78,12.62C1924.26-37.85,1918.19-17,1921.4,8Z" transform="translate(-1710.43 327.2)"/><path d="M2011.48,103.34c1.63,2.91,4.6,5.78,4.68,8.73q.66,23.88-.09,47.79c-.11,3.28-2.16,7.87-4.78,9.47-12.16,7.44-24.78,14.14-37.33,20.92-11.15,6-22.93,11-33.51,17.88-12.94,8.4-19.11,21.34-19.5,36.83-.15,5.8,0,11.6,0,17.41l-3.06,1.25c-1.66-3-4.69-6-4.77-9-.4-15.18-.43-30.4.2-45.57.52-12.53,10.71-18,20-22.76,13.68-7,28.3-12,42.08-18.83,21.67-10.66,36.16-26.22,32.55-52.76-.44-3.28-.06-6.67-.06-10Z" transform="translate(-1710.43 327.2)"/><path d="M2049.55-277.31c0,3.4.44,6.86-.06,10.18-4.06,26.87,11.66,41.89,32.53,53.12,11.09,6,23.22,9.95,34.74,15.17,5.25,2.38,10.12,5.6,15.19,8.39,9.17,5.06,12.72,12.8,12.31,23.19-.49,12.45.23,25-.34,37.4-.18,4-2.79,8-4.29,12l-3.69-.86c0-8.25,1.17-16.69-.21-24.71-4.2-24.4-23.44-35-43.27-44.53-13.51-6.51-27.37-12.32-40.77-19-7.67-3.85-11-10.6-10.77-19.55.43-13.85-.22-27.73.33-41.57.14-3.55,3-7,4.67-10.48Z" transform="translate(-1710.43 327.2)"/><path d="M2136.92,135a20.31,20.31,0,0,1-.34-4.08c4.33-35.95-15.81-52.29-47.7-65.69a383.33,383.33,0,0,1-35.23-16.42c-8.51-4.64-13.64-11.83-12.88-22.84.9-13.11-.07-26.33.39-39.48.12-3.6,2.47-7.12,3.79-10.68l3.74.68c.28,4.9,1.23,9.87.73,14.69-2.36,23,10.2,36.94,28.51,47,9.27,5.09,19.35,8.71,29.07,13,4.69,2.07,9.49,3.91,14.09,6.17,15.24,7.5,26,17.37,23.34,36.86-1.4,10.18.38,20.76-.06,31.12-.16,3.66-2.66,7.22-4.09,10.83Z" transform="translate(-1710.43 327.2)"/><path d="M2136.44,389.34c0-4-.13-8,0-12.06.74-20.08-7.4-35.67-24.86-45.33-14-7.75-28.89-13.94-43.36-20.88a118.77,118.77,0,0,1-11.93-6.14c-9.71-6.08-16.84-13.15-15.49-26.5,1.28-12.69-.08-25.62.46-38.41.13-3.18,3.11-6.24,4.79-9.36l3.49,1.36c0,3.39.38,6.82-.07,10.15-3.77,28.27,13,43.21,35.41,54.1,13.53,6.56,27.49,12.22,41.15,18.52,12.85,5.92,19.46,15.32,18.32,30.32-.9,11.67.5,23.5.18,35.24-.1,3.4-2.6,6.74-4,10.12Z" transform="translate(-1710.43 327.2)"/><path d="M2395.52,249.29c-1.61-2.93-4.55-5.83-4.6-8.79-.4-21.81-1-43.68.31-65.41.36-5.91,5.9-13.74,11.26-16.71,17.83-9.87,36.67-17.94,56.18-27.2v22.76c-19.38,7-38.74,14.95-52,32.19C2392.36,204.81,2402.25,227.1,2395.52,249.29Z" transform="translate(-1710.43 327.2)"/><path d="M2459-123c.91,21,.66,20.51-17.07,29.13S2405.48-77,2400.62-55.23c-2.13,9.58-1.22,19.86-1.53,29.83-.18,5.85,0,11.71,0,17.56l-3,1.66c-1.79-2.62-5.1-5.2-5.15-7.85-.42-22.18-1.1-44.42.35-66.51.38-5.83,6.8-12.92,12.35-16.39,10.69-6.67,22.71-11.2,34.22-16.54C2444.64-116.62,2451.49-119.62,2459-123Z" transform="translate(-1710.43 327.2)"/><path d="M2172.93-245.34c-1.61-2.88-4.54-5.71-4.62-8.63-.46-15.88-.37-31.78,0-47.66a13.49,13.49,0,0,1,3.46-8c9-9.89,19.09-17.27,33.8-16.14,11.67.9,23.47.18,35.82,1.85-3.68,1.54-7.38,3.06-11.06,4.64-20.16,8.66-41.91,16.15-50.78,38.52-4,10.09-3.05,22.13-4.35,33.28Z" transform="translate(-1710.43 327.2)"/><path d="M1917.69-245.84c-1.57-2.35-4.46-4.67-4.51-7-.34-15.43-.67-30.91.21-46.3.68-11.74,16.63-25.94,28.78-26.31,14.81-.45,29.64-.11,45,.7-35.71,14.76-73.23,27.73-65.63,79.33Z" transform="translate(-1710.43 327.2)"/><path d="M2427.13,9.26c-1.74-3.37-4.84-6.68-5-10.11-.57-14.16-.26-28.36-.23-42.54,0-9.81,6.23-15.73,13.67-20.38,7.16-4.47,14.78-8.17,22.78-12.53,2.42,13.76,2.08,24-10.48,32.2-13.95,9-18.87,23.8-17.62,40.43.28,3.77,0,7.58,0,11.38Z" transform="translate(-1710.43 327.2)"/><path d="M2458.46,178.09c1.78,14,2.34,23.91-10.41,31.86s-18.53,21.63-17.77,37.31c.24,5.06,0,10.15,0,15.22l-3.31,1.18c-1.7-3.68-4.7-7.3-4.87-11.05-.59-13.44-1.34-27.05.24-40.33.8-6.69,5.17-14.3,10.29-18.8C2439.8,187.21,2449.14,183.46,2458.46,178.09Z" transform="translate(-1710.43 327.2)"/><path d="M2426.37-245.85c-1.49-3.54-4.09-7-4.25-10.62-.54-12.06-.23-24.17-.2-36.26,0-19.53,16.61-34.17,36.59-32.16,2.26,9.82,2,18.14-8.32,24.39-15.19,9.23-21,23.72-19.93,41.25.25,4.07,0,8.16,0,12.24Z" transform="translate(-1710.43 327.2)"/><path d="M1881-325h17.53c-15.46,20-6.2,42.65-12.49,64.9-1.68-2.77-4.75-5.5-4.82-8.31C1880.81-287,1881-305.62,1881-325Z" transform="translate(-1710.43 327.2)"/><path d="M2390.71-325.34h16.87c-14.66,19.95-5.75,42.4-9.74,66.89-3.29-4.19-6.81-6.6-6.87-9.09C2390.5-286.43,2390.71-305.34,2390.71-325.34Z" transform="translate(-1710.43 327.2)"/><path d="M2136.54-325.29h15.8c-11.54,18.25-7.2,38-8.2,57.09-.13,2.36-2.34,4.6-3.59,6.89-1.34-2.38-3.79-4.75-3.84-7.16C2136.39-287,2136.54-305.57,2136.54-325.29Z" transform="translate(-1710.43 327.2)"/><path d="M2367.09-326.76v47.65c-13.12-12.89-5.7-28.9-7.31-43.45C2359.67-323.52,2363.87-325,2367.09-326.76Z" transform="translate(-1710.43 327.2)"/><path d="M1855.2-278.72c-10.6-14-2.85-30.33-5.84-45.29l2.8-2.29c2,2,5.64,4,5.72,6.1.52,13.69.26,27.41.26,41.11Z" transform="translate(-1710.43 327.2)"/><path d="M2112-279.46c-13.6-13.06-6-29.44-8.9-44.61,5.49-2.25,9-2.88,8.94,4.38C2111.92-306.28,2112-292.87,2112-279.46Z" transform="translate(-1710.43 327.2)"/></g></svg>