<svg id="Layer_1" data-name="Layer 1" xmlns="http://www.w3.org/2000/svg" viewBox="0 0 428.79 325"><defs><style>.cls-1{fill:none;stroke:#000;stroke-linecap:round;stroke-linejoin:round;stroke-width:0;}</style></defs><g id="SPLINE"><path class="cls-1" d="M512.89,553.23c-3.18,9.62-9.29,17.71-13.84,26.61-1.38,2.69-2.92,3.81-5.86,3.38a34.91,34.91,0,0,0-4.81,0c-.41-3.94.91-7.27,2.69-10.45,2.74-4.88,5.61-9.7,8.39-14.57,6.13-10.75,5.65-21.44-.43-32q-8.31-14.49-16.65-28.94c-7.24-12.49-14.63-24.9-21.75-37.45-3.45-6.08-7-12.21-9.48-18.71-3.82-10.12-4.34-20.63-2.46-31.45,1.95-11.16,7.88-20.31,13.23-29.82,5.06-9,10.27-17.91,15.43-26.85.51-.88,1.18-1.67,2.11-3,1.91,3.46,3.66,6.41,5.15,9.49a3.55,3.55,0,0,1-.55,2.67c-6.79,11.9-13.89,23.62-20.4,35.67-5.37,9.93-6.8,20.6-4.91,31.9,1.53,9.08,6.08,16.63,10.5,24.34q13.37,23.31,26.82,46.55c4.08,7.07,8.36,14,12.28,21.19a114,114,0,0,1,4.54,10.51Z" transform="translate(-84.11 -258.42)"/></g><g id="HATCH"><path d="M512.89,553.23c-3.18,9.62-9.29,17.71-13.84,26.61-1.38,2.69-2.92,3.81-5.86,3.38a34.91,34.91,0,0,0-4.81,0c-.41-3.94.91-7.27,2.69-10.45,2.74-4.88,5.61-9.7,8.39-14.57,6.13-10.75,5.65-21.44-.43-32q-8.31-14.49-16.65-28.94c-7.24-12.49-14.63-24.9-21.75-37.45-3.45-6.08-7-12.21-9.48-18.71-3.82-10.12-4.34-20.63-2.46-31.45,1.95-11.16,7.88-20.31,13.23-29.82,5.06-9,10.27-17.91,15.43-26.85.51-.88,1.18-1.67,2.11-3,1.91,3.46,3.66,6.41,5.15,9.49a3.55,3.55,0,0,1-.55,2.67c-6.79,11.9-13.89,23.62-20.4,35.67-5.37,9.93-6.8,20.6-4.91,31.9,1.53,9.08,6.08,16.63,10.5,24.34q13.37,23.31,26.82,46.55c4.08,7.07,8.36,14,12.28,21.19a114,114,0,0,1,4.54,10.51Z" transform="translate(-84.11 -258.42)"/></g><g id="SPLINE-2" data-name="SPLINE"><path class="cls-1" d="M512.89,391c-5.29,14.25-14.63,26.26-21.36,39.71l-1.09,0a53.23,53.23,0,0,1-2-6.88c-.86-5.67.9-10.73,3.84-15.57a151.64,151.64,0,0,0,9-16c4.28-9.46,3.21-18.79-2-27.74Q484,338.1,468.83,311.66c-5.6-9.79-11.31-19.55-16.46-29.59-3.66-7.14-4.55-15.11-4.86-23.26h10.32c.29,6.75,1.27,13.39,4.16,19.47,2.66,5.58,5.77,11,8.85,16.34,6.39,11.19,12.9,22.32,19.34,33.48s13,22.42,19.36,33.72a68.25,68.25,0,0,1,3.35,8.17Z" transform="translate(-84.11 -258.42)"/></g><g id="HATCH-2" data-name="HATCH"><path d="M512.89,391c-5.29,14.25-14.63,26.26-21.36,39.71l-1.09,0a53.23,53.23,0,0,1-2-6.88c-.86-5.67.9-10.73,3.84-15.57a151.64,151.64,0,0,0,9-16c4.28-9.46,3.21-18.79-2-27.74Q484,338.1,468.83,311.66c-5.6-9.79-11.31-19.55-16.46-29.59-3.66-7.14-4.55-15.11-4.86-23.26h10.32c.29,6.75,1.27,13.39,4.16,19.47,2.66,5.58,5.77,11,8.85,16.34,6.39,11.19,12.9,22.32,19.34,33.48s13,22.42,19.36,33.72a68.25,68.25,0,0,1,3.35,8.17Z" transform="translate(-84.11 -258.42)"/></g><g id="SPLINE-3" data-name="SPLINE"><path class="cls-1" d="M512.89,509.29c-3.65-6.15-7.35-12.26-10.94-18.45-9.64-16.65-19.31-33.28-28.81-50a39.4,39.4,0,0,1-4.44-27.75c1.22-6.31,4.15-11.76,7.31-17.19,4.57-7.84,9.09-15.72,13.65-23.57a24,24,0,0,1,1.46-2,19.6,19.6,0,0,1,.22,19.75c-3.42,6.48-7.34,12.69-10.69,19.21-2.59,5.05-2.6,10.62-2,16.2.67,6.55,4.38,11.77,7.49,17.22,8.77,15.39,17.68,30.71,26.54,46.05,0,.06.15.06.23.09Z" transform="translate(-84.11 -258.42)"/></g><g id="HATCH-3" data-name="HATCH"><path d="M512.89,509.29c-3.65-6.15-7.35-12.26-10.94-18.45-9.64-16.65-19.31-33.28-28.81-50a39.4,39.4,0,0,1-4.44-27.75c1.22-6.31,4.15-11.76,7.31-17.19,4.57-7.84,9.09-15.72,13.65-23.57a24,24,0,0,1,1.46-2,19.6,19.6,0,0,1,.22,19.75c-3.42,6.48-7.34,12.69-10.69,19.21-2.59,5.05-2.6,10.62-2,16.2.67,6.55,4.38,11.77,7.49,17.22,8.77,15.39,17.68,30.71,26.54,46.05,0,.06.15.06.23.09Z" transform="translate(-84.11 -258.42)"/></g><g id="SPLINE-4" data-name="SPLINE"><path class="cls-1" d="M512.89,347c-4-6.81-8.06-13.6-12-20.43-6.85-11.76-13.76-23.5-20.47-35.35-4.06-7.16-8.94-14-11-22.09-.85-3.31-1.18-6.75-1.78-10.36h10.37c.48,2.69.48,5.63,1.55,8.11a157.74,157.74,0,0,0,7.64,15.21c7.32,13,14.82,25.9,22.27,38.82,1.1,1.91,2.32,3.75,3.49,5.62Z" transform="translate(-84.11 -258.42)"/></g><g id="HATCH-4" data-name="HATCH"><path d="M512.89,347c-4-6.81-8.06-13.6-12-20.43-6.85-11.76-13.76-23.5-20.47-35.35-4.06-7.16-8.94-14-11-22.09-.85-3.31-1.18-6.75-1.78-10.36h10.37c.48,2.69.48,5.63,1.55,8.11a157.74,157.74,0,0,0,7.64,15.21c7.32,13,14.82,25.9,22.27,38.82,1.1,1.91,2.32,3.75,3.49,5.62Z" transform="translate(-84.11 -258.42)"/></g><g id="SPLINE-5" data-name="SPLINE"><path class="cls-1" d="M512.89,434.4l-10.26,17c-2-3.57-3.88-6.78-5.64-10-.15-.29.2-.92.44-1.33q7.71-13.32,15.46-26.63Z" transform="translate(-84.11 -258.42)"/></g><g id="HATCH-5" data-name="HATCH"><path d="M512.89,434.4l-10.26,17c-2-3.57-3.88-6.78-5.64-10-.15-.29.2-.92.44-1.33q7.71-13.32,15.46-26.63Z" transform="translate(-84.11 -258.42)"/></g><g id="SPLINE-6" data-name="SPLINE"><path class="cls-1" d="M432.45,268.57c4.1,7.14,7.92,13.71,11.65,20.32,5.12,9.05,10.62,17.91,15.12,27.25s5.37,19.76,4.46,30.29c-1.07,12.36-7,22.66-13,33-9.65,16.66-19.19,33.38-28.81,50.06-3.13,5.43-6.39,10.79-9.53,16.21A29.77,29.77,0,0,0,409.25,470c2.21,7.57,7.06,13.73,10.79,20.47,3.45,6.25,4.61,12.46,1.95,19.18a9.09,9.09,0,0,1-1.19,1.69,6.84,6.84,0,0,1-1.53-1.39c-5.61-9.61-11.4-19.12-16.68-28.91-6.19-11.48-7-23.65-1.68-35.57,3.37-7.59,8.06-14.6,12.22-21.83Q427,399.47,441,375.36c2.68-4.65,5.5-9.22,7.91-14a48.36,48.36,0,0,0,4.83-23c-.19-10.34-3.9-19.41-9.14-28.12-5.91-9.82-11.49-19.84-17.12-29.82a3.51,3.51,0,0,1,0-2.89C428.83,274.65,430.53,271.91,432.45,268.57Z" transform="translate(-84.11 -258.42)"/></g><g id="HATCH-6" data-name="HATCH"><path d="M432.45,268.57c4.1,7.14,7.92,13.71,11.65,20.32,5.12,9.05,10.62,17.91,15.12,27.25s5.37,19.76,4.46,30.29c-1.07,12.36-7,22.66-13,33-9.65,16.66-19.19,33.38-28.81,50.06-3.13,5.43-6.39,10.79-9.53,16.21A29.77,29.77,0,0,0,409.25,470c2.21,7.57,7.06,13.73,10.79,20.47,3.45,6.25,4.61,12.46,1.95,19.18a9.09,9.09,0,0,1-1.19,1.69,6.84,6.84,0,0,1-1.53-1.39c-5.61-9.61-11.4-19.12-16.68-28.91-6.19-11.48-7-23.65-1.68-35.57,3.37-7.59,8.06-14.6,12.22-21.83Q427,399.47,441,375.36c2.68-4.65,5.5-9.22,7.91-14a48.36,48.36,0,0,0,4.83-23c-.19-10.34-3.9-19.41-9.14-28.12-5.91-9.82-11.49-19.84-17.12-29.82a3.51,3.51,0,0,1,0-2.89C428.83,274.65,430.53,271.91,432.45,268.57Z" transform="translate(-84.11 -258.42)"/></g><g id="SPLINE-7" data-name="SPLINE"><path class="cls-1" d="M151.22,268.62c3.64,6.25,7,12,10.35,17.79,4.4,7.58,8.87,15.11,13.15,22.75a61.38,61.38,0,0,1,8.13,30c.08,12.68-3.71,24.09-10.23,34.85-6.34,10.46-12.24,21.18-18.38,31.76-7.86,13.57-15.94,27-23.59,40.7A29.41,29.41,0,0,0,128,469.93c2.24,7.56,7,13.74,10.79,20.48,3.44,6.23,4.69,12.44,2,19.18a9.36,9.36,0,0,1-1.2,1.7,7.85,7.85,0,0,1-1.64-1.55c-5.43-9.32-11-18.58-16.16-28-7.35-13.4-7.47-27,0-40.43,6.89-12.39,14.09-24.61,21.19-36.88,7.6-13.13,15.52-26.08,22.81-39.38,9.23-16.85,9.24-33.95-.26-50.79C159.27,303.08,152.8,292,146.36,281a3.32,3.32,0,0,1-.06-3.87C147.92,274.52,149.38,271.83,151.22,268.62Z" transform="translate(-84.11 -258.42)"/></g><g id="HATCH-7" data-name="HATCH"><path d="M151.22,268.62c3.64,6.25,7,12,10.35,17.79,4.4,7.58,8.87,15.11,13.15,22.75a61.38,61.38,0,0,1,8.13,30c.08,12.68-3.71,24.09-10.23,34.85-6.34,10.46-12.24,21.18-18.38,31.76-7.86,13.57-15.94,27-23.59,40.7A29.41,29.41,0,0,0,128,469.93c2.24,7.56,7,13.74,10.79,20.48,3.44,6.23,4.69,12.44,2,19.18a9.36,9.36,0,0,1-1.2,1.7,7.85,7.85,0,0,1-1.64-1.55c-5.43-9.32-11-18.58-16.16-28-7.35-13.4-7.47-27,0-40.43,6.89-12.39,14.09-24.61,21.19-36.88,7.6-13.13,15.52-26.08,22.81-39.38,9.23-16.85,9.24-33.95-.26-50.79C159.27,303.08,152.8,292,146.36,281a3.32,3.32,0,0,1-.06-3.87C147.92,274.52,149.38,271.83,151.22,268.62Z" transform="translate(-84.11 -258.42)"/></g><g id="SPLINE-8" data-name="SPLINE"><path class="cls-1" d="M139.55,288.9c3.21,5.56,6.16,10.64,9.06,15.74,3.54,6.22,7.46,12.28,10.46,18.76,4.78,10.37,5.14,21.26.38,31.68-3.55,7.78-8.14,15.09-12.41,22.52-9.69,16.89-19.5,33.72-29.21,50.6-3.73,6.49-7.74,12.83-9.66,20.21-3.83,14.69-1.17,28.26,6.59,41.13,6.09,10.11,11.87,20.4,17.83,30.58a3.67,3.67,0,0,1,0,4.17c-1.54,2.5-3,5.07-4.77,8.18-1.82-3-3.4-5.4-4.85-7.91-6.58-11.43-13.18-22.84-19.65-34.34a55.77,55.77,0,0,1-6.55-20.3c-1.27-9.51-.81-18.89,2.63-27.86a121.1,121.1,0,0,1,7.41-15.3c6-10.83,12.3-21.52,18.48-32.26,8-13.91,16.33-27.64,23.9-41.77,5-9.28,4.09-19-1.06-28.16-2.83-5-5.85-10-8.65-15a20.23,20.23,0,0,1-1.29-17.9C138.49,290.89,138.92,290.18,139.55,288.9Z" transform="translate(-84.11 -258.42)"/></g><g id="HATCH-8" data-name="HATCH"><path d="M139.55,288.9c3.21,5.56,6.16,10.64,9.06,15.74,3.54,6.22,7.46,12.28,10.46,18.76,4.78,10.37,5.14,21.26.38,31.68-3.55,7.78-8.14,15.09-12.41,22.52-9.69,16.89-19.5,33.72-29.21,50.6-3.73,6.49-7.74,12.83-9.66,20.21-3.83,14.69-1.17,28.26,6.59,41.13,6.09,10.11,11.87,20.4,17.83,30.58a3.67,3.67,0,0,1,0,4.17c-1.54,2.5-3,5.07-4.77,8.18-1.82-3-3.4-5.4-4.85-7.91-6.58-11.43-13.18-22.84-19.65-34.34a55.77,55.77,0,0,1-6.55-20.3c-1.27-9.51-.81-18.89,2.63-27.86a121.1,121.1,0,0,1,7.41-15.3c6-10.83,12.3-21.52,18.48-32.26,8-13.91,16.33-27.64,23.9-41.77,5-9.28,4.09-19-1.06-28.16-2.83-5-5.85-10-8.65-15a20.23,20.23,0,0,1-1.29-17.9C138.49,290.89,138.92,290.18,139.55,288.9Z" transform="translate(-84.11 -258.42)"/></g><g id="SPLINE-9" data-name="SPLINE"><path class="cls-1" d="M420.73,288.84c3.6,6.25,7,12,10.26,17.87,3.12,5.51,6.47,10.92,9.18,16.63,4.92,10.39,5.19,21.25.51,31.66-3.52,7.85-8.23,15.18-12.52,22.68-11.58,20.21-23.37,40.31-34.77,60.63-4.72,8.42-6.25,17.67-5.52,27.43s4.64,17.94,9.43,26c5.63,9.53,11.14,19.13,16.65,28.72a3.08,3.08,0,0,1,.49,2.31c-1.58,3.1-3.35,6.11-5.35,9.67-1.77-2.86-3.25-5.1-4.59-7.42-6.75-11.71-13.7-23.31-20.14-35.19-6.12-11.28-8-23.45-6.52-36.26,1.34-11.22,6.47-20.79,12-30.3,9.7-16.63,19.29-33.32,28.91-50,3.92-6.8,8-13.53,11.65-20.45A28.54,28.54,0,0,0,433.24,336c-.78-7.36-5-13.14-8.37-19.32-1.7-3.12-3.76-6.07-5.17-9.3C417.05,301.35,417.29,295.26,420.73,288.84Z" transform="translate(-84.11 -258.42)"/></g><g id="HATCH-9" data-name="HATCH"><path d="M420.73,288.84c3.6,6.25,7,12,10.26,17.87,3.12,5.51,6.47,10.92,9.18,16.63,4.92,10.39,5.19,21.25.51,31.66-3.52,7.85-8.23,15.18-12.52,22.68-11.58,20.21-23.37,40.31-34.77,60.63-4.72,8.42-6.25,17.67-5.52,27.43s4.64,17.94,9.43,26c5.63,9.53,11.14,19.13,16.65,28.72a3.08,3.08,0,0,1,.49,2.31c-1.58,3.1-3.35,6.11-5.35,9.67-1.77-2.86-3.25-5.1-4.59-7.42-6.75-11.71-13.7-23.31-20.14-35.19-6.12-11.28-8-23.45-6.52-36.26,1.34-11.22,6.47-20.79,12-30.3,9.7-16.63,19.29-33.32,28.91-50,3.92-6.8,8-13.53,11.65-20.45A28.54,28.54,0,0,0,433.24,336c-.78-7.36-5-13.14-8.37-19.32-1.7-3.12-3.76-6.07-5.17-9.3C417.05,301.35,417.29,295.26,420.73,288.84Z" transform="translate(-84.11 -258.42)"/></g><g id="SPLINE-10" data-name="SPLINE"><path class="cls-1" d="M291.87,268.67c3.28,5.71,6.27,10.93,9.28,16.13,4.42,7.65,8.83,15.3,13.31,22.92a63.54,63.54,0,0,1,8.7,26.26c1.51,15.19-3,28.63-10.69,41.43-8.13,13.51-15.87,27.25-23.77,40.9q-8.43,14.56-16.82,29.16c-6,10.52-6.31,21.1-.15,31.69,2.9,5,5.91,9.94,8.65,15,3,5.61,3.09,11.52,1.08,17.49a3.11,3.11,0,0,1-1.38,1.53c-.2.11-1.05-.59-1.33-1.07q-7.94-13.72-15.78-27.48c-7.84-13.66-8.13-27.52-.59-41.29,6.31-11.51,13.1-22.77,19.64-34.15q8.89-15.47,17.74-31c3.14-5.53,6.6-10.92,9.21-16.68,5.27-11.61,6-23.84,1.44-35.68-3.13-8.1-7.84-15.59-12.06-23.24-3.81-6.92-7.92-13.67-11.84-20.53a2.59,2.59,0,0,1-.22-2.1C288,275,289.79,272.12,291.87,268.67Z" transform="translate(-84.11 -258.42)"/></g><g id="HATCH-10" data-name="HATCH"><path d="M291.87,268.67c3.28,5.71,6.27,10.93,9.28,16.13,4.42,7.65,8.83,15.3,13.31,22.92a63.54,63.54,0,0,1,8.7,26.26c1.51,15.19-3,28.63-10.69,41.43-8.13,13.51-15.87,27.25-23.77,40.9q-8.43,14.56-16.82,29.16c-6,10.52-6.31,21.1-.15,31.69,2.9,5,5.91,9.94,8.65,15,3,5.61,3.09,11.52,1.08,17.49a3.11,3.11,0,0,1-1.38,1.53c-.2.11-1.05-.59-1.33-1.07q-7.94-13.72-15.78-27.48c-7.84-13.66-8.13-27.52-.59-41.29,6.31-11.51,13.1-22.77,19.64-34.15q8.89-15.47,17.74-31c3.14-5.53,6.6-10.92,9.21-16.68,5.27-11.61,6-23.84,1.44-35.68-3.13-8.1-7.84-15.59-12.06-23.24-3.81-6.92-7.92-13.67-11.84-20.53a2.59,2.59,0,0,1-.22-2.1C288,275,289.79,272.12,291.87,268.67Z" transform="translate(-84.11 -258.42)"/></g><g id="SPLINE-11" data-name="SPLINE"><path class="cls-1" d="M268.46,532.68c-2.43-4.11-4.63-7.77-6.77-11.47-5.65-9.8-11.26-19.62-16.91-29.42a60.81,60.81,0,0,1-8-34c.58-11.54,5-21.84,10.84-31.66,7.45-12.47,14.64-25.09,21.9-37.67,6.15-10.64,12.14-21.38,18.42-31.94A33.08,33.08,0,0,0,293,339.62c0-5.79-1.92-11.24-4.86-16.35-3.48-6.06-7.15-12.09-9.84-18.51-2.08-5-1.17-10.32,1.85-15.66,1.5,2.49,2.82,4.61,4.06,6.78,4.85,8.46,10,16.79,14.43,25.44,7,13.58,5.95,27.06-1.64,40.17-7.7,13.3-15.34,26.63-23,39.93-6.65,11.51-13.38,23-20,34.52a50.31,50.31,0,0,0-6,34.89c1.46,8.16,5.34,15.15,9.42,22.14,5.45,9.31,10.82,18.67,16.19,28a2.32,2.32,0,0,1,.37,1.78C272.27,526,270.46,529.12,268.46,532.68Z" transform="translate(-84.11 -258.42)"/></g><g id="HATCH-11" data-name="HATCH"><path d="M268.46,532.68c-2.43-4.11-4.63-7.77-6.77-11.47-5.65-9.8-11.26-19.62-16.91-29.42a60.81,60.81,0,0,1-8-34c.58-11.54,5-21.84,10.84-31.66,7.45-12.47,14.64-25.09,21.9-37.67,6.15-10.64,12.14-21.38,18.42-31.94A33.08,33.08,0,0,0,293,339.62c0-5.79-1.92-11.24-4.86-16.35-3.48-6.06-7.15-12.09-9.84-18.51-2.08-5-1.17-10.32,1.85-15.66,1.5,2.49,2.82,4.61,4.06,6.78,4.85,8.46,10,16.79,14.43,25.44,7,13.58,5.95,27.06-1.64,40.17-7.7,13.3-15.34,26.63-23,39.93-6.65,11.51-13.38,23-20,34.52a50.31,50.31,0,0,0-6,34.89c1.46,8.16,5.34,15.15,9.42,22.14,5.45,9.31,10.82,18.67,16.19,28a2.32,2.32,0,0,1,.37,1.78C272.27,526,270.46,529.12,268.46,532.68Z" transform="translate(-84.11 -258.42)"/></g><g id="SPLINE-12" data-name="SPLINE"><path class="cls-1" d="M347,583.18c1-3.26,1.46-6.31,2.78-8.93,2.63-5.23,5.69-10.25,8.64-15.31,6.59-11.29,6.08-22.38-.45-33.55-10.53-18-20.89-36-31.3-54.09-4.49-7.79-9.2-15.47-13.31-23.46-5.42-10.54-7.13-21.79-5.9-33.66,1.07-10.21,4.95-19.18,10.07-27.86,6.84-11.61,13.44-23.35,20.15-35a12.06,12.06,0,0,1,1-1.16,51,51,0,0,0,3.41,5.45c2.38,2.93,2.36,5.3.25,8.7-6.43,10.39-12.42,21.06-18.39,31.72a50.52,50.52,0,0,0-6.43,21.61c-.84,12.63,3.3,23.62,9.72,34.16,5.67,9.29,10.93,18.83,16.39,28.25,6.24,10.78,12.62,21.49,18.71,32.35,3.37,6,6.92,12.07,9.26,18.5,3.88,10.65,2.35,21.2-3,31.1-3.51,6.45-7.31,12.73-10.89,19.15-.86,1.55-1.82,2.29-3.67,2.12C351.93,583,349.85,583.18,347,583.18Z" transform="translate(-84.11 -258.42)"/></g><g id="HATCH-12" data-name="HATCH"><path d="M347,583.18c1-3.26,1.46-6.31,2.78-8.93,2.63-5.23,5.69-10.25,8.64-15.31,6.59-11.29,6.08-22.38-.45-33.55-10.53-18-20.89-36-31.3-54.09-4.49-7.79-9.2-15.47-13.31-23.46-5.42-10.54-7.13-21.79-5.9-33.66,1.07-10.21,4.95-19.18,10.07-27.86,6.84-11.61,13.44-23.35,20.15-35a12.06,12.06,0,0,1,1-1.16,51,51,0,0,0,3.41,5.45c2.38,2.93,2.36,5.3.25,8.7-6.43,10.39-12.42,21.06-18.39,31.72a50.52,50.52,0,0,0-6.43,21.61c-.84,12.63,3.3,23.62,9.72,34.16,5.67,9.29,10.93,18.83,16.39,28.25,6.24,10.78,12.62,21.49,18.71,32.35,3.37,6,6.92,12.07,9.26,18.5,3.88,10.65,2.35,21.2-3,31.1-3.51,6.45-7.31,12.73-10.89,19.15-.86,1.55-1.82,2.29-3.67,2.12C351.93,583,349.85,583.18,347,583.18Z" transform="translate(-84.11 -258.42)"/></g><g id="SPLINE-13" data-name="SPLINE"><path class="cls-1" d="M198.23,349.89c1.93,3.48,3.62,6.38,5.14,9.36a2.78,2.78,0,0,1-.15,2.27c-5.78,10.1-11.53,20.22-17.51,30.21-5.68,9.46-9.37,19.43-9,30.64a50.74,50.74,0,0,0,6.88,24q12.85,22.2,25.67,44.41c6.18,10.72,12.63,21.3,18.47,32.21,7.16,13.37,7,26.91-.5,40.22q-5.25,9.39-10.64,18.71a2.46,2.46,0,0,1-1.55,1.22c-2.56.13-5.13.06-7.74.06-.66-3.93.75-7.18,2.46-10.29,2.74-5,5.62-9.89,8.46-14.82,6.42-11.15,5.57-22-1-32.82-4.34-7.11-8.3-14.44-12.47-21.66q-15-26-30.09-52.06a60.57,60.57,0,0,1-7.93-25.23c-1.24-13.55,2-25.95,8.88-37.62S189.22,364.92,196,353C196.54,352.13,197.23,351.32,198.23,349.89Z" transform="translate(-84.11 -258.42)"/></g><g id="HATCH-13" data-name="HATCH"><path d="M198.23,349.89c1.93,3.48,3.62,6.38,5.14,9.36a2.78,2.78,0,0,1-.15,2.27c-5.78,10.1-11.53,20.22-17.51,30.21-5.68,9.46-9.37,19.43-9,30.64a50.74,50.74,0,0,0,6.88,24q12.85,22.2,25.67,44.41c6.18,10.72,12.63,21.3,18.47,32.21,7.16,13.37,7,26.91-.5,40.22q-5.25,9.39-10.64,18.71a2.46,2.46,0,0,1-1.55,1.22c-2.56.13-5.13.06-7.74.06-.66-3.93.75-7.18,2.46-10.29,2.74-5,5.62-9.89,8.46-14.82,6.42-11.15,5.57-22-1-32.82-4.34-7.11-8.3-14.44-12.47-21.66q-15-26-30.09-52.06a60.57,60.57,0,0,1-7.93-25.23c-1.24-13.55,2-25.95,8.88-37.62S189.22,364.92,196,353C196.54,352.13,197.23,351.32,198.23,349.89Z" transform="translate(-84.11 -258.42)"/></g><g id="SPLINE-14" data-name="SPLINE"><path class="cls-1" d="M227.31,583.18c2.8-4.88,5.2-9.38,7.88-13.7a51.22,51.22,0,0,0,7.41-32.57c-.74-8-4-15.36-8-22.34-10.32-17.67-20.51-35.42-30.73-53.15-4.38-7.58-9-15-13-22.81-4.06-7.93-5-16.42-3.39-25.31,1.44-8.08,5.93-14.62,9.76-21.51,3.65-6.56,7.51-13,11.29-19.51.36-.62.84-1.17,1.46-2,3.79,7,3.51,13.66-.06,20.25-3.41,6.29-7.3,12.33-10.4,18.77s-3.72,13.63-1,20.22c3.08,7.39,7.17,14.38,11.14,21.37,9.46,16.64,19.2,33.12,28.64,49.77,4.1,7.24,8.31,14.51,11.46,22.17,3.29,8,3.67,16.57,3.08,25.32-.85,12.66-6.55,23.22-12.87,33.65a3,3,0,0,1-2,1.34C234.61,583.26,231.28,583.18,227.31,583.18Z" transform="translate(-84.11 -258.42)"/></g><g id="HATCH-14" data-name="HATCH"><path d="M227.31,583.18c2.8-4.88,5.2-9.38,7.88-13.7a51.22,51.22,0,0,0,7.41-32.57c-.74-8-4-15.36-8-22.34-10.32-17.67-20.51-35.42-30.73-53.15-4.38-7.58-9-15-13-22.81-4.06-7.93-5-16.42-3.39-25.31,1.44-8.08,5.93-14.62,9.76-21.51,3.65-6.56,7.51-13,11.29-19.51.36-.62.84-1.17,1.46-2,3.79,7,3.51,13.66-.06,20.25-3.41,6.29-7.3,12.33-10.4,18.77s-3.72,13.63-1,20.22c3.08,7.39,7.17,14.38,11.14,21.37,9.46,16.64,19.2,33.12,28.64,49.77,4.1,7.24,8.31,14.51,11.46,22.17,3.29,8,3.67,16.57,3.08,25.32-.85,12.66-6.55,23.22-12.87,33.65a3,3,0,0,1-2,1.34C234.61,583.26,231.28,583.18,227.31,583.18Z" transform="translate(-84.11 -258.42)"/></g><g id="SPLINE-15" data-name="SPLINE"><path class="cls-1" d="M350.56,370.28c3.56,6.71,3.53,13.25.23,19.63-3,5.86-6.7,11.38-9.74,17.22-4.94,9.47-4.8,19.08.43,28.39,6.59,11.73,13.42,23.34,20.12,35,8.74,15.22,17.76,30.28,26.08,45.72,5.85,10.85,7,22.76,5.48,35-1.27,10.41-6,19.33-11,28.26-1.67,3-3.49,4.1-6.75,3.74a71.66,71.66,0,0,0-7.52-.05c2.82-4.9,5.41-9.46,8.05-14,6.38-11,8.9-22.52,6.77-35.2-1.43-8.54-5.49-15.75-9.7-23q-14.79-25.49-29.44-51.06c-4-6.92-8.3-13.69-11.81-20.85a47.12,47.12,0,0,1-4-13.55c-1.68-11.08,2.26-20.87,7.9-30.19,4.84-8,9.42-16.09,14.12-24.15A9.08,9.08,0,0,1,350.56,370.28Z" transform="translate(-84.11 -258.42)"/></g><g id="HATCH-15" data-name="HATCH"><path d="M350.56,370.28c3.56,6.71,3.53,13.25.23,19.63-3,5.86-6.7,11.38-9.74,17.22-4.94,9.47-4.8,19.08.43,28.39,6.59,11.73,13.42,23.34,20.12,35,8.74,15.22,17.76,30.28,26.08,45.72,5.85,10.85,7,22.76,5.48,35-1.27,10.41-6,19.33-11,28.26-1.67,3-3.49,4.1-6.75,3.74a71.66,71.66,0,0,0-7.52-.05c2.82-4.9,5.41-9.46,8.05-14,6.38-11,8.9-22.52,6.77-35.2-1.43-8.54-5.49-15.75-9.7-23q-14.79-25.49-29.44-51.06c-4-6.92-8.3-13.69-11.81-20.85a47.12,47.12,0,0,1-4-13.55c-1.68-11.08,2.26-20.87,7.9-30.19,4.84-8,9.42-16.09,14.12-24.15A9.08,9.08,0,0,1,350.56,370.28Z" transform="translate(-84.11 -258.42)"/></g><g id="SPLINE-16" data-name="SPLINE"><path class="cls-1" d="M327.48,258.73h9.12c1.72,5.11,2.9,10.19,5.11,14.77,2.92,6.08,6.64,11.78,10,17.64,10.25,17.74,20.6,35.43,30.7,53.26a161.92,161.92,0,0,1,8.23,17c2.54,6,3.07,12.49,3.08,19,0,7.23-.89,14.4-3.77,21.07a171.56,171.56,0,0,1-8.09,15.8c-6,10.65-12.16,21.18-18.26,31.76-.36.62-.76,1.22-1.46,2.36a27.19,27.19,0,0,0-2.68-4.43c-3.69-4-2.62-7.6,0-11.83,6.22-10.14,12.14-20.47,17.9-30.88,6.35-11.48,7.62-23.71,4.58-36.44-1.93-8.09-6.52-14.91-10.52-22-6.47-11.43-13.22-22.71-19.82-34.06Q342.24,295.65,333,279.5A38.57,38.57,0,0,1,327.48,258.73Z" transform="translate(-84.11 -258.42)"/></g><g id="HATCH-16" data-name="HATCH"><path d="M327.48,258.73h9.12c1.72,5.11,2.9,10.19,5.11,14.77,2.92,6.08,6.64,11.78,10,17.64,10.25,17.74,20.6,35.43,30.7,53.26a161.92,161.92,0,0,1,8.23,17c2.54,6,3.07,12.49,3.08,19,0,7.23-.89,14.4-3.77,21.07a171.56,171.56,0,0,1-8.09,15.8c-6,10.65-12.16,21.18-18.26,31.76-.36.62-.76,1.22-1.46,2.36a27.19,27.19,0,0,0-2.68-4.43c-3.69-4-2.62-7.6,0-11.83,6.22-10.14,12.14-20.47,17.9-30.88,6.35-11.48,7.62-23.71,4.58-36.44-1.93-8.09-6.52-14.91-10.52-22-6.47-11.43-13.22-22.71-19.82-34.06Q342.24,295.65,333,279.5A38.57,38.57,0,0,1,327.48,258.73Z" transform="translate(-84.11 -258.42)"/></g><g id="SPLINE-17" data-name="SPLINE"><path class="cls-1" d="M186.84,258.76h9.28c1.46,4.76,2.41,9.5,4.36,13.78,2.31,5.09,5.46,9.79,8.27,14.65q10.17,17.56,20.34,35.11c5.71,9.87,11.54,19.66,17,29.65A58.53,58.53,0,0,1,252.71,373c2.07,16.25-2.84,30.55-11.22,44.16-6.2,10.06-11.88,20.43-17.8,30.65-.61,1.06-1.31,2.07-2.28,3.58-2-3.54-3.81-6.65-5.48-9.83-.22-.41.17-1.25.47-1.78,6.28-10.94,12.48-21.93,18.93-32.76a51.63,51.63,0,0,0,7.23-32.74c-.88-8.09-4.12-15.49-8.3-22.55-8.57-14.48-16.78-29.17-25.19-43.75q-8.12-14.06-16.38-28C188.74,273.24,186.5,265.34,186.84,258.76Z" transform="translate(-84.11 -258.42)"/></g><g id="HATCH-17" data-name="HATCH"><path d="M186.84,258.76h9.28c1.46,4.76,2.41,9.5,4.36,13.78,2.31,5.09,5.46,9.79,8.27,14.65q10.17,17.56,20.34,35.11c5.71,9.87,11.54,19.66,17,29.65A58.53,58.53,0,0,1,252.71,373c2.07,16.25-2.84,30.55-11.22,44.16-6.2,10.06-11.88,20.43-17.8,30.65-.61,1.06-1.31,2.07-2.28,3.58-2-3.54-3.81-6.65-5.48-9.83-.22-.41.17-1.25.47-1.78,6.28-10.94,12.48-21.93,18.93-32.76a51.63,51.63,0,0,0,7.23-32.74c-.88-8.09-4.12-15.49-8.3-22.55-8.57-14.48-16.78-29.17-25.19-43.75q-8.12-14.06-16.38-28C188.74,273.24,186.5,265.34,186.84,258.76Z" transform="translate(-84.11 -258.42)"/></g><g id="SPLINE-18" data-name="SPLINE"><path class="cls-1" d="M350.38,430.77a17.74,17.74,0,0,1-2.6-12.41c.71-5.95,4.46-10.5,7.13-15.55s5.75-9.93,7.42-15.27a24.93,24.93,0,0,0-1.34-18.2c-3-6.23-6.53-12.18-10-18.18-12.3-21.41-24.76-42.73-36.95-64.21a54.84,54.84,0,0,1-7-28.14h10.2c.26,2.79.39,5.66.83,8.47,1.12,7.29,4.27,13.79,8,20.1,6.86,11.68,13.59,23.43,20.37,35.15,5.53,9.56,11.16,19.05,16.53,28.69,3.16,5.68,6.47,11.38,8.67,17.46,3.74,10.32,2.35,20.69-2.73,30.24-5.57,10.49-11.82,20.62-17.79,30.9A9.83,9.83,0,0,1,350.38,430.77Z" transform="translate(-84.11 -258.42)"/></g><g id="HATCH-18" data-name="HATCH"><path d="M350.38,430.77a17.74,17.74,0,0,1-2.6-12.41c.71-5.95,4.46-10.5,7.13-15.55s5.75-9.93,7.42-15.27a24.93,24.93,0,0,0-1.34-18.2c-3-6.23-6.53-12.18-10-18.18-12.3-21.41-24.76-42.73-36.95-64.21a54.84,54.84,0,0,1-7-28.14h10.2c.26,2.79.39,5.66.83,8.47,1.12,7.29,4.27,13.79,8,20.1,6.86,11.68,13.59,23.43,20.37,35.15,5.53,9.56,11.16,19.05,16.53,28.69,3.16,5.68,6.47,11.38,8.67,17.46,3.74,10.32,2.35,20.69-2.73,30.24-5.57,10.49-11.82,20.62-17.79,30.9A9.83,9.83,0,0,1,350.38,430.77Z" transform="translate(-84.11 -258.42)"/></g><g id="SPLINE-19" data-name="SPLINE"><path class="cls-1" d="M209.64,431c-3.63-7.34-3.42-14,.28-20.64,3-5.33,6.33-10.47,9.13-15.9,5.21-10.11,4.7-20.16-1-30q-14.9-25.69-29.69-51.45c-4.88-8.44-10-16.74-14.63-25.31a56.1,56.1,0,0,1-7-23.26c-.11-1.81-.34-3.61-.53-5.6h10.43c.3,6.76,1.26,13.41,4.16,19.49,2.68,5.65,5.88,11.07,9,16.51,6.4,11.18,12.88,22.32,19.34,33.48,5.8,10,11.65,20,17.42,30,8.15,14.16,8.65,28.5.63,42.87-5.22,9.36-10.65,18.61-16,27.9A19,19,0,0,1,209.64,431Z" transform="translate(-84.11 -258.42)"/></g><g id="HATCH-19" data-name="HATCH"><path d="M209.64,431c-3.63-7.34-3.42-14,.28-20.64,3-5.33,6.33-10.47,9.13-15.9,5.21-10.11,4.7-20.16-1-30q-14.9-25.69-29.69-51.45c-4.88-8.44-10-16.74-14.63-25.31a56.1,56.1,0,0,1-7-23.26c-.11-1.81-.34-3.61-.53-5.6h10.43c.3,6.76,1.26,13.41,4.16,19.49,2.68,5.65,5.88,11.07,9,16.51,6.4,11.18,12.88,22.32,19.34,33.48,5.8,10,11.65,20,17.42,30,8.15,14.16,8.65,28.5.63,42.87-5.22,9.36-10.65,18.61-16,27.9A19,19,0,0,1,209.64,431Z" transform="translate(-84.11 -258.42)"/></g><g id="SPLINE-20" data-name="SPLINE"><path class="cls-1" d="M274.14,583.18,282.27,569c8.61-15,17.53-29.86,25.74-45.08,5.16-9.56,6.22-20,4.3-30.84-1.48-8.43-5.44-15.65-9.63-22.85q-8-13.8-16-27.62c-.3-.53-.65-1.39-.43-1.81,1.67-3.15,3.47-6.22,5.49-9.76.79,1.1,1.24,1.64,1.59,2.25,7.14,12.36,14.23,24.75,21.42,37.08a61.16,61.16,0,0,1-.57,64.21C307.89,545,302,555.6,296,566.1c-3,5.22-6,10.45-9.07,15.61a3.23,3.23,0,0,1-2.22,1.4C281.38,583.27,278.05,583.18,274.14,583.18Z" transform="translate(-84.11 -258.42)"/></g><g id="HATCH-20" data-name="HATCH"><path d="M274.14,583.18,282.27,569c8.61-15,17.53-29.86,25.74-45.08,5.16-9.56,6.22-20,4.3-30.84-1.48-8.43-5.44-15.65-9.63-22.85q-8-13.8-16-27.62c-.3-.53-.65-1.39-.43-1.81,1.67-3.15,3.47-6.22,5.49-9.76.79,1.1,1.24,1.64,1.59,2.25,7.14,12.36,14.23,24.75,21.42,37.08a61.16,61.16,0,0,1-.57,64.21C307.89,545,302,555.6,296,566.1c-3,5.22-6,10.45-9.07,15.61a3.23,3.23,0,0,1-2.22,1.4C281.38,583.27,278.05,583.18,274.14,583.18Z" transform="translate(-84.11 -258.42)"/></g><g id="SPLINE-21" data-name="SPLINE"><path class="cls-1" d="M133.5,583.18c5.8-10,11.36-19.44,16.81-28.95,5.94-10.36,12.46-20.46,17.5-31.24,7.63-16.31,6.2-32.5-3.14-48-6.42-10.68-12.49-21.57-18.67-32.4a2.51,2.51,0,0,1-.29-2c1.62-3.05,3.4-6,5.4-9.52,1.87,3,3.54,5.51,5,8.12,6.13,10.67,12.18,21.39,18.34,32.05a61.16,61.16,0,0,1,7.85,38.61c-1.16,10.16-5.34,19.08-10.41,27.75q-12.75,21.83-25.31,43.76a3.09,3.09,0,0,1-3.24,1.91C140.26,583.06,137.12,583.18,133.5,583.18Z" transform="translate(-84.11 -258.42)"/></g><g id="HATCH-21" data-name="HATCH"><path d="M133.5,583.18c5.8-10,11.36-19.44,16.81-28.95,5.94-10.36,12.46-20.46,17.5-31.24,7.63-16.31,6.2-32.5-3.14-48-6.42-10.68-12.49-21.57-18.67-32.4a2.51,2.51,0,0,1-.29-2c1.62-3.05,3.4-6,5.4-9.52,1.87,3,3.54,5.51,5,8.12,6.13,10.67,12.18,21.39,18.34,32.05a61.16,61.16,0,0,1,7.85,38.61c-1.16,10.16-5.34,19.08-10.41,27.75q-12.75,21.83-25.31,43.76a3.09,3.09,0,0,1-3.24,1.91C140.26,583.06,137.12,583.18,133.5,583.18Z" transform="translate(-84.11 -258.42)"/></g><g id="SPLINE-22" data-name="SPLINE"><path class="cls-1" d="M414.77,583.18c3.2-5.58,6.15-10.73,9.1-15.86,5.71-9.93,11.48-19.81,17.12-29.78,3.24-5.73,6.61-11.43,9.31-17.41,2.93-6.48,3.73-13.45,3.35-20.62a50.64,50.64,0,0,0-6.28-22.16c-4.37-7.86-9-15.56-13.54-23.34-2.25-3.85-4.52-7.69-6.7-11.59a2.46,2.46,0,0,1-.17-2c1.63-3,3.4-6,5.39-9.45,1.8,2.95,3.4,5.42,4.87,8q9.33,16.21,18.61,32.46a61.23,61.23,0,0,1,7.74,38.11c-1.19,11-6,20.4-11.42,29.69-8.21,13.95-16.24,28-24.28,42.07a3.31,3.31,0,0,1-3.47,2C421.35,583.08,418.28,583.18,414.77,583.18Z" transform="translate(-84.11 -258.42)"/></g><g id="HATCH-22" data-name="HATCH"><path d="M414.77,583.18c3.2-5.58,6.15-10.73,9.1-15.86,5.71-9.93,11.48-19.81,17.12-29.78,3.24-5.73,6.61-11.43,9.31-17.41,2.93-6.48,3.73-13.45,3.35-20.62a50.64,50.64,0,0,0-6.28-22.16c-4.37-7.86-9-15.56-13.54-23.34-2.25-3.85-4.52-7.69-6.7-11.59a2.46,2.46,0,0,1-.17-2c1.63-3,3.4-6,5.39-9.45,1.8,2.95,3.4,5.42,4.87,8q9.33,16.21,18.61,32.46a61.23,61.23,0,0,1,7.74,38.11c-1.19,11-6,20.4-11.42,29.69-8.21,13.95-16.24,28-24.28,42.07a3.31,3.31,0,0,1-3.47,2C421.35,583.08,418.28,583.18,414.77,583.18Z" transform="translate(-84.11 -258.42)"/></g><g id="SPLINE-23" data-name="SPLINE"><path class="cls-1" d="M420.68,451.14c3.07,5.3,5.79,9.9,8.41,14.56,4,7,8.25,13.92,11.66,21.21,3.21,6.85,3.69,14.26,2.48,21.85-1.18,7.4-4.81,13.61-8.44,19.89q-8.66,15-17.3,30-6.8,11.8-13.61,23.6a1.83,1.83,0,0,1-1.28.88c-3.63.08-7.26,0-11.3,0,2.5-4.4,4.78-8.46,7.11-12.5,5.5-9.5,11-19,16.56-28.49q7-12.1,14-24.23c6.18-10.75,6.06-21.44-.19-32.15-3.32-5.71-6.85-11.35-9.53-17.36C416.8,463,417.59,457.2,420.68,451.14Z" transform="translate(-84.11 -258.42)"/></g><g id="HATCH-23" data-name="HATCH"><path d="M420.68,451.14c3.07,5.3,5.79,9.9,8.41,14.56,4,7,8.25,13.92,11.66,21.21,3.21,6.85,3.69,14.26,2.48,21.85-1.18,7.4-4.81,13.61-8.44,19.89q-8.66,15-17.3,30-6.8,11.8-13.61,23.6a1.83,1.83,0,0,1-1.28.88c-3.63.08-7.26,0-11.3,0,2.5-4.4,4.78-8.46,7.11-12.5,5.5-9.5,11-19,16.56-28.49q7-12.1,14-24.23c6.18-10.75,6.06-21.44-.19-32.15-3.32-5.71-6.85-11.35-9.53-17.36C416.8,463,417.59,457.2,420.68,451.14Z" transform="translate(-84.11 -258.42)"/></g><g id="SPLINE-24" data-name="SPLINE"><path class="cls-1" d="M250.74,583.18c2.88-5,5.43-9.53,8-14,5.12-8.85,10.27-17.67,15.38-26.52,5-8.62,10.13-17.16,14.88-25.91,5.71-10.51,5.05-21-1-31.26-2.73-4.62-5.34-9.3-8-13.94-3.34-5.77-3.31-11.77-1.21-17.89a12.75,12.75,0,0,1,1.46-2.2c2.08,3.6,4,6.9,5.93,10.22,4.31,7.53,9,14.9,12.81,22.65,6.57,13.21,5.51,26.38-1.72,39.06C287.24,541,277.07,558.45,267,576c-.2.35-.63.62-.73,1-1.62,6.15-6.11,6.95-11.47,6.24A37.2,37.2,0,0,0,250.74,583.18Z" transform="translate(-84.11 -258.42)"/></g><g id="HATCH-24" data-name="HATCH"><path d="M250.74,583.18c2.88-5,5.43-9.53,8-14,5.12-8.85,10.27-17.67,15.38-26.52,5-8.62,10.13-17.16,14.88-25.91,5.71-10.51,5.05-21-1-31.26-2.73-4.62-5.34-9.3-8-13.94-3.34-5.77-3.31-11.77-1.21-17.89a12.75,12.75,0,0,1,1.46-2.2c2.08,3.6,4,6.9,5.93,10.22,4.31,7.53,9,14.9,12.81,22.65,6.57,13.21,5.51,26.38-1.72,39.06C287.24,541,277.07,558.45,267,576c-.2.35-.63.62-.73,1-1.62,6.15-6.11,6.95-11.47,6.24A37.2,37.2,0,0,0,250.74,583.18Z" transform="translate(-84.11 -258.42)"/></g><g id="SPLINE-25" data-name="SPLINE"><path class="cls-1" d="M139.54,451.25c2.5,4.36,4.76,8.36,7.06,12.34,3.33,5.78,6.66,11.56,10,17.32a40.58,40.58,0,0,1,5.27,28.32c-1.24,7.31-4.87,13.39-8.44,19.59q-12.14,21.12-24.3,42.21c-2.14,3.72-4.26,7.45-6.48,11.11a2.34,2.34,0,0,1-1.7,1c-3.48.1-7,0-10.93,0,2.19-3.76,4.2-7.21,6.19-10.66,10.75-18.58,21.67-37.06,32.17-55.78,5.74-10.24,5.11-20.68-.79-30.86-3.34-5.77-6.91-11.48-9.61-17.55C135.57,462.82,136.39,457.07,139.54,451.25Z" transform="translate(-84.11 -258.42)"/></g><g id="HATCH-25" data-name="HATCH"><path d="M139.54,451.25c2.5,4.36,4.76,8.36,7.06,12.34,3.33,5.78,6.66,11.56,10,17.32a40.58,40.58,0,0,1,5.27,28.32c-1.24,7.31-4.87,13.39-8.44,19.59q-12.14,21.12-24.3,42.21c-2.14,3.72-4.26,7.45-6.48,11.11a2.34,2.34,0,0,1-1.7,1c-3.48.1-7,0-10.93,0,2.19-3.76,4.2-7.21,6.19-10.66,10.75-18.58,21.67-37.06,32.17-55.78,5.74-10.24,5.11-20.68-.79-30.86-3.34-5.77-6.91-11.48-9.61-17.55C135.57,462.82,136.39,457.07,139.54,451.25Z" transform="translate(-84.11 -258.42)"/></g><g id="SPLINE-26" data-name="SPLINE"><path class="cls-1" d="M84.86,315.91c3.5,6.08,7,12.14,10.48,18.25,4.12,7.31,8.46,14.53,12.16,22,3.92,8,5.06,16.61,5,25.51-.13,11.94-4,22.56-10.06,32.66-5.8,9.68-11.26,19.57-16.87,29.36a15.07,15.07,0,0,1-1,1.3c-.08-.89-.17-1.48-.18-2.07,0-3,.32-6-.07-9-.91-6.94,1.68-12.62,5.25-18.31a131.28,131.28,0,0,0,9.25-17.41c4.32-9.95,4.45-20.33,1.84-30.81C99,360.74,95.43,354.89,92,349q-3.49-6-6.94-12a4,4,0,0,1-.65-1.84c0-6.38,0-12.76,0-19.14Z" transform="translate(-84.11 -258.42)"/></g><g id="HATCH-26" data-name="HATCH"><path d="M84.86,315.91c3.5,6.08,7,12.14,10.48,18.25,4.12,7.31,8.46,14.53,12.16,22,3.92,8,5.06,16.61,5,25.51-.13,11.94-4,22.56-10.06,32.66-5.8,9.68-11.26,19.57-16.87,29.36a15.07,15.07,0,0,1-1,1.3c-.08-.89-.17-1.48-.18-2.07,0-3,.32-6-.07-9-.91-6.94,1.68-12.62,5.25-18.31a131.28,131.28,0,0,0,9.25-17.41c4.32-9.95,4.45-20.33,1.84-30.81C99,360.74,95.43,354.89,92,349q-3.49-6-6.94-12a4,4,0,0,1-.65-1.84c0-6.38,0-12.76,0-19.14Z" transform="translate(-84.11 -258.42)"/></g><g id="SPLINE-27" data-name="SPLINE"><path class="cls-1" d="M403.07,258.65c-3.89,7.06-7.92,13.54-11.12,20.4A47.57,47.57,0,0,0,387.84,303c.7,9.8,4.51,18.27,9.35,26.51q8.56,14.52,17,29.16a3,3,0,0,1,.12,2.44c-1.55,3-3.3,5.89-5.2,9.22-2.43-4.06-4.76-7.83-7-11.66-5.7-9.86-11.44-19.7-17-29.64-6.63-11.86-8.81-24.57-7.18-38.06,1.19-9.82,5.5-18.31,10-26.88,2.29-4.36,5-6.27,9.76-5.46A33.23,33.23,0,0,0,403.07,258.65Z" transform="translate(-84.11 -258.42)"/></g><g id="HATCH-27" data-name="HATCH"><path d="M403.07,258.65c-3.89,7.06-7.92,13.54-11.12,20.4A47.57,47.57,0,0,0,387.84,303c.7,9.8,4.51,18.27,9.35,26.51q8.56,14.52,17,29.16a3,3,0,0,1,.12,2.44c-1.55,3-3.3,5.89-5.2,9.22-2.43-4.06-4.76-7.83-7-11.66-5.7-9.86-11.44-19.7-17-29.64-6.63-11.86-8.81-24.57-7.18-38.06,1.19-9.82,5.5-18.31,10-26.88,2.29-4.36,5-6.27,9.76-5.46A33.23,33.23,0,0,0,403.07,258.65Z" transform="translate(-84.11 -258.42)"/></g><g id="SPLINE-28" data-name="SPLINE"><path class="cls-1" d="M122,258.65c-3.22,5.56-6.29,10.61-9.12,15.79a51.43,51.43,0,0,0-6.31,28.61c.7,10.72,5.43,19.72,10.7,28.64s10.5,18,15.68,27a2.72,2.72,0,0,1,.18,2.22c-1.61,3-3.39,6-5.38,9.44l-7.7-13.27c-5.45-9.44-11-18.81-16.32-28.34a60.46,60.46,0,0,1-7.11-37.55c1.2-9.89,5.47-18.45,10-27.08,2.31-4.34,4.86-6.34,9.7-5.51A35.79,35.79,0,0,0,122,258.65Z" transform="translate(-84.11 -258.42)"/></g><g id="HATCH-28" data-name="HATCH"><path d="M122,258.65c-3.22,5.56-6.29,10.61-9.12,15.79a51.43,51.43,0,0,0-6.31,28.61c.7,10.72,5.43,19.72,10.7,28.64s10.5,18,15.68,27a2.72,2.72,0,0,1,.18,2.22c-1.61,3-3.39,6-5.38,9.44l-7.7-13.27c-5.45-9.44-11-18.81-16.32-28.34a60.46,60.46,0,0,1-7.11-37.55c1.2-9.89,5.47-18.45,10-27.08,2.31-4.34,4.86-6.34,9.7-5.51A35.79,35.79,0,0,0,122,258.65Z" transform="translate(-84.11 -258.42)"/></g><g id="SPLINE-29" data-name="SPLINE"><path class="cls-1" d="M268.46,370.4c-3.39-5.79-6.55-11.1-9.64-16.45q-7.11-12.33-14.14-24.7a60.17,60.17,0,0,1-7.56-23.58c-1.56-14.23,1.88-27.19,9.12-39.32a2.39,2.39,0,0,0,.13-.21c1.5-2.47,2.49-6.3,4.6-7.08,3.28-1.2,7.33-.32,11.59-.32-1.52,2.64-2.86,4.95-4.18,7.28-3.63,6.37-7.69,12.51-9.55,19.75a53.47,53.47,0,0,0-1,22.38c1.42,8.56,5.61,15.89,9.9,23.21,5.2,8.9,10.31,17.85,15.49,26.76.76,1.31,1,2.36.05,3.83C271.61,364.47,270.25,367.23,268.46,370.4Z" transform="translate(-84.11 -258.42)"/></g><g id="HATCH-29" data-name="HATCH"><path d="M268.46,370.4c-3.39-5.79-6.55-11.1-9.64-16.45q-7.11-12.33-14.14-24.7a60.17,60.17,0,0,1-7.56-23.58c-1.56-14.23,1.88-27.19,9.12-39.32a2.39,2.39,0,0,0,.13-.21c1.5-2.47,2.49-6.3,4.6-7.08,3.28-1.2,7.33-.32,11.59-.32-1.52,2.64-2.86,4.95-4.18,7.28-3.63,6.37-7.69,12.51-9.55,19.75a53.47,53.47,0,0,0-1,22.38c1.42,8.56,5.61,15.89,9.9,23.21,5.2,8.9,10.31,17.85,15.49,26.76.76,1.31,1,2.36.05,3.83C271.61,364.47,270.25,367.23,268.46,370.4Z" transform="translate(-84.11 -258.42)"/></g><g id="SPLINE-30" data-name="SPLINE"><path class="cls-1" d="M84.82,478.17c1.78,3.08,3.57,6.15,5.34,9.24,5.43,9.52,11.12,18.9,16.21,28.59,5.78,11,7.06,22.88,5.6,35.17-1.24,10.42-6,19.34-11,28.25-1.65,2.92-3.37,4.22-6.69,3.82a65,65,0,0,0-7.57-.06c2.69-4.7,5.14-9.14,7.76-13.48a51.28,51.28,0,0,0,7.82-29,50.12,50.12,0,0,0-7.1-23.92c-3.22-5.46-6.44-10.93-9.5-16.49a10.62,10.62,0,0,1-1.26-4.64c-.14-5.78,0-11.57,0-17.36Z" transform="translate(-84.11 -258.42)"/></g><g id="HATCH-30" data-name="HATCH"><path d="M84.82,478.17c1.78,3.08,3.57,6.15,5.34,9.24,5.43,9.52,11.12,18.9,16.21,28.59,5.78,11,7.06,22.88,5.6,35.17-1.24,10.42-6,19.34-11,28.25-1.65,2.92-3.37,4.22-6.69,3.82a65,65,0,0,0-7.57-.06c2.69-4.7,5.14-9.14,7.76-13.48a51.28,51.28,0,0,0,7.82-29,50.12,50.12,0,0,0-7.1-23.92c-3.22-5.46-6.44-10.93-9.5-16.49a10.62,10.62,0,0,1-1.26-4.64c-.14-5.78,0-11.57,0-17.36Z" transform="translate(-84.11 -258.42)"/></g><g id="SPLINE-31" data-name="SPLINE"><path class="cls-1" d="M145.45,258.65C142.9,263,140.58,267,138.3,271c-2.76,4.8-5.68,9.52-8.19,14.45-4.91,9.62-4.44,19.29.61,28.71,3,5.59,6.42,10.94,9.39,16.54,3.28,6.19,2.84,12.46-.47,19.18-1.54-2.39-2.91-4.35-4.1-6.41-4.79-8.28-9.67-16.51-14.23-24.91A39.23,39.23,0,0,1,117.12,292c1.3-7.13,4.78-13.1,8.25-19.18,2.4-4.23,4.82-8.45,7.37-12.6a3.46,3.46,0,0,1,2.38-1.46C138.35,258.55,141.6,258.65,145.45,258.65Z" transform="translate(-84.11 -258.42)"/></g><g id="HATCH-31" data-name="HATCH"><path d="M145.45,258.65C142.9,263,140.58,267,138.3,271c-2.76,4.8-5.68,9.52-8.19,14.45-4.91,9.62-4.44,19.29.61,28.71,3,5.59,6.42,10.94,9.39,16.54,3.28,6.19,2.84,12.46-.47,19.18-1.54-2.39-2.91-4.35-4.1-6.41-4.79-8.28-9.67-16.51-14.23-24.91A39.23,39.23,0,0,1,117.12,292c1.3-7.13,4.78-13.1,8.25-19.18,2.4-4.23,4.82-8.45,7.37-12.6a3.46,3.46,0,0,1,2.38-1.46C138.35,258.55,141.6,258.65,145.45,258.65Z" transform="translate(-84.11 -258.42)"/></g><g id="SPLINE-32" data-name="SPLINE"><path class="cls-1" d="M426.62,258.65c-2.24,3.9-4.29,7.43-6.31,11-3.21,5.67-6.71,11.21-9.54,17.07-4.47,9.29-3.64,18.6,1.23,27.56,3,5.5,6.24,10.85,9.29,16.32,3.19,5.7,2.9,14.19-.76,19.09-2-3.52-4-6.9-6-10.31-4.5-7.86-9.54-15.48-13.34-23.67-5.89-12.68-4.71-25.35,2.26-37.46,3.46-6,7-12,10.36-18a2.56,2.56,0,0,1,2.68-1.59C419.71,258.73,422.92,258.65,426.62,258.65Z" transform="translate(-84.11 -258.42)"/></g><g id="HATCH-32" data-name="HATCH"><path d="M426.62,258.65c-2.24,3.9-4.29,7.43-6.31,11-3.21,5.67-6.71,11.21-9.54,17.07-4.47,9.29-3.64,18.6,1.23,27.56,3,5.5,6.24,10.85,9.29,16.32,3.19,5.7,2.9,14.19-.76,19.09-2-3.52-4-6.9-6-10.31-4.5-7.86-9.54-15.48-13.34-23.67-5.89-12.68-4.71-25.35,2.26-37.46,3.46-6,7-12,10.36-18a2.56,2.56,0,0,1,2.68-1.59C419.71,258.73,422.92,258.65,426.62,258.65Z" transform="translate(-84.11 -258.42)"/></g><g id="SPLINE-33" data-name="SPLINE"><path class="cls-1" d="M280,349.86c-2.81-4.85-5.39-9.24-7.91-13.67-3.87-6.82-8.27-13.42-11.44-20.56-5.65-12.71-4.77-25.36,2.35-37.47q5.21-8.85,10.14-17.85a2.77,2.77,0,0,1,2.9-1.69c3.15.1,6.31,0,9.95,0-1.18,2.15-2.18,4-3.22,5.82-4.12,7.23-8.54,14.31-12.31,21.72-4.62,9.07-4.27,18.33.64,27.29,3,5.49,6.26,10.85,9.28,16.34,3.14,5.7,3.08,11.67,1.09,17.71A14.67,14.67,0,0,1,280,349.86Z" transform="translate(-84.11 -258.42)"/></g><g id="HATCH-33" data-name="HATCH"><path d="M280,349.86c-2.81-4.85-5.39-9.24-7.91-13.67-3.87-6.82-8.27-13.42-11.44-20.56-5.65-12.71-4.77-25.36,2.35-37.47q5.21-8.85,10.14-17.85a2.77,2.77,0,0,1,2.9-1.69c3.15.1,6.31,0,9.95,0-1.18,2.15-2.18,4-3.22,5.82-4.12,7.23-8.54,14.31-12.31,21.72-4.62,9.07-4.27,18.33.64,27.29,3,5.49,6.26,10.85,9.28,16.34,3.14,5.7,3.08,11.67,1.09,17.71A14.67,14.67,0,0,1,280,349.86Z" transform="translate(-84.11 -258.42)"/></g><g id="SPLINE-34" data-name="SPLINE"><path class="cls-1" d="M338.68,512.07c2.09,3.57,3.91,6.51,5.53,9.56a2.9,2.9,0,0,1-.44,2.21q-7.54,13.21-15.21,26.37c-4.69,8-9.36,15.95-10.66,25.32-.34,2.44-.33,4.92-.49,7.51H306.88c.35-3.58.53-7.16,1.08-10.69,1.52-9.83,6.28-18.31,11.23-26.73,6-10.18,11.86-20.42,17.79-30.63C337.42,514.22,337.87,513.46,338.68,512.07Z" transform="translate(-84.11 -258.42)"/></g><g id="HATCH-34" data-name="HATCH"><path d="M338.68,512.07c2.09,3.57,3.91,6.51,5.53,9.56a2.9,2.9,0,0,1-.44,2.21q-7.54,13.21-15.21,26.37c-4.69,8-9.36,15.95-10.66,25.32-.34,2.44-.33,4.92-.49,7.51H306.88c.35-3.58.53-7.16,1.08-10.69,1.52-9.83,6.28-18.31,11.23-26.73,6-10.18,11.86-20.42,17.79-30.63C337.42,514.22,337.87,513.46,338.68,512.07Z" transform="translate(-84.11 -258.42)"/></g><g id="SPLINE-35" data-name="SPLINE"><path class="cls-1" d="M176.67,583.06H166.15c.44-3.78.73-7.53,1.32-11.24,1.64-10.33,7-19.06,12.17-27.88,5.75-9.83,11.38-19.72,17.07-29.59.37-.62.8-1.2,1.43-2.14,1.93,3.29,3.78,6.26,5.4,9.36a3.25,3.25,0,0,1-.48,2.53c-6.7,11.67-13.51,23.27-20.18,35a49.67,49.67,0,0,0-6.12,22.21C176.72,581.83,176.7,582.39,176.67,583.06Z" transform="translate(-84.11 -258.42)"/></g><g id="HATCH-35" data-name="HATCH"><path d="M176.67,583.06H166.15c.44-3.78.73-7.53,1.32-11.24,1.64-10.33,7-19.06,12.17-27.88,5.75-9.83,11.38-19.72,17.07-29.59.37-.62.8-1.2,1.43-2.14,1.93,3.29,3.78,6.26,5.4,9.36a3.25,3.25,0,0,1-.48,2.53c-6.7,11.67-13.51,23.27-20.18,35a49.67,49.67,0,0,0-6.12,22.21C176.72,581.83,176.7,582.39,176.67,583.06Z" transform="translate(-84.11 -258.42)"/></g><g id="SPLINE-36" data-name="SPLINE"><path class="cls-1" d="M479.42,512.32c1.93,3.32,3.74,6.22,5.28,9.26.33.66-.13,1.94-.59,2.73-6.17,10.74-12.33,21.49-18.63,32.16a54.09,54.09,0,0,0-7.6,26.52H447.34c.44-3.75.77-7.49,1.33-11.2,1.62-10.52,7.2-19.34,12.39-28.32q8.28-14.37,16.63-28.7C478.13,514,478.69,513.36,479.42,512.32Z" transform="translate(-84.11 -258.42)"/></g><g id="HATCH-36" data-name="HATCH"><path d="M479.42,512.32c1.93,3.32,3.74,6.22,5.28,9.26.33.66-.13,1.94-.59,2.73-6.17,10.74-12.33,21.49-18.63,32.16a54.09,54.09,0,0,0-7.6,26.52H447.34c.44-3.75.77-7.49,1.33-11.2,1.62-10.52,7.2-19.34,12.39-28.32q8.28-14.37,16.63-28.7C478.13,514,478.69,513.36,479.42,512.32Z" transform="translate(-84.11 -258.42)"/></g><g id="SPLINE-37" data-name="SPLINE"><path class="cls-1" d="M336.87,583.08h-9.43A33,33,0,0,1,330.7,567c3.82-7.38,8.11-14.53,12.24-21.76,2.37-4.14,4.8-8.23,7.63-13.08.81,2.33,1.53,4,2,5.75,1.53,5.87.19,11.24-2.84,16.37-3.19,5.4-6.5,10.77-9.15,16.43C338.81,574.42,338.14,578.67,336.87,583.08Z" transform="translate(-84.11 -258.42)"/></g><g id="HATCH-37" data-name="HATCH"><path d="M336.87,583.08h-9.43A33,33,0,0,1,330.7,567c3.82-7.38,8.11-14.53,12.24-21.76,2.37-4.14,4.8-8.23,7.63-13.08.81,2.33,1.53,4,2,5.75,1.53,5.87.19,11.24-2.84,16.37-3.19,5.4-6.5,10.77-9.15,16.43C338.81,574.42,338.14,578.67,336.87,583.08Z" transform="translate(-84.11 -258.42)"/></g><g id="SPLINE-38" data-name="SPLINE"><path class="cls-1" d="M491.16,532.56c3.76,7.56,3.29,14.53-.74,21.52-3.74,6.49-7.39,13-10.61,19.81-1.3,2.73-1.35,6.05-2,9.19H468a32.83,32.83,0,0,1,3.87-17.19c5.76-10.68,12-21.11,18-31.64A17.49,17.49,0,0,1,491.16,532.56Z" transform="translate(-84.11 -258.42)"/></g><g id="HATCH-38" data-name="HATCH"><path d="M491.16,532.56c3.76,7.56,3.29,14.53-.74,21.52-3.74,6.49-7.39,13-10.61,19.81-1.3,2.73-1.35,6.05-2,9.19H468a32.83,32.83,0,0,1,3.87-17.19c5.76-10.68,12-21.11,18-31.64A17.49,17.49,0,0,1,491.16,532.56Z" transform="translate(-84.11 -258.42)"/></g><g id="SPLINE-39" data-name="SPLINE"><path class="cls-1" d="M210,532.51c3.64,7.74,3.21,14.73-.94,21.8-3.87,6.59-7.43,13.39-10.7,20.3-1.19,2.51-1.17,5.59-1.71,8.44h-9.9a33.86,33.86,0,0,1,3.82-17c5.95-10.94,12.37-21.63,18.6-32.43C209.34,533.34,209.55,533.11,210,532.51Z" transform="translate(-84.11 -258.42)"/></g><g id="HATCH-39" data-name="HATCH"><path d="M210,532.51c3.64,7.74,3.21,14.73-.94,21.8-3.87,6.59-7.43,13.39-10.7,20.3-1.19,2.51-1.17,5.59-1.71,8.44h-9.9a33.86,33.86,0,0,1,3.82-17c5.95-10.94,12.37-21.63,18.6-32.43C209.34,533.34,209.55,533.11,210,532.51Z" transform="translate(-84.11 -258.42)"/></g><g id="SPLINE-40" data-name="SPLINE"><path class="cls-1" d="M221.53,289.23c-2.1-3.6-3.92-6.61-5.61-9.7a2.33,2.33,0,0,1,.34-1.79c3.29-5.79,6.64-11.54,9.94-17.33a3,3,0,0,1,3.13-1.81c3,.16,6.12,0,9.84,0Z" transform="translate(-84.11 -258.42)"/></g><g id="HATCH-40" data-name="HATCH"><path d="M221.53,289.23c-2.1-3.6-3.92-6.61-5.61-9.7a2.33,2.33,0,0,1,.34-1.79c3.29-5.79,6.64-11.54,9.94-17.33a3,3,0,0,1,3.13-1.81c3,.16,6.12,0,9.84,0Z" transform="translate(-84.11 -258.42)"/></g><g id="SPLINE-41" data-name="SPLINE"><path class="cls-1" d="M379.82,258.65c-5.9,10.18-11.51,19.85-17.13,29.52-.11.19-.38.27-.79.55-1.75-2.93-3.54-5.77-5.11-8.73a3.13,3.13,0,0,1,.23-2.54c3.35-6,6.78-11.87,10.24-17.77a2.11,2.11,0,0,1,1.43-1C372.24,258.61,375.78,258.65,379.82,258.65Z" transform="translate(-84.11 -258.42)"/></g><g id="HATCH-41" data-name="HATCH"><path d="M379.82,258.65c-5.9,10.18-11.51,19.85-17.13,29.52-.11.19-.38.27-.79.55-1.75-2.93-3.54-5.77-5.11-8.73a3.13,3.13,0,0,1,.23-2.54c3.35-6,6.78-11.87,10.24-17.77a2.11,2.11,0,0,1,1.43-1C372.24,258.61,375.78,258.65,379.82,258.65Z" transform="translate(-84.11 -258.42)"/></g><g id="SPLINE-42" data-name="SPLINE"><path class="cls-1" d="M207.27,258.73h8.44L210,268.67A14,14,0,0,1,207.27,258.73Z" transform="translate(-84.11 -258.42)"/></g><g id="HATCH-42" data-name="HATCH"><path d="M207.27,258.73h8.44L210,268.67A14,14,0,0,1,207.27,258.73Z" transform="translate(-84.11 -258.42)"/></g><g id="SPLINE-43" data-name="SPLINE"><path class="cls-1" d="M347.44,258.79h8.86l-5.68,9.66C347.87,265.54,348.24,262.12,347.44,258.79Z" transform="translate(-84.11 -258.42)"/></g><g id="HATCH-43" data-name="HATCH"><path d="M347.44,258.79h8.86l-5.68,9.66C347.87,265.54,348.24,262.12,347.44,258.79Z" transform="translate(-84.11 -258.42)"/></g></svg>